{"glyphs":{"0":{"ha":746,"x_min":49,"x_max":705,"o":"m 379 681 q 346 722 346 698 q 367 758 346 741 q 399 774 387 774 q 473 751 448 774 q 498 692 498 728 q 460 636 498 669 q 389 604 422 604 q 321 638 354 604 q 289 720 289 673 q 337 826 289 781 q 429 871 385 871 q 622 742 538 871 q 705 507 705 612 q 655 283 705 411 q 528 74 604 155 q 376 -7 452 -7 q 218 60 302 -7 q 92 231 134 127 q 49 421 49 334 q 146 738 49 586 q 368 940 244 890 l 379 922 q 153 453 153 807 q 194 186 153 283 q 290 53 235 90 q 389 16 345 16 q 499 82 439 16 q 588 250 559 148 q 616 407 616 352 q 599 582 616 498 q 549 745 583 656 q 500 812 532 787 q 429 844 461 844 q 343 808 377 844 q 310 729 310 771 q 333 654 310 682 q 389 625 355 625 q 427 643 410 625 q 444 681 444 661 q 435 733 444 714 q 412 753 426 753 q 379 681 389 753 z "},"1":{"ha":449,"x_min":-43,"x_max":421,"o":"m 421 74 l 416 31 q 61 -36 183 20 l 61 3 q 245 47 159 28 l 227 281 l 197 730 q 186 840 191 809 q 105 804 156 820 q 25 789 55 789 q -17 802 9 789 q -43 828 -43 815 q -24 888 -43 861 q 16 914 -6 914 q 61 880 61 914 q 28 850 61 848 q 7 893 28 893 q -3 884 1 893 q -7 869 -7 876 q 6 831 -7 846 q 40 817 19 817 q 105 830 67 817 q 213 885 142 844 q 306 937 283 926 q 293 592 306 758 q 281 224 281 426 q 286 49 281 141 q 349 61 299 50 q 421 74 398 72 z "},"2":{"ha":595,"x_min":26,"x_max":576,"o":"m 473 191 q 500 160 500 193 q 481 126 500 142 q 446 111 463 111 q 401 125 423 111 q 379 161 379 140 q 404 237 379 201 q 471 273 429 273 q 543 231 510 273 q 576 131 576 189 q 526 44 576 88 q 431 0 475 0 q 315 24 404 0 q 158 49 226 49 q 80 39 98 49 q 57 11 62 30 q 26 90 26 46 q 62 200 26 128 q 182 344 98 273 q 391 565 343 481 q 439 725 439 648 q 396 855 439 793 q 290 917 353 917 q 182 869 225 917 q 139 771 139 821 q 166 693 139 725 q 224 661 193 661 q 266 682 250 661 q 282 728 282 702 q 274 758 282 741 q 258 775 266 775 q 237 763 248 775 q 225 737 225 751 q 237 714 225 728 q 214 705 223 705 q 193 714 203 705 q 183 734 183 724 q 200 780 183 762 q 237 799 218 799 q 325 737 325 799 q 287 670 325 705 q 193 635 249 635 q 116 673 153 635 q 79 750 79 712 q 157 884 79 825 q 318 942 235 942 q 468 870 404 942 q 533 728 533 798 q 495 597 533 673 q 407 485 456 520 q 115 234 167 312 q 62 97 62 155 q 180 134 109 134 q 357 68 240 134 q 443 32 424 32 q 516 67 486 32 q 546 151 546 102 q 519 208 546 182 q 458 233 492 233 q 406 184 406 233 q 416 156 406 170 q 440 142 427 142 q 473 191 473 142 z "},"3":{"ha":590,"x_min":49,"x_max":549,"o":"m 197 704 q 179 720 191 704 q 167 743 167 735 q 192 780 167 763 q 239 796 216 796 q 280 773 254 796 q 306 732 306 749 q 264 670 306 698 q 180 643 223 643 q 94 685 127 643 q 60 785 60 728 q 148 874 60 838 q 306 911 235 911 q 475 846 401 911 q 549 689 549 781 q 464 546 549 633 q 277 415 380 459 q 455 336 391 393 q 519 208 519 279 q 427 36 519 113 q 239 -41 335 -41 q 106 0 163 -41 q 49 100 49 41 q 92 172 49 132 q 179 212 134 212 q 251 193 222 212 q 279 149 279 173 q 250 81 279 109 q 175 54 220 54 q 129 115 142 54 q 205 100 164 100 q 235 119 235 100 q 213 155 235 136 q 171 175 191 175 q 113 157 140 175 q 85 110 85 140 q 127 24 85 60 q 245 -12 169 -12 q 414 189 414 -12 q 361 342 414 293 q 183 392 308 392 q 123 389 169 392 l 127 456 q 203 435 182 435 q 376 522 309 435 q 443 722 443 608 q 388 838 443 792 q 262 884 334 884 q 160 833 208 884 q 111 732 111 783 q 134 690 111 713 q 174 667 157 667 q 225 685 202 667 q 249 730 249 704 q 233 775 249 775 q 195 736 195 775 l 197 704 z "},"4":{"ha":710,"x_min":31,"x_max":681,"o":"m 681 411 l 668 343 l 513 343 q 511 211 511 254 q 518 53 511 154 l 657 57 q 655 40 657 56 q 653 24 653 24 q 254 -29 428 24 l 248 9 q 478 50 359 31 q 470 192 478 102 q 463 340 463 281 q 31 330 151 334 q 131 488 35 365 q 281 701 245 632 q 317 812 317 770 q 297 887 317 864 q 232 909 277 909 q 141 878 186 909 q 96 811 96 847 q 120 757 96 789 q 160 725 144 725 q 184 739 172 725 q 196 771 196 752 q 146 791 196 791 q 160 816 146 804 q 186 828 175 828 q 220 814 206 828 q 235 781 235 801 q 200 724 235 748 q 127 700 165 700 q 61 734 85 700 q 36 811 36 768 q 103 895 36 854 q 237 936 170 936 q 357 898 311 936 q 403 793 403 861 q 366 679 403 743 q 222 509 330 615 q 111 379 115 402 q 271 368 188 368 q 458 383 364 368 q 475 943 455 628 q 590 922 538 929 l 559 760 q 526 557 535 643 q 513 387 516 471 q 681 411 609 387 z "},"5":{"ha":699,"x_min":71,"x_max":676,"o":"m 176 590 q 260 597 206 597 q 493 557 410 597 q 626 450 576 517 q 676 310 676 382 q 624 173 676 252 q 496 41 572 94 q 350 -12 420 -12 q 171 45 255 -12 q 87 192 87 102 q 151 300 87 249 q 265 351 215 351 q 321 333 292 351 q 350 293 350 314 q 320 221 350 256 q 256 186 290 186 q 226 197 238 186 q 214 227 214 208 q 222 252 214 235 q 273 240 253 240 q 321 278 321 240 q 300 313 321 300 q 253 325 279 325 q 202 287 232 325 q 172 224 172 249 q 218 67 172 115 q 364 20 263 20 q 500 110 435 20 q 566 293 566 200 q 539 409 566 351 q 460 507 513 466 q 360 557 407 547 q 232 567 313 567 q 96 525 169 567 q 71 889 96 738 l 375 883 q 532 949 532 883 q 515 975 532 965 q 475 985 498 985 q 440 957 440 985 q 465 929 440 945 q 415 915 437 915 q 392 930 401 915 q 383 949 383 945 q 421 989 383 967 q 497 1011 459 1011 q 557 993 530 1011 q 585 958 585 975 q 545 900 585 945 q 447 833 505 855 q 357 811 389 811 q 214 827 295 811 q 110 847 133 844 q 176 590 154 690 z "},"6":{"ha":708,"x_min":47,"x_max":669,"o":"m 355 386 q 414 342 414 386 q 377 301 414 326 q 302 277 340 277 q 249 308 278 277 q 220 366 220 338 q 272 465 220 420 q 372 510 324 510 q 579 444 489 510 q 669 279 669 378 q 567 94 669 199 q 410 -12 465 -12 q 154 107 260 -12 q 47 419 47 227 q 76 538 47 456 q 136 669 104 621 q 225 784 169 718 q 352 887 281 850 q 509 924 424 924 q 605 870 557 924 q 653 761 653 816 q 632 711 653 733 q 589 689 611 689 q 536 713 558 689 q 583 763 564 731 q 602 815 602 794 q 561 858 602 836 q 437 880 520 880 q 307 823 376 880 q 196 652 237 766 q 154 407 154 538 q 234 131 154 243 q 401 18 314 18 q 517 93 477 18 q 557 297 557 168 q 491 426 557 374 q 342 478 425 478 q 294 449 315 478 q 272 392 272 420 q 293 339 272 369 q 335 310 313 310 q 366 353 366 310 q 355 386 366 367 z "},"7":{"ha":545,"x_min":33,"x_max":551,"o":"m 551 884 q 425 616 517 784 q 309 399 333 448 q 257 272 286 350 q 228 158 228 193 q 257 73 228 115 q 315 32 286 32 q 374 69 348 32 q 400 139 400 106 q 378 189 400 168 q 325 210 355 210 q 305 199 313 210 q 296 174 296 188 q 336 142 296 142 q 306 109 336 109 q 282 122 298 109 q 267 154 267 136 q 293 219 267 184 q 346 254 320 254 q 398 222 374 254 q 422 154 422 191 q 386 39 422 85 q 288 -7 349 -7 q 177 37 222 -7 q 132 126 132 81 q 190 299 132 189 q 318 513 247 410 q 489 817 447 699 q 354 785 412 785 q 198 794 291 785 q 60 804 105 804 q 69 643 69 656 l 35 643 l 33 904 q 72 905 60 905 q 220 882 121 905 q 397 859 319 859 q 551 884 480 859 z "},"8":{"ha":607,"x_min":57,"x_max":567,"o":"m 311 458 q 359 438 326 451 q 567 207 567 359 q 495 57 567 127 q 334 -12 424 -12 q 166 50 241 -12 q 92 182 92 113 q 140 333 92 270 q 267 456 189 395 q 119 564 182 502 q 57 718 57 627 q 144 873 57 805 q 342 942 232 942 q 496 886 431 942 q 562 772 562 830 q 530 684 562 730 q 443 616 498 637 q 311 458 403 549 m 454 644 q 509 757 509 685 q 454 867 509 817 q 319 917 400 917 q 207 861 260 917 q 153 715 153 805 q 160 637 153 673 q 197 558 168 601 q 285 473 226 515 q 406 611 369 553 q 320 646 353 611 q 288 729 288 681 q 317 791 288 760 q 374 822 346 822 q 417 807 389 822 q 444 772 444 793 q 393 729 444 736 q 383 767 393 746 q 361 789 373 789 q 327 772 340 789 q 313 742 313 755 q 348 679 313 712 q 421 639 383 646 q 441 699 436 666 l 469 693 q 454 644 463 660 m 292 439 q 207 330 231 378 q 183 216 183 283 q 233 61 183 116 q 357 5 282 5 q 437 55 400 5 q 475 160 475 104 q 463 255 475 216 q 428 323 452 294 q 361 385 404 352 q 292 439 319 417 z "},"9":{"ha":682,"x_min":35,"x_max":629,"o":"m 340 412 q 314 404 327 404 q 289 416 299 404 q 279 447 279 429 q 312 524 279 486 q 387 562 345 562 q 433 527 410 562 q 456 463 456 492 q 407 356 456 400 q 307 313 358 313 q 119 391 203 313 q 35 562 35 469 q 123 793 35 688 q 300 899 212 899 q 527 775 425 899 q 629 464 629 652 q 579 244 629 366 q 448 47 529 121 q 273 -28 367 -28 q 156 9 199 -28 q 113 87 113 46 q 131 126 113 109 q 172 144 149 144 q 195 139 184 144 q 182 94 182 118 q 212 28 182 60 q 290 -4 241 -4 q 454 142 387 -4 q 521 481 521 289 q 455 765 521 655 q 304 875 389 875 q 188 788 236 875 q 139 566 139 701 q 190 407 139 475 q 313 339 241 339 q 390 372 355 339 q 425 440 425 405 q 403 483 425 461 q 358 505 380 505 q 310 471 310 505 q 324 436 310 455 q 340 412 338 417 z "}," ":{"ha":418,"x_min":0,"x_max":0,"o":""},"!":{"ha":302,"x_min":46,"x_max":256,"o":"m 256 895 q 196 568 226 767 q 167 224 167 370 q 126 235 142 232 q 134 619 134 482 q 118 873 134 728 q 256 895 223 887 m 82 26 q 56 53 65 30 q 46 90 46 76 q 82 140 46 117 q 149 163 118 163 q 254 49 254 163 q 228 -10 254 12 q 165 -32 202 -32 q 124 -4 142 -32 q 107 54 107 24 q 116 84 107 73 q 139 96 125 96 q 182 39 182 96 q 164 51 175 42 q 144 60 154 60 q 132 53 138 60 q 126 39 126 47 q 165 16 126 16 q 215 62 215 16 q 188 113 215 90 q 129 136 160 136 q 90 112 107 136 q 73 59 73 87 q 82 26 73 40 z "},"\"":{"ha":293,"x_min":50,"x_max":245,"o":"m 245 956 q 208 681 208 753 l 170 679 q 180 791 180 713 q 172 950 180 863 q 190 948 180 948 q 220 951 201 948 q 245 956 239 955 m 129 932 q 97 695 97 782 q 98 661 97 675 q 68 660 83 661 q 50 926 63 862 q 85 928 58 928 q 129 932 113 928 z "},"#":{"ha":625,"x_min":22,"x_max":629,"o":"m 629 721 q 614 660 627 705 q 404 676 578 660 l 407 543 q 564 554 527 549 l 553 500 q 408 517 526 509 q 411 317 412 362 l 350 311 q 371 517 368 392 q 201 510 275 515 q 178 268 182 333 l 126 267 q 164 507 149 343 q 46 500 83 500 l 37 557 q 168 546 85 554 l 180 690 q 22 693 76 693 l 28 751 q 180 725 94 736 q 178 885 180 785 q 239 882 203 885 q 218 721 220 773 q 368 708 295 713 q 343 897 361 818 q 425 920 398 920 q 406 707 408 827 q 629 721 539 703 m 372 542 l 370 679 q 216 689 315 684 l 204 543 q 319 538 278 538 q 372 542 342 538 z "},"$":{"ha":457,"x_min":57,"x_max":425,"o":"m 281 818 q 388 773 351 810 q 425 700 425 736 q 400 629 425 664 q 342 595 374 595 q 287 617 307 595 q 267 664 267 640 q 284 703 267 687 q 319 718 302 718 q 342 713 330 718 q 354 697 354 707 q 323 681 336 694 q 310 652 310 667 q 322 625 310 638 q 350 612 334 612 q 370 636 361 612 q 379 679 379 660 q 343 765 379 730 q 256 800 307 800 q 181 759 210 800 q 151 661 151 717 q 175 558 151 615 q 268 415 199 501 q 358 292 336 330 q 380 215 380 255 q 342 125 380 167 q 239 77 304 84 q 228 -147 228 -119 l 184 -154 q 205 77 201 -37 q 99 128 142 85 q 57 211 57 171 q 86 279 57 250 q 147 309 116 309 q 200 291 173 309 q 228 252 228 273 q 193 205 228 205 q 182 259 193 234 q 151 283 171 283 q 125 263 139 283 q 111 218 111 243 q 145 131 111 165 q 224 96 180 96 q 308 128 269 96 q 347 204 347 161 q 327 276 347 234 q 217 407 307 317 q 100 549 127 496 q 72 646 72 602 q 124 765 72 714 q 256 819 176 816 q 261 911 261 884 q 252 1038 261 954 l 317 1042 q 298 938 308 986 q 281 818 288 890 z "},"%":{"ha":734,"x_min":32,"x_max":733,"o":"m 733 888 q 562 675 684 840 q 342 370 439 510 q 144 57 246 229 l 86 -40 q 32 -14 64 -33 q 155 142 98 49 l 355 451 q 659 933 497 667 q 696 907 665 924 q 733 888 727 891 m 262 734 q 292 685 292 734 q 276 650 292 667 q 241 633 261 633 q 204 652 220 633 q 187 694 187 670 q 216 768 187 732 q 278 803 245 803 q 358 762 321 803 q 395 689 395 722 q 344 563 395 628 q 236 497 293 497 q 107 535 161 497 q 54 632 54 573 q 92 750 54 701 q 196 817 129 800 l 203 804 q 136 744 159 782 q 114 664 114 706 q 231 515 114 515 q 300 569 272 515 q 328 679 328 623 q 313 750 328 716 q 272 783 298 783 q 236 759 253 783 q 218 707 218 734 q 224 675 218 695 q 235 656 229 656 q 258 674 254 656 q 262 734 262 692 m 509 127 q 457 164 457 133 q 488 233 457 204 q 559 261 519 261 q 624 227 591 261 q 657 138 657 193 q 605 30 657 72 q 482 -12 553 -12 q 370 36 418 -12 q 321 147 321 84 q 374 261 321 208 q 488 315 428 315 q 571 298 538 315 l 559 283 q 511 297 530 297 q 429 254 465 297 q 393 149 393 212 q 418 42 393 78 q 485 5 443 5 q 561 42 524 5 q 597 121 597 79 q 582 207 597 177 q 542 237 567 237 q 503 174 503 237 q 509 127 503 152 z "},"&":{"ha":871,"x_min":61,"x_max":951,"o":"m 951 461 q 600 418 777 456 q 750 240 750 358 q 661 75 750 168 q 454 -18 572 -18 q 177 58 293 -18 q 61 237 61 134 q 137 392 61 309 q 437 509 212 475 q 233 620 310 538 q 157 778 157 702 q 230 913 157 848 q 390 978 304 978 q 523 932 470 978 q 576 857 576 887 q 533 784 576 823 q 443 745 490 745 q 403 765 424 745 q 382 800 382 785 q 397 835 382 820 q 434 850 412 850 q 454 847 444 850 q 431 791 431 825 q 438 771 431 781 q 457 762 446 762 q 489 785 475 762 q 504 829 504 807 q 469 916 504 878 q 379 953 434 953 q 277 907 313 953 q 241 799 241 862 q 316 600 241 675 q 522 526 390 524 l 519 485 q 250 431 343 485 q 157 273 157 378 q 252 82 157 159 q 471 5 347 5 q 601 70 547 5 q 656 224 656 135 q 651 270 656 247 q 638 316 647 294 q 617 357 629 338 q 586 391 605 376 q 554 407 566 407 q 442 372 504 407 q 380 306 380 336 q 436 203 380 203 q 463 230 454 203 q 472 293 472 257 q 513 244 513 293 q 476 202 513 227 q 427 178 440 178 q 342 205 372 178 q 313 281 313 233 q 413 387 313 334 q 697 474 513 439 q 951 545 881 509 l 951 461 z "},"'":{"ha":167,"x_min":57,"x_max":138,"o":"m 138 913 q 94 629 96 712 q 58 632 83 629 q 57 903 58 721 q 138 913 120 909 z "},"(":{"ha":269,"x_min":46,"x_max":298,"o":"m 298 970 q 229 852 281 936 q 149 706 176 768 q 107 550 122 643 q 92 364 92 456 q 113 170 92 251 q 166 29 134 89 q 288 -175 198 -31 l 224 -199 q 46 367 46 153 q 159 841 46 587 q 220 1000 206 948 q 298 970 258 972 z "},")":{"ha":269,"x_min":-25,"x_max":228,"o":"m 50 1000 q 228 435 228 644 q 116 -37 228 216 q 54 -199 67 -146 q -25 -168 16 -170 q 42 -54 -7 -133 q 120 85 92 25 q 165 238 149 145 q 182 437 182 332 q 161 631 182 550 q 108 773 140 713 q -14 977 76 833 l 50 1000 z "},"*":{"ha":558,"x_min":54,"x_max":521,"o":"m 521 700 l 415 683 q 319 664 356 673 q 515 528 490 522 q 495 507 508 519 q 475 485 482 496 q 386 572 446 521 q 306 644 326 624 q 298 564 298 610 l 300 447 q 274 448 286 447 q 244 444 263 450 q 279 650 262 519 q 87 550 170 606 q 71 598 85 578 q 54 625 58 618 q 277 676 201 645 l 181 747 q 122 794 134 783 q 151 826 126 800 q 178 856 175 852 q 226 784 188 842 q 286 699 264 725 q 304 895 296 779 q 320 893 313 893 q 370 896 328 893 l 318 693 q 509 786 471 758 q 512 746 509 781 q 521 700 514 711 z "},"+":{"ha":857,"x_min":72,"x_max":787,"o":"m 787 353 l 464 355 q 454 -4 454 76 l 406 -7 q 414 355 406 104 q 72 364 153 355 l 75 435 q 410 404 328 404 q 404 734 404 652 l 467 747 l 461 404 q 779 425 575 404 l 787 353 z "},",":{"ha":222,"x_min":53,"x_max":186,"o":"m 125 24 q 89 3 111 3 q 63 18 73 3 q 53 49 53 34 q 75 80 53 65 q 118 96 97 96 q 166 70 147 96 q 186 11 186 43 q 169 -55 186 -22 q 89 -140 151 -88 q 77 -106 89 -121 q 151 -17 151 -75 q 125 24 151 15 z "},"-":{"ha":443,"x_min":39,"x_max":400,"o":"m 400 397 q 390 329 390 366 q 254 346 343 346 q 137 340 200 346 q 43 332 75 334 q 39 386 43 368 q 221 392 119 386 q 400 397 323 397 z "},".":{"ha":215,"x_min":64,"x_max":158,"o":"m 98 89 q 141 66 123 89 q 158 14 158 43 q 114 -11 158 -11 q 64 36 64 -11 q 74 74 64 59 q 98 89 84 89 z "},"/":{"ha":503,"x_min":-64,"x_max":557,"o":"m 557 867 q 332 510 492 783 q -7 -151 172 236 q -64 -131 -31 -146 q -19 -60 -45 -110 q 22 16 7 -9 q 193 330 96 132 l 476 904 q 517 882 484 895 q 557 867 550 869 z "},":":{"ha":232,"x_min":62,"x_max":189,"o":"m 136 608 q 174 594 159 608 q 189 555 189 579 q 149 505 189 505 q 99 524 126 505 q 72 564 72 542 q 92 596 72 584 q 136 608 112 608 m 96 87 q 144 61 117 87 q 172 14 172 35 q 163 -15 172 -5 q 126 -24 154 -24 q 62 8 62 -24 q 72 59 62 30 q 96 87 82 87 z "},";":{"ha":212,"x_min":45,"x_max":178,"o":"m 124 631 q 150 614 136 631 q 164 581 164 598 q 127 546 164 546 q 83 562 105 546 q 61 599 61 578 q 124 631 61 631 m 117 54 q 81 33 103 33 q 55 49 65 33 q 45 79 45 64 q 67 111 45 96 q 110 126 89 126 q 158 100 139 126 q 178 41 178 74 q 160 -24 178 9 q 81 -110 142 -58 q 68 -75 81 -90 q 143 14 143 -45 q 117 54 143 45 z "},"<":{"ha":857,"x_min":69,"x_max":832,"o":"m 832 714 q 499 559 739 667 q 160 389 260 451 q 786 56 368 250 l 758 -8 q 75 383 299 277 l 69 404 q 771 778 582 642 l 832 714 z "},"=":{"ha":857,"x_min":62,"x_max":804,"o":"m 804 547 l 802 478 l 497 489 q 163 498 282 498 q 75 496 119 498 l 69 547 q 476 539 251 539 q 804 547 724 539 m 798 273 l 783 231 q 415 223 669 231 q 69 215 161 215 l 62 281 q 548 271 360 271 q 798 273 673 271 z "},">":{"ha":857,"x_min":40,"x_max":803,"o":"m 803 395 l 798 374 q 114 -18 573 267 l 86 46 q 713 379 504 239 q 380 546 610 443 q 40 704 151 650 l 102 768 q 803 395 291 632 z "},"?":{"ha":561,"x_min":21,"x_max":517,"o":"m 180 686 q 133 704 153 686 q 114 745 114 721 q 143 792 114 774 q 211 810 173 810 q 260 778 235 810 q 285 713 285 747 q 242 645 285 673 q 150 618 199 618 q 61 655 101 618 q 21 739 21 692 q 90 872 21 817 q 273 926 159 926 q 441 854 366 926 q 517 694 517 783 q 508 628 517 661 q 480 565 498 595 q 435 511 462 535 q 367 467 408 486 q 297 447 326 447 l 265 456 q 275 215 263 331 l 208 204 q 218 307 218 292 q 224 412 218 351 q 229 517 229 474 q 332 489 290 489 q 405 525 374 489 q 436 671 436 561 q 382 846 436 781 q 243 911 328 911 q 125 855 179 911 q 72 741 72 800 q 99 668 72 704 q 157 632 127 632 q 209 667 185 632 q 233 725 233 701 q 187 789 233 789 q 160 739 160 789 q 180 686 160 717 m 253 117 q 279 100 266 117 q 293 64 293 84 q 276 29 293 44 q 236 14 259 14 q 214 52 214 14 q 226 96 214 75 q 253 117 238 117 z "},"@":{"ha":765,"x_min":41,"x_max":710,"o":"m 472 232 q 527 218 505 235 q 549 170 549 201 q 499 103 549 129 q 375 78 449 78 q 139 184 237 78 q 41 433 41 291 q 144 694 41 581 q 396 808 248 808 q 630 730 549 808 q 710 518 710 652 q 657 394 710 461 q 505 297 604 328 q 475 284 500 296 q 432 269 450 272 q 478 478 478 413 q 387 582 478 582 q 322 545 349 582 q 296 453 296 507 q 316 376 296 406 q 374 346 336 346 q 408 357 391 346 q 424 387 424 369 q 415 410 424 398 q 401 421 407 421 q 357 389 380 421 q 345 421 345 401 q 356 449 345 437 q 383 461 368 461 q 444 395 444 461 q 416 346 444 379 q 359 313 389 313 q 265 352 308 313 q 222 440 222 392 q 272 549 222 498 q 383 600 322 600 q 461 583 438 600 q 490 514 484 566 q 517 647 508 582 q 552 635 519 644 q 589 625 585 627 q 472 318 493 404 q 602 378 544 317 q 660 517 660 439 q 588 719 660 648 q 383 790 516 790 q 196 684 275 790 q 117 464 117 577 q 131 313 117 374 q 184 198 144 252 q 287 121 224 143 q 375 100 349 100 q 454 123 423 100 q 485 182 485 147 q 472 232 485 208 z "},"A":{"ha":867,"x_min":-11,"x_max":880,"o":"m 880 16 q 710 -24 819 -14 q 654 386 665 174 q 562 383 626 383 q 376 396 454 383 q 271 103 340 205 q 109 1 202 1 q 25 46 62 1 q -11 140 -11 90 q 22 228 -11 181 q 92 275 54 275 q 131 254 111 275 q 151 212 151 233 q 137 163 151 189 q 103 138 123 138 q 93 142 100 138 q 113 179 113 157 q 102 207 113 193 q 79 221 92 221 q 16 164 16 221 q 44 87 16 112 q 140 62 73 62 q 275 176 237 62 q 313 411 313 290 q 85 567 85 463 q 103 621 85 597 q 149 646 122 646 l 163 646 q 139 581 139 617 q 185 491 139 529 q 311 435 231 453 q 307 539 307 487 q 334 712 307 644 q 422 833 360 780 q 563 912 485 886 q 722 939 641 939 q 779 937 771 939 q 713 444 720 659 q 750 456 725 447 l 753 396 q 713 392 724 393 l 713 343 q 739 17 713 127 q 872 52 789 18 l 880 16 m 676 905 q 485 828 560 909 q 389 488 410 747 q 382 422 385 442 q 471 416 438 416 q 652 432 543 416 q 648 558 648 513 q 676 905 648 743 z "},"B":{"ha":779,"x_min":-28,"x_max":697,"o":"m 367 904 q 616 818 536 888 q 697 664 697 747 q 617 508 697 583 q 421 411 536 433 q 576 348 515 397 q 637 240 637 298 q 614 172 637 211 q 551 103 591 134 q 453 54 511 72 q 352 30 395 36 q 201 24 309 24 q 119 26 153 24 l 127 65 q 249 54 182 54 q 279 517 279 290 q 267 878 279 699 q 26 707 26 862 q 100 643 26 643 q 137 657 113 643 q 160 686 160 671 q 152 695 160 691 q 136 699 143 699 q 110 681 123 699 q 98 700 98 684 q 142 726 98 726 q 167 713 157 726 q 178 682 178 699 q 153 630 178 650 q 98 610 129 610 q 16 645 59 610 q -28 722 -28 681 q 46 836 -28 785 q 264 901 120 888 q 254 1032 264 978 q 368 1022 331 1032 q 367 904 368 940 m 361 428 q 542 499 486 428 q 597 632 597 570 q 557 779 597 729 q 479 848 517 829 q 366 878 441 867 q 345 542 366 784 q 288 58 324 300 q 454 95 366 54 q 542 222 542 136 q 361 395 542 395 l 361 428 z "},"C":{"ha":722,"x_min":35,"x_max":704,"o":"m 704 264 q 623 39 697 119 q 421 -41 549 -41 q 157 95 280 -41 q 35 395 35 231 q 90 624 35 496 q 237 828 145 751 q 440 905 330 905 q 605 851 543 905 q 667 732 667 798 q 608 618 667 669 q 481 567 549 567 q 399 599 440 567 q 358 677 358 631 q 386 746 358 722 q 454 770 413 770 q 508 750 485 770 q 532 711 532 731 q 518 659 532 680 q 485 639 504 639 q 454 660 463 639 q 486 672 468 660 q 504 697 504 685 q 478 741 504 741 q 421 716 448 741 q 395 659 395 692 q 421 610 395 635 q 481 585 448 585 q 559 630 527 585 q 591 732 591 675 q 551 834 591 789 q 441 880 510 880 q 215 756 299 880 q 131 453 131 633 q 228 124 131 257 q 463 -8 324 -8 q 591 43 547 -8 q 635 176 635 94 q 629 269 635 206 l 704 264 z "},"D":{"ha":908,"x_min":-12,"x_max":869,"o":"m 319 840 q 375 843 347 843 q 639 790 519 843 q 814 649 758 738 q 869 464 869 559 q 692 148 869 303 q 215 -16 515 -7 l 207 20 l 328 26 q 224 800 300 452 q 98 731 145 778 q 50 621 50 684 q 63 584 50 602 q 89 567 76 567 q 131 583 110 567 q 153 624 153 599 q 145 657 153 643 q 129 672 138 672 q 113 650 113 672 q 122 633 113 641 l 117 625 q 83 653 83 625 q 99 685 83 672 q 136 697 115 697 q 179 677 160 697 q 197 636 197 658 q 159 575 197 604 q 82 547 121 547 q 16 576 43 547 q -12 632 -12 604 q 52 740 -12 684 q 216 822 117 797 l 197 905 l 310 922 l 319 840 m 357 29 q 653 170 545 58 q 761 464 761 283 q 651 719 761 622 q 380 815 541 815 q 325 812 351 815 q 357 29 357 360 z "},"E":{"ha":739,"x_min":14,"x_max":750,"o":"m 599 180 q 629 155 629 172 q 616 112 629 130 q 581 93 602 93 q 541 114 557 93 q 525 160 525 135 q 561 235 525 199 q 623 271 596 271 q 716 246 682 271 q 750 174 750 221 q 725 90 750 135 q 666 18 699 45 q 601 -16 633 -9 q 509 -22 568 -22 q 389 -11 482 -22 q 240 1 296 1 q 127 -12 200 1 l 127 24 l 205 29 q 160 475 184 314 q 86 825 136 637 l 14 819 l 14 854 q 429 899 246 862 l 582 929 q 564 705 558 802 l 530 705 l 534 859 l 218 838 q 240 410 240 525 q 554 458 439 418 l 554 404 q 240 372 412 376 q 243 194 243 303 q 241 32 243 114 l 505 24 q 661 52 627 24 q 694 135 694 79 q 597 231 694 231 q 568 213 583 231 q 553 172 553 196 q 567 145 553 155 q 593 135 581 135 q 607 150 607 135 q 593 172 607 164 l 599 180 z "},"F":{"ha":635,"x_min":3,"x_max":616,"o":"m 3 850 q 147 844 80 844 q 330 869 212 844 q 503 893 448 893 q 586 866 555 893 q 616 787 616 839 q 570 672 616 734 q 472 610 524 610 q 398 634 425 610 q 371 690 371 659 q 403 745 371 715 q 460 775 435 775 q 493 759 478 775 q 509 728 509 743 q 475 688 509 688 q 436 742 465 742 q 414 733 424 742 q 404 711 404 724 q 429 662 404 691 q 479 633 454 633 q 543 672 519 633 q 567 761 567 711 q 541 814 567 791 q 468 838 515 838 q 208 818 389 838 q 222 374 222 505 q 543 407 408 374 l 539 354 q 224 332 355 332 l 229 -1 q 412 32 323 -1 l 412 -16 q 214 -32 290 -32 q 115 -46 179 -32 l 115 -5 l 196 -3 q 85 817 166 491 l 3 819 l 3 850 z "},"G":{"ha":846,"x_min":54,"x_max":851,"o":"m 851 322 q 753 310 809 314 q 765 99 753 223 q 778 -86 778 -24 q 732 -214 778 -161 q 618 -268 686 -268 q 526 -237 571 -268 q 481 -168 481 -207 q 512 -98 481 -131 q 583 -65 544 -65 q 632 -84 612 -65 q 652 -123 652 -104 q 636 -151 652 -140 q 607 -163 621 -163 q 583 -136 583 -163 q 602 -143 593 -143 q 615 -121 615 -143 q 586 -87 615 -87 q 559 -110 571 -87 q 547 -155 547 -133 q 567 -219 547 -195 q 619 -243 587 -243 q 711 -200 675 -243 q 747 -109 747 -157 q 728 8 747 -62 q 704 111 709 79 q 472 -20 626 -20 q 182 98 311 -20 q 54 379 54 216 q 173 740 54 583 q 458 896 292 896 q 632 839 566 896 q 697 717 697 781 q 643 605 697 654 q 521 555 588 555 q 452 584 481 555 q 424 656 424 612 q 449 717 424 688 q 501 746 475 746 q 544 726 521 746 q 567 694 567 707 q 554 653 567 669 q 524 640 541 637 q 512 681 528 669 q 485 692 497 692 q 460 676 469 692 q 450 643 450 660 q 472 605 450 629 q 521 581 493 581 q 597 617 568 581 q 625 715 625 653 q 577 826 625 779 q 457 873 530 873 q 234 748 317 873 q 151 411 151 622 q 252 123 151 238 q 497 8 353 8 q 630 92 585 8 q 676 307 676 176 q 503 292 627 307 l 503 332 q 683 340 627 338 q 782 349 740 342 q 851 363 824 355 l 851 322 z "},"H":{"ha":932,"x_min":-12,"x_max":950,"o":"m 657 503 q 629 794 629 713 q 683 949 629 888 q 815 1010 736 1010 q 909 969 869 1010 q 950 875 950 929 q 916 815 950 846 q 848 785 882 785 q 794 805 821 785 q 766 842 766 825 q 787 882 766 862 q 823 901 807 901 q 854 895 848 901 q 860 878 860 888 q 851 852 860 869 q 821 878 835 878 q 808 850 808 878 q 822 816 808 830 q 847 802 836 802 q 877 834 863 802 q 892 901 892 867 q 871 958 892 930 q 818 986 851 986 q 744 919 773 986 q 715 761 715 852 q 735 427 715 659 q 781 40 755 195 q 899 71 827 40 l 909 33 q 770 5 825 12 q 636 -33 716 -2 l 633 12 l 743 36 q 664 469 673 375 q 444 414 563 435 q 249 393 325 393 q 239 -23 249 64 q 194 -172 230 -109 q 92 -235 158 -235 q 22 -204 56 -235 q -12 -129 -12 -174 q 24 -77 -12 -104 q 86 -50 60 -50 q 139 -68 121 -50 q 158 -109 158 -87 q 145 -137 158 -125 q 118 -150 133 -150 q 87 -118 94 -150 l 94 -113 q 111 -125 107 -125 q 125 -102 125 -125 q 115 -81 125 -92 q 96 -71 106 -71 q 65 -88 79 -71 q 52 -127 52 -106 q 64 -184 52 -161 q 97 -208 77 -208 q 180 -146 151 -208 q 210 26 210 -85 q 180 415 210 186 q 104 851 151 643 q 81 850 95 850 q 14 854 53 850 l 14 885 q 329 901 235 880 l 329 865 q 229 854 268 859 q 245 436 245 553 q 309 434 281 434 q 465 450 389 434 q 657 503 541 467 z "},"I":{"ha":374,"x_min":31,"x_max":357,"o":"m 357 33 l 354 -4 q 200 3 281 3 q 61 -11 165 3 l 61 28 l 182 31 q 131 869 134 379 l 31 867 l 32 899 q 203 904 157 897 q 319 930 250 911 l 326 896 l 236 878 q 211 324 211 559 q 218 32 211 180 q 357 33 276 32 z "},"J":{"ha":614,"x_min":3,"x_max":562,"o":"m 562 859 q 469 850 508 855 q 482 642 472 774 q 492 395 492 509 q 463 148 492 270 q 366 -33 433 26 q 212 -92 299 -92 q 67 -32 132 -92 q 3 104 3 28 q 64 243 3 182 q 186 304 126 304 q 284 263 243 304 q 325 165 325 221 q 288 98 325 129 q 214 66 251 66 q 158 91 184 66 q 132 146 132 116 q 147 185 132 170 q 186 200 162 200 q 228 164 228 200 q 201 168 210 168 q 186 160 193 168 q 179 142 179 151 q 189 104 179 119 q 210 89 199 89 q 247 118 233 89 q 261 175 261 147 q 242 250 261 221 q 191 279 223 279 q 114 229 145 279 q 82 110 82 179 q 117 -18 82 31 q 212 -66 152 -66 q 370 22 315 -66 q 425 330 425 111 q 399 581 425 429 q 342 838 374 732 q 195 828 314 833 l 195 863 q 446 877 382 869 q 562 900 509 886 l 562 859 z "},"K":{"ha":865,"x_min":16,"x_max":863,"o":"m 765 207 q 783 182 783 207 q 770 162 783 171 q 736 154 756 154 q 693 172 713 154 q 672 212 672 189 q 697 253 672 235 q 755 271 722 271 q 829 243 795 271 q 863 179 863 215 q 822 107 863 136 q 737 78 781 78 q 522 155 626 78 q 282 436 418 231 l 203 371 l 200 31 q 338 56 258 31 l 338 20 q 184 3 261 3 q 46 -11 150 3 l 46 26 l 167 29 l 115 844 l 16 842 l 16 873 q 172 880 125 876 q 304 908 220 884 l 304 871 l 221 852 q 203 411 206 660 q 440 662 361 546 q 564 908 519 777 l 504 947 l 519 971 q 631 912 586 929 q 729 882 676 896 l 713 856 l 642 873 q 349 500 511 659 l 449 340 q 541 212 498 263 q 635 129 584 161 q 743 97 686 97 q 791 123 770 97 q 812 183 812 149 q 797 235 812 214 q 757 256 782 256 q 715 216 715 256 q 724 187 715 201 q 742 172 732 172 q 765 207 762 172 z "},"L":{"ha":635,"x_min":8,"x_max":628,"o":"m 510 170 q 533 180 520 180 q 561 134 561 180 q 540 93 561 116 q 500 71 519 71 q 447 96 468 71 q 427 165 427 121 q 450 227 427 200 q 501 254 474 254 q 587 203 547 254 q 628 89 628 152 q 493 -36 628 -36 q 332 -15 438 -36 q 171 7 227 7 q 35 -3 119 7 l 37 29 l 155 35 q 163 310 163 88 q 121 852 163 562 q 8 848 82 852 l 11 885 q 177 882 98 882 q 323 895 243 882 l 323 856 l 225 856 q 233 574 233 696 q 193 39 233 370 q 330 30 231 39 q 463 21 429 21 q 559 46 518 21 q 600 104 600 71 q 583 176 600 147 q 533 204 565 204 q 470 189 496 204 q 444 147 444 174 q 457 115 444 121 q 497 109 469 109 q 538 134 538 109 q 510 170 538 149 z "},"M":{"ha":1158,"x_min":1,"x_max":1122,"o":"m 1034 100 q 1051 79 1051 94 q 1004 46 1051 46 q 961 65 983 46 q 939 104 939 84 q 972 161 939 134 q 1046 187 1006 187 q 1099 161 1076 187 q 1122 94 1122 135 q 1077 -2 1122 50 q 994 -54 1031 -54 q 889 -10 923 -54 q 848 97 856 35 q 840 258 840 159 l 849 627 q 846 742 849 683 q 631 231 667 387 l 591 228 q 447 525 533 356 q 336 787 361 694 q 328 538 328 680 q 353 37 328 302 q 481 29 401 37 l 476 3 q 183 14 191 12 l 186 47 q 322 37 275 35 q 273 843 269 378 q 120 837 163 843 q 50 800 78 831 q 22 720 22 770 q 51 659 22 682 q 113 635 79 635 q 149 645 132 635 q 165 668 165 655 q 157 685 165 675 q 142 694 148 694 q 86 668 109 694 q 72 690 72 677 q 89 721 72 708 q 119 734 106 734 q 170 714 143 734 q 196 671 196 694 q 171 612 196 639 q 118 586 146 586 q 37 624 73 586 q 1 728 1 662 q 44 824 1 779 q 144 868 87 868 q 291 874 195 868 q 424 886 387 880 l 433 857 q 358 851 383 851 q 635 361 424 656 q 766 665 717 565 q 847 857 815 766 q 754 872 837 860 l 762 900 q 901 879 785 892 q 1097 861 1017 865 l 1090 832 q 956 844 1040 832 q 924 535 950 821 q 899 114 899 249 q 978 -33 899 -33 q 1044 -1 1017 -33 q 1072 79 1072 31 q 1029 168 1072 168 q 998 154 1015 168 q 981 123 981 140 q 991 83 981 101 q 1015 65 1002 65 q 1034 100 1034 65 z "},"N":{"ha":1075,"x_min":-9,"x_max":1105,"o":"m 758 193 q 750 562 750 513 q 765 772 750 705 q 839 880 779 840 q 986 920 899 920 q 1073 899 1040 920 q 1105 842 1105 878 q 1063 784 1105 814 q 964 754 1021 754 q 907 773 938 754 q 876 810 876 793 q 890 846 876 833 q 925 860 903 860 q 953 844 943 860 q 933 812 933 823 q 979 774 933 774 q 1024 789 1008 774 q 1039 825 1039 804 q 1012 876 1039 859 q 942 893 985 893 q 822 808 864 893 q 781 453 781 724 q 811 3 781 190 l 786 -1 q 346 771 511 536 q 361 404 361 609 q 352 186 361 264 q 307 47 343 107 q 195 -12 271 -12 q 53 33 115 -12 q -9 146 -9 79 q 40 237 -9 194 q 146 281 90 281 q 198 266 176 281 q 221 228 221 251 q 195 177 221 199 q 131 155 170 155 q 113 163 120 155 q 106 180 106 170 q 117 203 106 191 q 131 188 121 200 q 151 176 142 176 q 180 207 180 176 q 157 239 180 224 q 110 254 134 254 q 64 228 83 254 q 45 174 45 201 q 74 70 45 117 q 150 22 104 22 q 287 122 240 22 q 334 392 334 221 q 318 661 334 508 q 290 860 302 814 l 111 852 l 111 884 q 399 901 286 884 q 758 193 557 535 z "},"O":{"ha":957,"x_min":50,"x_max":911,"o":"m 453 639 q 425 623 442 623 q 403 640 414 623 q 392 671 392 658 q 411 704 392 686 q 452 722 431 722 q 496 696 472 722 q 519 647 519 669 q 487 560 519 595 q 416 525 454 525 q 342 564 374 525 q 310 650 310 603 q 375 777 310 717 q 538 838 440 838 q 796 718 682 838 q 911 456 911 597 q 787 133 911 277 q 500 -12 663 -12 q 181 112 312 -12 q 50 404 50 235 q 156 703 50 568 q 415 876 261 838 l 424 856 q 223 709 299 831 q 147 422 147 587 q 250 130 147 250 q 511 11 352 11 q 724 137 640 11 q 807 428 807 263 q 726 698 807 591 q 518 804 646 804 q 387 756 440 804 q 334 652 334 709 q 359 601 334 621 q 411 581 384 581 q 470 597 446 581 q 494 637 494 614 q 480 670 494 657 q 449 684 466 684 q 410 671 410 684 q 453 639 410 659 z "},"P":{"ha":765,"x_min":-4,"x_max":750,"o":"m 370 926 q 641 846 532 926 q 750 656 750 765 q 663 422 750 520 q 467 325 576 325 q 403 354 431 325 q 375 418 375 382 q 412 459 375 439 q 478 479 449 479 q 509 439 509 479 q 484 406 509 427 q 470 429 481 410 q 444 449 458 449 q 414 400 414 449 q 432 360 414 376 q 478 345 451 345 q 603 422 549 345 q 657 604 657 499 q 585 808 657 728 q 367 895 512 888 q 353 436 353 747 q 369 215 353 355 q 387 18 385 75 l 557 4 l 547 -36 q 349 -15 473 -23 q 154 -9 224 -7 l 150 31 q 276 26 210 31 q 353 22 341 20 q 330 212 349 83 q 288 739 288 513 q 290 896 288 865 q 111 848 187 892 q 35 742 35 805 q 61 694 35 712 q 121 676 87 676 q 204 707 204 676 q 196 721 204 715 q 178 726 187 726 q 155 701 155 726 q 134 726 134 705 q 174 758 134 758 q 209 744 192 758 q 225 715 225 730 q 193 656 225 681 q 115 632 161 632 q 31 662 66 632 q -4 733 -4 691 q 59 844 -4 787 q 292 924 122 901 q 293 1061 292 951 q 396 1054 384 1054 q 370 926 370 947 z "},"Q":{"ha":996,"x_min":45,"x_max":1047,"o":"m 911 -81 q 918 -96 918 -87 q 892 -123 918 -113 q 856 -134 867 -134 q 798 -78 798 -134 q 830 -14 798 -54 q 923 25 863 25 q 1010 -2 974 25 q 1047 -69 1047 -29 q 993 -183 1047 -136 q 863 -231 939 -231 q 710 -109 744 -231 q 668 21 692 -42 q 488 -17 586 -17 q 176 117 308 -17 q 45 441 45 250 q 162 753 45 609 q 421 940 280 897 l 428 918 q 293 842 366 907 q 183 665 220 776 q 146 439 146 555 q 242 130 146 253 q 497 7 338 7 q 654 54 579 7 q 585 152 623 122 q 490 182 547 182 q 413 148 445 182 q 382 61 380 115 l 351 71 q 411 200 370 155 q 507 245 452 245 q 682 75 620 245 q 797 226 755 134 q 838 418 838 318 q 741 695 838 577 q 514 814 644 814 q 371 775 421 814 q 321 688 321 736 q 347 608 321 640 q 411 576 374 576 q 464 593 439 576 q 489 628 489 610 q 475 666 489 649 q 446 684 462 684 q 422 659 422 684 q 454 631 422 647 q 429 611 446 611 q 397 622 409 611 q 385 650 385 633 q 408 685 385 669 q 454 701 431 701 q 503 684 477 701 q 529 646 529 666 q 494 581 529 607 q 408 554 458 554 q 306 590 350 554 q 262 664 262 626 q 336 783 262 729 q 525 836 410 836 q 813 720 686 836 q 940 436 940 604 q 873 218 940 328 q 697 39 806 108 q 758 -124 722 -66 q 904 -182 793 -182 q 979 -161 949 -182 q 1008 -103 1008 -141 q 981 -40 1008 -73 q 916 -7 954 -7 q 860 -19 884 -7 q 835 -50 835 -31 q 867 -89 835 -89 q 911 -81 888 -89 z "},"R":{"ha":848,"x_min":41,"x_max":847,"o":"m 733 -31 q 766 -48 766 -33 q 745 -85 766 -66 q 703 -103 725 -103 q 652 -87 676 -103 q 628 -49 628 -71 q 658 11 628 -18 q 721 40 688 40 q 811 12 774 40 q 847 -56 847 -16 q 798 -144 847 -102 q 679 -186 748 -186 q 574 -147 614 -186 q 534 -46 534 -108 q 546 64 534 -12 q 558 218 558 140 q 313 427 558 427 l 310 447 q 533 694 533 503 q 466 820 533 771 q 317 868 399 868 q 250 864 288 868 q 233 313 233 680 q 237 69 233 277 q 375 94 296 69 l 375 57 q 222 40 298 40 q 83 26 187 40 l 83 65 l 204 68 q 142 852 155 593 l 41 836 l 41 868 q 350 899 249 899 q 558 840 475 899 q 642 713 642 781 q 577 572 642 646 q 399 453 513 499 q 582 396 522 437 q 643 264 643 355 q 605 112 643 214 q 567 -52 567 10 q 599 -133 567 -102 q 686 -164 631 -164 q 766 -135 734 -164 q 798 -68 798 -105 q 722 20 798 20 q 693 5 707 20 q 679 -29 679 -10 q 689 -65 679 -51 q 711 -79 699 -79 q 733 -31 734 -79 z "},"S":{"ha":668,"x_min":72,"x_max":616,"o":"m 386 772 q 355 781 370 781 q 336 737 336 781 q 350 711 336 723 q 379 699 363 699 q 441 808 441 699 q 407 885 441 852 q 325 917 372 917 q 217 870 262 917 q 171 764 171 823 q 207 669 171 715 q 351 564 243 623 q 506 473 460 505 q 584 397 552 442 q 616 294 616 353 q 518 86 616 185 q 300 -14 419 -14 q 148 54 213 -14 q 83 210 83 121 q 146 338 83 281 q 275 396 209 396 q 375 367 337 396 q 412 288 412 337 q 370 197 412 235 q 273 158 328 158 q 235 175 250 158 q 220 212 220 191 q 235 247 220 233 q 275 260 251 260 q 302 244 294 260 q 267 218 267 233 q 301 180 267 180 q 346 209 328 180 q 363 271 363 238 q 334 342 363 312 q 265 372 306 372 q 183 323 212 372 q 154 193 154 273 q 200 68 154 121 q 313 16 245 16 q 491 89 417 16 q 566 281 566 161 q 533 374 566 336 q 454 437 501 412 q 325 496 407 463 q 192 556 243 529 q 107 626 142 583 q 72 732 72 669 q 149 878 72 818 q 329 937 226 937 q 441 905 395 937 q 488 821 488 873 q 457 720 488 762 q 375 677 426 677 q 307 695 336 677 q 279 741 279 712 q 296 786 279 766 q 340 806 313 806 q 386 772 386 806 z "},"T":{"ha":660,"x_min":-47,"x_max":704,"o":"m 472 975 q 468 989 468 982 q 479 1012 468 1002 q 503 1022 490 1022 q 544 1005 526 1022 q 562 972 562 989 q 534 916 562 941 q 468 890 506 890 q 398 918 427 890 q 368 983 368 945 q 415 1056 368 1021 q 526 1090 461 1090 q 648 1052 592 1090 q 704 958 704 1013 q 632 826 704 871 q 368 761 559 782 q 374 492 374 602 q 361 37 374 349 q 538 65 470 37 l 538 22 q 339 5 442 8 q 240 -9 304 4 l 240 28 l 325 33 q 303 406 325 170 q 254 746 281 642 q -1 711 168 728 l 8 583 l -28 579 q -47 764 -33 700 l -12 770 l -7 742 q 350 789 180 758 q 580 859 520 819 q 640 972 640 899 q 609 1043 640 1015 q 524 1071 577 1071 q 452 1044 486 1071 q 418 983 418 1017 q 435 933 418 957 q 475 909 452 909 q 513 924 499 909 q 528 958 528 938 q 520 979 528 968 q 501 989 513 989 q 472 975 491 989 z "},"U":{"ha":916,"x_min":96,"x_max":831,"o":"m 643 705 q 633 690 643 697 q 614 684 623 684 q 591 694 601 684 q 581 715 581 705 q 595 748 581 730 q 627 765 610 765 q 677 746 653 765 q 701 704 701 727 q 670 645 701 669 q 602 621 640 621 q 526 657 559 621 q 492 733 492 693 q 536 837 492 794 q 633 879 580 879 q 773 765 716 879 q 831 463 831 650 q 736 112 831 257 q 476 -33 642 -33 q 226 78 332 -33 q 119 339 119 189 q 126 470 119 412 q 151 653 133 529 l 175 810 l 96 810 l 96 836 q 244 842 199 838 q 370 869 290 846 l 370 836 l 290 818 q 250 672 277 783 q 212 486 222 562 q 203 310 203 411 q 282 89 203 183 q 476 -5 361 -5 q 710 126 626 -5 q 794 458 794 258 q 753 730 794 637 q 635 823 712 823 q 566 792 595 823 q 536 718 536 760 q 560 660 536 683 q 610 637 583 637 q 646 653 629 637 q 663 686 663 669 q 650 729 663 707 q 628 750 638 750 q 608 733 608 750 q 643 705 608 720 z "},"V":{"ha":869,"x_min":-56,"x_max":926,"o":"m 436 64 q 512 234 478 125 q 549 435 547 343 q 579 718 553 646 q 661 837 605 789 q 793 884 718 884 q 889 851 851 884 q 926 766 926 818 q 888 702 926 734 q 810 669 849 669 q 765 684 789 669 q 742 713 742 699 q 761 761 742 742 q 810 779 780 779 q 837 772 829 779 q 846 745 846 766 q 793 758 820 758 q 778 752 787 758 q 768 741 768 747 q 835 707 768 707 q 893 742 893 707 q 851 812 893 785 q 753 839 809 839 q 649 781 682 839 q 605 602 617 723 q 591 440 593 481 q 415 -16 584 227 l 390 -16 q 359 138 384 52 q 275 402 334 224 q 172 664 216 581 q 83 836 128 747 l -49 822 l -56 854 q 330 899 203 867 q 339 864 339 874 l 199 848 q 436 64 286 692 z "},"W":{"ha":1253,"x_min":-41,"x_max":1194,"o":"m 1059 803 q 1103 764 1103 803 q 1070 714 1103 739 q 999 690 1038 690 q 952 714 972 690 q 932 764 932 737 q 979 863 932 816 q 1078 909 1027 909 q 1162 873 1130 909 q 1194 772 1194 837 q 1175 638 1194 710 q 1081 440 1156 567 q 948 164 1006 313 q 886 -54 890 15 l 859 -56 l 797 82 q 696 340 739 211 q 625 583 654 469 q 429 -11 499 333 l 380 -28 q 257 435 348 171 q 81 839 166 699 q -33 806 50 832 l -41 833 q 338 926 102 887 l 349 893 q 208 868 307 890 q 407 71 302 625 l 475 309 q 540 502 490 361 q 635 734 589 642 l 724 699 q 873 24 736 422 q 1050 489 919 295 q 1138 636 1116 586 q 1160 758 1160 686 q 1121 833 1160 800 q 1050 867 1083 867 q 981 790 981 867 q 996 748 981 769 q 1029 726 1010 726 q 1067 761 1067 726 q 1059 803 1067 781 z "},"X":{"ha":843,"x_min":1,"x_max":861,"o":"m 861 22 q 525 -72 699 -1 l 510 -37 q 656 9 570 -16 q 463 343 602 142 q 399 217 444 309 q 318 79 355 125 q 223 -3 282 34 q 118 -40 164 -40 q 31 2 61 -40 q 1 121 1 45 q 31 196 1 159 q 93 233 61 233 q 160 151 160 233 q 142 117 160 134 q 106 100 123 100 q 82 110 89 100 q 75 149 75 120 q 106 140 99 140 q 136 161 136 140 q 98 193 136 193 q 46 171 69 193 q 24 113 24 149 q 55 40 24 64 q 163 16 85 16 q 301 114 235 16 q 439 378 367 213 q 272 643 362 485 q 157 876 182 801 q 64 880 140 874 l 75 918 q 395 889 216 897 l 386 859 q 288 865 313 865 q 478 463 323 709 q 669 890 585 693 q 568 929 637 909 l 591 962 q 822 890 690 920 l 811 847 q 713 879 745 872 q 501 422 541 515 q 701 21 586 273 l 850 57 l 861 22 z "},"Y":{"ha":1011,"x_min":35,"x_max":1046,"o":"m 1046 850 l 1040 818 l 940 831 l 863 699 l 749 484 l 629 249 q 530 92 583 166 q 476 24 499 48 q 427 -21 454 0 q 371 -56 401 -42 q 311 -69 340 -69 q 185 -32 228 -69 q 142 72 142 5 q 184 161 142 117 q 277 205 226 205 q 362 185 341 205 q 383 123 383 165 q 350 76 383 101 q 298 50 317 50 q 266 62 279 50 q 253 96 253 75 q 304 86 289 86 q 342 98 326 86 q 358 121 358 110 q 310 157 358 157 q 213 138 253 157 q 174 93 174 119 q 218 33 174 57 q 330 8 262 8 q 483 88 408 8 q 616 298 557 168 q 427 640 524 389 q 318 820 381 755 q 192 885 255 885 q 104 852 145 885 q 64 770 64 820 q 91 699 64 724 q 163 675 118 675 q 228 693 203 675 q 252 742 252 712 q 200 778 252 778 q 171 749 171 778 q 179 717 171 734 q 146 730 159 717 q 134 757 134 743 q 155 807 134 784 q 211 829 177 829 q 256 800 239 829 q 273 730 273 770 q 244 656 273 696 q 176 616 216 616 q 81 661 127 616 q 35 754 35 706 q 95 891 35 833 q 244 950 156 950 q 329 924 279 950 q 427 827 379 898 q 534 572 475 755 q 636 328 606 352 q 892 838 868 805 q 793 852 865 843 l 804 888 q 1046 850 861 868 z "},"Z":{"ha":760,"x_min":35,"x_max":726,"o":"m 619 243 q 644 210 644 243 q 623 182 644 194 q 581 170 602 170 q 533 196 554 170 q 511 236 511 222 q 548 315 511 279 q 621 351 585 351 q 690 318 654 351 q 726 228 726 285 q 656 78 726 151 q 479 5 585 5 q 346 17 450 5 q 183 28 243 28 q 43 8 79 28 l 35 25 q 370 473 272 301 q 561 875 467 644 q 176 802 405 802 q 153 643 166 707 l 113 647 q 144 817 144 762 q 134 947 144 863 q 164 951 137 948 l 176 873 q 262 872 222 872 q 503 891 404 872 q 623 937 602 911 q 669 893 632 923 q 533 627 610 766 q 390 404 456 488 q 219 199 323 319 q 102 60 115 78 q 201 88 134 76 q 314 100 267 100 q 431 81 342 100 q 578 62 519 62 q 651 106 618 62 q 684 197 684 150 q 657 266 684 231 q 602 301 631 301 q 550 285 568 301 q 532 252 532 269 q 586 203 532 203 q 607 216 595 203 q 619 243 619 230 z "},"[":{"ha":297,"x_min":39,"x_max":293,"o":"m 293 983 l 285 925 q 125 945 194 941 q 132 633 132 844 q 106 -29 132 421 q 207 -39 147 -39 q 245 -37 229 -39 l 237 -77 q 77 -58 146 -56 q 79 105 79 5 q 39 983 79 553 q 184 979 112 979 q 293 983 255 979 z "},"\\":{"ha":503,"x_min":-82,"x_max":539,"o":"m 539 -131 q 482 -151 506 -146 q 150 497 310 222 q -82 867 -9 772 q -42 882 -75 869 q -1 904 -9 895 l 283 330 q 453 16 378 132 q 494 -60 468 -9 q 539 -131 520 -110 z "},"]":{"ha":297,"x_min":26,"x_max":279,"o":"m 279 987 q 240 111 240 581 q 243 -53 240 11 q 81 -71 172 -51 l 72 -33 q 212 -24 157 -37 q 187 678 187 403 q 193 950 187 873 q 35 929 113 946 l 26 987 q 125 983 60 983 q 279 987 193 983 z "},"^":{"ha":857,"x_min":109,"x_max":764,"o":"m 764 268 l 686 212 q 446 783 526 631 l 315 519 q 192 235 244 374 l 109 278 q 416 859 352 679 l 449 876 q 764 268 595 528 z "},"_":{"ha":694,"x_min":0,"x_max":694,"o":"m 694 -416 l 0 -416 l 0 -347 l 694 -347 l 694 -416 z "},"`":{"ha":294,"x_min":17,"x_max":271,"o":"m 271 724 q 257 700 258 705 q 192 736 249 703 q 99 783 135 770 q 17 817 63 796 q 32 844 22 820 q 45 873 42 869 q 271 724 178 768 z "},"a":{"ha":501,"x_min":56,"x_max":463,"o":"m 222 444 q 191 416 218 416 q 166 427 176 416 q 157 454 157 437 q 174 491 157 474 q 211 509 191 509 q 302 456 302 509 q 256 375 302 412 q 175 338 209 338 q 107 360 135 338 q 79 421 79 383 q 153 581 79 500 q 307 663 227 663 q 418 606 373 663 q 463 467 463 549 q 446 366 463 408 q 395 267 429 323 q 309 3 309 123 q 310 -25 309 -11 l 282 -25 l 283 65 q 161 9 199 9 q 85 38 115 9 q 56 111 56 66 q 100 187 56 154 q 199 220 144 220 q 322 228 237 220 q 372 422 372 337 q 282 619 372 619 q 163 566 199 619 q 127 419 127 513 q 143 375 127 393 q 180 357 158 357 q 233 382 208 357 q 258 439 258 408 q 243 468 258 456 q 208 481 227 481 q 194 473 200 481 q 187 456 187 465 q 201 439 187 439 q 222 444 213 439 m 313 204 q 221 195 256 201 q 164 163 186 189 q 143 109 143 137 q 158 64 143 81 q 196 46 172 46 q 289 98 237 46 l 313 204 z "},"b":{"ha":611,"x_min":21,"x_max":578,"o":"m 282 383 q 248 412 248 385 q 262 447 248 432 q 294 463 276 463 q 332 443 316 463 q 349 395 349 422 q 324 337 349 358 q 269 317 300 317 q 210 343 234 317 q 186 411 186 370 q 238 521 186 471 q 351 571 290 571 q 508 489 437 571 q 578 314 578 408 q 489 96 578 193 q 293 -1 399 -1 q 172 42 228 -1 q 106 151 116 86 q 43 69 72 94 l 21 82 q 65 139 46 107 q 93 200 84 171 q 114 328 102 229 q 136 569 125 427 q 146 854 146 712 q 140 993 146 905 l 58 989 l 60 1014 q 307 1059 182 1014 l 311 1035 l 254 1017 q 180 554 229 804 q 132 235 132 305 q 180 84 132 141 q 296 28 228 28 q 429 114 372 28 q 485 306 485 199 q 439 465 485 391 q 334 538 393 538 q 247 502 285 538 q 208 416 208 467 q 228 377 208 396 q 269 358 248 358 q 308 371 289 358 q 326 397 326 383 q 289 424 326 424 q 275 408 275 424 q 282 383 275 403 z "},"c":{"ha":566,"x_min":54,"x_max":536,"o":"m 444 33 q 323 14 371 14 q 132 113 210 14 q 54 346 54 213 q 149 565 54 468 q 366 661 244 661 q 479 626 421 661 q 536 543 536 591 q 498 465 536 503 q 416 428 460 428 q 347 449 378 428 q 317 503 317 469 q 336 551 317 534 q 390 568 356 568 q 426 558 410 568 q 441 533 441 549 q 429 514 441 524 q 406 504 416 504 l 397 504 q 404 533 404 526 q 383 550 404 550 q 362 536 371 550 q 353 507 353 522 q 403 453 353 453 q 458 478 437 453 q 479 538 479 503 q 444 609 479 580 q 364 639 408 639 q 210 543 272 639 q 149 340 149 448 q 197 129 149 222 q 323 35 245 35 q 415 86 385 35 l 444 33 z "},"d":{"ha":611,"x_min":56,"x_max":625,"o":"m 625 1003 l 579 993 q 519 613 555 911 q 484 143 484 315 q 542 8 484 35 l 522 -20 q 460 61 479 -7 q 441 425 441 129 q 307 533 380 533 q 197 461 242 533 q 153 304 153 389 q 194 112 153 186 q 310 39 235 39 q 372 67 343 39 q 401 131 401 96 q 373 186 401 162 q 311 210 345 210 q 283 197 301 210 q 265 168 265 184 q 300 139 265 139 q 316 152 310 139 q 322 178 322 164 q 354 147 354 178 q 337 114 354 127 q 304 100 319 100 q 263 119 284 100 q 243 165 243 138 q 269 232 243 206 q 330 258 296 258 q 399 223 373 258 q 425 131 425 188 q 388 53 425 89 q 310 17 351 17 q 127 97 198 17 q 56 288 56 176 q 138 478 56 395 q 307 562 221 562 q 377 537 340 562 q 444 467 415 512 l 469 982 l 400 982 l 400 1007 q 624 1026 493 1007 l 625 1003 z "},"e":{"ha":585,"x_min":58,"x_max":554,"o":"m 406 146 q 437 115 437 146 q 420 82 437 96 q 387 68 403 68 q 347 87 368 68 q 326 134 326 106 q 351 194 326 172 q 414 216 376 216 q 488 185 458 216 q 518 104 518 153 q 468 13 518 47 q 357 -21 417 -21 q 153 70 247 -21 q 58 292 58 161 q 150 515 58 414 q 345 615 241 615 q 488 564 422 615 q 554 457 554 513 q 497 344 554 388 q 355 300 441 300 q 228 323 273 300 q 183 387 183 346 q 211 448 183 425 q 269 472 239 472 q 318 458 296 472 q 340 425 340 444 q 325 387 340 405 q 296 370 310 370 q 268 389 268 370 q 300 419 300 397 q 288 446 300 436 q 258 456 275 456 q 235 436 246 456 q 224 395 224 416 q 267 343 224 365 q 370 322 309 322 q 450 353 421 322 q 478 437 478 385 q 437 543 478 492 q 335 593 395 593 q 207 508 260 593 q 154 279 154 424 q 215 82 154 160 q 364 4 275 4 q 447 33 406 4 q 488 106 488 62 q 458 157 488 136 q 395 178 429 178 q 362 165 376 178 q 349 136 349 153 q 383 107 349 107 q 399 120 393 107 q 406 146 406 132 z "},"f":{"ha":400,"x_min":47,"x_max":440,"o":"m 157 418 q 114 589 151 459 q 78 777 78 719 q 145 929 78 866 q 293 993 212 993 q 399 956 358 993 q 440 852 440 920 q 406 788 440 820 q 329 757 372 757 q 252 825 252 757 q 272 858 252 842 q 309 873 292 873 q 338 864 324 873 q 353 840 353 854 q 347 827 353 836 q 332 817 340 819 q 311 857 330 857 q 296 846 304 857 q 289 819 289 836 q 302 786 289 800 q 334 772 315 772 q 375 797 357 772 q 392 852 392 821 q 363 942 392 905 q 290 979 335 979 q 203 926 241 979 q 164 799 164 873 q 181 601 164 735 q 201 424 199 467 q 403 460 308 429 l 404 421 q 205 393 307 404 q 222 8 222 178 q 343 35 289 16 l 347 0 q 229 -15 287 -10 q 109 -31 171 -19 l 109 4 l 189 7 q 160 387 189 216 l 47 372 l 47 408 l 157 418 z "},"g":{"ha":615,"x_min":49,"x_max":637,"o":"m 228 29 q 325 80 298 64 q 412 119 352 96 q 525 142 472 142 q 606 101 575 142 q 637 0 637 61 q 539 -183 637 -102 q 286 -265 440 -265 q 123 -216 192 -265 q 54 -100 54 -168 q 172 46 54 -16 l 180 32 q 127 -81 127 -7 q 171 -196 127 -147 q 289 -245 215 -245 q 506 -171 422 -245 q 589 -21 589 -96 q 566 35 589 13 q 507 57 543 57 q 406 43 454 57 q 298 0 357 30 q 199 -57 239 -29 l 180 -46 q 207 68 199 -12 q 221 191 216 149 q 96 266 143 210 q 49 393 49 321 q 124 582 49 502 q 289 661 199 661 q 383 633 346 661 q 351 729 351 680 q 382 798 351 770 q 460 825 413 825 q 519 805 495 825 q 543 760 543 785 q 525 720 543 738 q 479 703 506 703 q 456 726 464 703 q 478 722 473 722 q 498 757 498 722 q 488 792 498 778 q 461 807 478 807 q 412 782 429 807 q 395 715 395 757 q 410 619 395 646 l 390 607 q 293 639 355 639 q 169 573 217 639 q 121 416 121 507 q 158 263 121 319 q 250 208 195 208 q 365 275 317 208 q 412 425 412 342 q 377 527 412 481 q 296 572 342 572 q 259 554 276 572 q 243 513 243 536 q 253 464 243 484 q 281 444 263 444 q 299 454 288 444 q 310 479 310 464 q 300 496 310 496 q 277 485 287 496 q 285 513 277 502 q 302 524 293 524 q 343 486 343 524 q 321 447 343 465 q 277 429 300 429 q 221 452 243 429 q 199 509 199 474 q 230 558 199 531 q 294 586 260 586 q 420 536 366 586 q 475 415 475 486 q 400 256 475 324 q 245 187 326 187 q 228 29 236 73 z "},"h":{"ha":629,"x_min":-87,"x_max":596,"o":"m 510 29 q 473 63 473 26 q 492 97 473 81 q 530 113 510 113 q 570 101 543 113 q 596 57 596 90 q 562 -40 596 -1 q 484 -79 528 -79 q 425 -44 454 -79 q 396 29 396 -8 q 432 176 396 86 q 468 332 468 265 q 304 551 468 551 q 201 494 248 551 q 154 406 154 437 q 165 -14 159 196 q 267 -12 203 -12 l 264 -49 q 168 -45 226 -45 q 20 -54 73 -45 l 18 -22 q 131 -17 85 -22 q 95 448 135 109 q 9 985 56 787 q -86 977 -20 980 l -87 1004 q 196 1042 5 1005 l 197 1015 q 117 1000 147 1005 q 135 766 127 922 l 151 463 q 235 567 181 528 q 347 606 290 606 q 497 540 438 606 q 555 399 555 475 q 471 173 555 298 q 434 111 446 136 q 423 52 423 86 q 457 -12 423 7 q 517 -31 492 -31 q 552 -16 539 -31 q 564 23 564 -1 q 552 70 564 47 q 524 92 539 92 q 504 54 504 92 q 510 29 504 35 z "},"i":{"ha":296,"x_min":29,"x_max":310,"o":"m 261 802 l 253 800 q 176 842 227 842 q 106 819 138 842 q 74 765 74 795 q 101 707 74 728 q 154 685 128 685 q 205 730 205 685 q 165 782 205 782 q 149 776 158 782 q 140 762 140 770 q 160 746 140 746 q 182 754 169 746 q 150 720 174 720 q 131 732 139 720 q 122 754 122 745 q 136 784 122 771 q 171 796 151 796 q 221 781 198 796 q 244 739 244 766 q 215 691 244 711 q 153 671 186 671 q 83 699 113 671 q 53 768 53 726 q 84 846 53 812 q 151 880 115 880 q 261 802 241 880 m 310 -16 q 115 -21 153 -16 q 47 -32 76 -26 l 47 5 l 135 8 q 104 571 135 302 l 29 574 l 29 599 q 126 597 99 597 q 256 623 174 597 l 256 591 l 195 576 l 180 358 l 164 14 q 310 22 241 14 l 310 -16 z "},"j":{"ha":325,"x_min":-65,"x_max":321,"o":"m 170 854 q 132 886 132 861 q 146 905 132 897 q 170 914 161 914 q 202 900 189 914 q 215 865 215 886 q 199 821 215 845 q 158 798 182 798 q 102 824 126 798 q 78 884 78 851 q 112 948 78 913 q 184 983 146 983 q 271 952 234 983 q 309 885 309 921 q 283 811 309 843 q 216 771 258 779 l 214 779 q 250 813 235 789 q 265 860 265 837 q 240 930 265 899 q 182 962 215 962 q 123 936 153 962 q 93 882 93 909 q 144 831 93 831 q 200 871 200 831 q 194 887 200 878 q 179 896 188 896 q 161 876 161 896 q 170 854 161 867 m 321 612 l 227 610 q 218 381 218 496 q 236 111 218 282 q 254 -83 254 -61 q 221 -228 254 -180 q 107 -277 188 -277 q -14 -243 38 -277 q -65 -153 -65 -210 q -21 -37 -65 -93 q 72 20 24 20 q 143 -5 110 20 q 176 -72 176 -31 q 158 -128 176 -102 q 114 -154 139 -154 q 53 -87 53 -154 q 89 -52 53 -52 q 103 -69 100 -52 q 87 -64 93 -64 q 77 -83 77 -64 q 83 -98 77 -92 q 97 -104 90 -104 q 127 -58 127 -104 q 110 -20 127 -39 q 72 -1 92 -1 q 28 -50 51 -1 q 5 -147 5 -99 q 33 -227 5 -197 q 107 -257 60 -257 q 190 -215 157 -257 q 222 -100 222 -173 q 196 79 222 -47 q 160 279 170 205 q 135 603 150 354 l 35 604 l 32 635 q 158 633 131 633 q 321 643 210 633 l 321 612 z "},"k":{"ha":587,"x_min":-21,"x_max":574,"o":"m 574 557 l 571 536 q 484 570 517 547 q 182 349 208 369 q 272 327 235 345 q 327 282 309 309 q 347 236 345 256 q 349 150 349 216 q 359 73 349 96 q 393 38 370 50 q 443 26 416 26 q 509 59 484 26 q 534 126 534 91 q 481 176 534 176 q 455 173 463 176 q 447 155 447 170 q 473 139 447 139 q 487 142 478 139 q 498 146 495 146 q 500 135 500 140 q 491 114 500 123 q 468 106 482 106 q 437 121 448 106 q 427 158 427 136 q 452 201 427 178 q 501 225 477 225 q 546 198 530 225 q 562 136 562 171 q 517 33 562 71 q 393 -5 471 -5 q 318 29 349 -5 q 286 100 288 63 q 267 223 286 152 q 149 326 247 295 l 113 45 l 222 39 l 216 7 q -21 22 85 26 l -17 54 l 92 50 q 112 547 104 193 q 119 1006 119 901 q 24 1013 85 1006 l 26 1038 q 172 1032 89 1032 q 321 1039 266 1032 l 321 1019 q 218 1011 254 1017 q 155 361 212 876 l 440 591 q 408 617 436 596 q 368 653 380 638 l 386 673 q 574 557 481 583 z "},"l":{"ha":336,"x_min":47,"x_max":339,"o":"m 253 132 q 215 86 243 86 q 170 134 170 86 q 198 194 170 168 q 262 220 227 220 q 316 192 293 220 q 339 129 339 164 q 273 13 339 61 q 142 -36 206 -36 q 88 -9 115 -36 q 61 54 61 18 q 85 281 61 139 q 120 565 110 422 q 131 977 131 707 l 47 974 l 49 997 q 300 1034 176 997 l 300 1010 l 243 991 q 182 538 201 656 q 124 277 163 420 q 85 79 85 133 q 107 19 85 51 q 153 -12 129 -12 q 250 23 210 -12 q 290 118 290 59 q 277 157 290 140 q 243 175 264 175 q 189 132 189 175 q 208 117 189 117 q 244 135 229 117 l 253 132 z "},"m":{"ha":989,"x_min":-4,"x_max":913,"o":"m 538 493 q 609 605 562 559 q 705 650 656 650 q 859 579 805 650 q 913 383 913 509 q 854 109 913 224 q 722 -7 796 -7 q 660 19 684 -7 q 636 78 636 45 q 656 134 636 109 q 704 158 676 158 q 755 107 755 158 q 744 80 755 96 q 717 57 732 64 l 705 66 q 725 97 725 81 q 700 114 725 114 q 664 64 664 114 q 682 31 664 43 q 728 18 699 18 q 805 100 777 18 q 832 339 832 182 q 788 523 832 450 q 665 595 744 595 q 581 538 616 595 q 545 467 545 482 l 548 435 q 551 379 551 403 q 508 148 551 239 q 406 57 464 57 q 356 76 379 57 q 334 123 334 94 q 350 177 334 156 q 397 197 367 197 q 432 185 418 197 q 446 160 446 174 q 436 127 446 142 q 410 113 427 113 l 401 122 q 418 138 418 128 q 389 151 418 151 q 372 142 380 151 q 364 121 364 134 q 377 90 364 102 q 410 78 390 78 q 463 140 444 78 q 482 374 482 202 q 439 504 482 442 q 336 566 395 566 q 276 548 306 566 q 223 495 246 530 q 200 422 201 460 l 196 205 q 193 20 193 43 l 283 24 l 283 -9 q 81 -32 158 -9 l 72 -3 l 161 16 q 87 589 161 326 l -3 579 l -4 608 q 215 644 109 611 q 199 485 205 618 q 266 570 214 529 q 370 611 317 611 q 474 579 428 611 q 538 493 521 548 z "},"n":{"ha":718,"x_min":3,"x_max":661,"o":"m 184 422 q 399 625 256 625 q 581 540 500 625 q 661 340 661 455 q 587 99 661 215 q 429 -17 512 -17 q 359 15 393 -17 q 325 82 325 47 q 354 133 325 111 q 414 155 383 155 q 485 111 485 155 q 433 69 485 69 q 406 79 410 69 l 411 86 q 427 83 420 83 q 440 109 440 83 q 414 136 440 136 q 388 115 399 136 q 376 72 376 94 q 435 7 376 7 q 567 359 567 7 q 515 520 567 445 q 396 595 464 595 q 292 550 339 595 q 218 444 245 505 q 191 375 191 383 l 164 18 l 237 36 l 245 5 q 139 -12 174 -12 q 41 -8 105 -12 l 47 22 l 138 16 q 139 79 139 42 q 87 604 139 355 l 11 591 l 3 616 q 197 676 97 628 l 184 422 z "},"o":{"ha":664,"x_min":54,"x_max":623,"o":"m 350 456 q 326 440 340 440 q 310 449 317 440 q 302 471 302 457 q 317 498 302 487 q 350 509 332 509 q 387 492 370 509 q 404 457 404 475 q 380 388 404 414 q 317 363 355 363 q 269 392 289 363 q 249 463 249 420 q 292 552 249 511 q 379 593 334 593 q 547 511 471 593 q 623 328 623 430 q 535 99 623 201 q 349 -3 448 -3 q 145 89 235 -3 q 54 306 54 181 q 137 506 54 411 q 334 627 220 601 l 342 610 q 198 509 255 594 q 142 325 142 425 q 198 103 142 189 q 347 18 255 18 q 477 104 418 18 q 536 306 536 191 q 485 491 536 416 q 359 566 433 566 q 293 534 319 566 q 267 465 267 503 q 285 424 267 441 q 319 407 303 407 q 363 424 341 407 q 385 456 385 440 q 347 489 385 489 q 332 472 332 489 q 350 456 332 465 z "},"p":{"ha":664,"x_min":4,"x_max":628,"o":"m 330 484 q 336 503 330 498 q 359 509 341 509 q 394 486 374 509 q 414 453 414 464 q 380 400 414 425 q 313 375 346 375 q 252 399 274 375 q 231 464 231 424 q 279 543 231 499 q 374 587 328 587 q 558 513 488 587 q 628 321 628 438 q 538 141 628 227 q 319 54 448 54 q 171 131 245 54 q 158 -130 158 -32 q 163 -235 158 -190 q 260 -211 206 -231 l 264 -250 q 147 -267 191 -267 q 29 -273 119 -267 l 31 -244 q 136 -239 114 -239 q 110 236 110 -43 q 132 599 110 479 q 9 568 100 594 l 4 597 q 235 665 129 623 q 192 408 208 581 q 175 178 175 235 q 342 85 241 85 q 474 158 415 85 q 533 326 533 232 q 487 496 533 427 q 379 566 441 566 q 310 535 339 566 q 281 460 281 505 q 296 416 281 435 q 326 396 311 396 q 357 411 345 396 q 368 447 368 427 q 330 484 368 484 z "},"q":{"ha":690,"x_min":45,"x_max":669,"o":"m 669 760 q 561 311 600 562 q 522 -161 522 60 l 522 -211 l 664 -229 l 656 -258 q 506 -245 589 -254 q 351 -235 422 -237 l 354 -201 q 488 -211 416 -211 q 481 -12 481 -99 q 498 292 481 116 l 515 461 q 497 515 515 474 q 432 593 478 557 q 338 629 385 629 q 193 554 248 629 q 138 378 138 479 q 186 198 138 278 q 315 118 235 118 q 393 156 357 118 q 429 236 429 194 q 406 304 429 276 q 346 332 382 332 q 311 322 326 332 q 296 297 296 313 q 354 278 296 278 l 361 273 q 332 233 361 233 q 284 247 298 233 q 271 297 271 260 q 299 354 271 327 q 358 382 328 382 q 424 341 401 382 q 447 240 447 300 q 402 140 447 186 q 304 93 357 93 q 122 168 200 93 q 45 346 45 243 q 139 556 45 460 q 347 653 234 653 q 466 620 425 653 q 528 513 507 587 q 589 779 552 666 l 669 760 z "},"r":{"ha":514,"x_min":-22,"x_max":489,"o":"m 186 457 q 264 600 214 551 q 367 650 315 650 q 453 609 417 650 q 489 509 489 568 q 448 396 489 439 q 343 353 408 353 q 287 378 310 353 q 264 440 264 404 q 294 484 264 458 q 343 510 324 510 q 390 497 370 510 q 410 461 410 484 q 364 425 410 435 q 372 458 372 446 q 354 485 372 485 q 328 466 338 485 q 317 428 317 447 q 332 393 317 410 q 364 376 347 376 q 437 409 410 376 q 464 492 464 442 q 432 552 464 527 q 359 578 400 578 q 283 556 317 578 q 219 477 248 534 q 189 407 189 421 q 215 26 189 396 q 366 94 298 52 l 374 61 q 233 1 298 23 q 66 -33 168 -20 l 66 1 q 182 17 126 1 q 150 265 182 89 q 81 562 117 441 l -16 528 l -22 550 q 187 656 109 584 q 183 576 183 598 q 186 457 183 517 z "},"s":{"ha":427,"x_min":45,"x_max":376,"o":"m 197 93 q 147 121 168 121 q 119 102 136 121 q 102 73 102 84 q 141 11 102 40 q 240 -18 180 -18 q 301 17 269 -18 q 334 93 334 52 q 308 167 334 127 q 160 304 281 207 q 87 374 108 346 q 56 438 67 402 q 45 510 45 474 q 98 631 45 575 q 227 686 151 686 q 331 657 286 686 q 376 578 376 629 q 346 503 376 538 q 275 468 315 468 q 222 500 243 468 q 200 562 200 532 q 243 600 200 600 q 268 595 256 600 q 262 587 267 592 q 237 537 237 559 q 262 511 237 521 q 302 501 286 501 q 327 516 316 501 q 338 544 338 530 q 304 626 338 590 q 224 663 271 663 q 151 629 180 663 q 122 557 122 595 q 243 334 122 425 q 371 139 371 235 q 348 43 371 83 q 292 -23 325 3 q 241 -55 260 -50 q 182 -61 222 -61 q 109 -19 139 -61 q 78 71 78 23 q 104 134 78 106 q 158 161 130 161 q 194 151 178 161 q 209 123 209 140 q 197 93 209 109 z "},"t":{"ha":419,"x_min":14,"x_max":424,"o":"m 424 653 q 332 638 368 643 q 227 612 296 634 q 186 399 223 569 q 150 170 150 229 q 181 51 150 92 q 271 9 213 9 q 335 47 313 9 q 358 144 358 85 q 342 192 358 168 q 306 216 326 216 q 277 199 288 216 q 267 160 267 182 q 285 140 267 140 q 311 170 303 140 l 319 164 q 308 129 319 143 q 282 115 296 115 q 240 130 260 115 q 220 167 220 144 q 245 219 220 196 q 300 241 271 241 q 374 216 337 241 q 411 161 411 190 q 372 42 411 97 q 281 -12 332 -12 q 155 37 202 -12 q 109 167 109 86 q 124 382 109 207 q 139 586 140 557 l 14 550 l 14 587 l 139 616 q 140 664 140 637 q 129 821 140 745 l 245 840 q 229 644 248 755 q 344 677 314 671 q 414 694 374 683 l 424 653 z "},"u":{"ha":664,"x_min":71,"x_max":664,"o":"m 664 -4 q 538 -52 586 -27 l 522 109 q 317 -16 437 -16 q 149 57 225 -16 q 72 235 72 130 q 97 330 72 277 q 154 414 122 382 q 210 488 186 446 q 233 553 233 529 q 171 625 233 625 q 119 610 144 625 q 94 571 94 594 q 107 544 94 555 q 135 532 120 532 q 157 535 153 532 q 161 546 161 538 q 132 568 161 563 q 155 585 146 585 q 177 573 168 585 q 187 547 187 562 q 169 506 187 525 q 127 486 150 486 q 89 507 106 486 q 71 550 71 528 q 102 631 71 592 q 168 671 133 671 q 232 638 207 671 q 257 561 257 606 q 224 440 257 498 q 151 241 151 312 q 202 76 151 136 q 338 16 252 16 q 517 155 442 16 q 446 582 492 371 l 374 578 l 376 607 q 602 644 497 609 l 608 616 l 539 597 q 564 -3 539 368 q 654 28 612 7 l 664 -4 z "},"v":{"ha":612,"x_min":-62,"x_max":572,"o":"m 395 518 q 363 546 363 518 q 379 574 363 559 q 411 589 395 589 q 465 515 465 589 q 430 440 465 474 q 355 407 394 407 q 301 443 328 407 q 273 510 273 478 q 325 629 273 578 q 444 681 377 681 q 532 625 492 681 q 572 485 572 568 q 289 -41 572 250 q 150 286 237 110 q 14 515 62 461 l -53 489 l -62 521 q 60 571 18 549 q 168 640 102 594 l 186 612 l 114 568 l 174 424 l 221 293 q 310 31 262 177 q 477 252 412 127 q 542 486 542 376 q 505 587 542 545 q 418 629 469 629 q 343 606 373 629 q 314 545 314 582 q 329 487 314 509 q 371 465 345 465 q 425 479 400 465 q 449 515 449 494 q 436 541 449 530 q 410 551 424 551 q 395 518 395 551 z "},"w":{"ha":928,"x_min":-74,"x_max":869,"o":"m 783 637 q 799 610 799 637 q 780 578 799 599 q 743 558 760 558 q 704 581 724 558 q 684 621 684 603 q 715 708 684 671 q 779 745 747 745 q 843 703 816 745 q 869 591 869 661 q 846 429 869 513 q 736 206 822 345 q 629 25 650 67 q 457 486 496 341 q 298 0 359 195 l 260 -7 q 175 242 189 200 q 119 397 162 283 q 46 550 76 511 q -7 519 26 543 q -57 486 -41 495 q -74 514 -69 501 q 144 650 -4 547 q 221 355 177 566 q 288 68 264 144 q 432 611 404 388 l 350 607 l 347 636 q 487 645 401 636 q 616 667 572 654 l 621 627 q 526 618 547 619 q 599 263 570 359 q 646 131 627 168 l 712 224 q 774 327 746 272 q 820 441 802 382 q 838 558 838 501 q 813 659 838 621 q 755 697 789 697 q 720 664 720 697 q 731 627 720 647 q 755 607 743 607 q 783 637 787 607 z "},"x":{"ha":608,"x_min":-35,"x_max":597,"o":"m 513 172 q 521 157 521 165 q 505 131 521 141 q 473 121 489 121 q 440 135 453 121 q 427 170 427 150 q 452 210 427 189 q 496 232 477 232 q 567 200 536 232 q 597 132 597 169 q 556 59 597 93 q 471 25 515 25 q 351 81 401 25 q 244 269 302 138 q 94 17 127 158 l 187 4 l 182 -25 q -35 22 31 -1 l -32 52 q 53 28 27 32 q 105 147 72 92 q 231 293 139 202 q 107 581 132 540 l 29 553 l 20 581 q 193 646 165 621 q 279 338 215 529 q 406 585 389 463 q 351 579 393 587 l 350 611 q 383 610 365 610 q 519 636 484 610 l 528 607 q 491 600 516 604 q 456 590 465 595 q 424 499 456 576 q 289 307 393 421 q 377 97 345 142 q 468 52 409 52 q 526 86 503 52 q 550 156 550 120 q 514 212 550 212 q 471 172 471 212 q 486 150 471 150 q 513 172 499 150 z "},"y":{"ha":549,"x_min":-75,"x_max":510,"o":"m 414 623 q 418 610 418 616 q 406 587 418 598 q 385 576 394 576 q 347 598 364 576 q 330 639 330 620 q 357 700 330 670 q 410 730 385 730 q 479 699 448 730 q 510 631 510 667 q 493 539 510 593 q 407 351 475 485 q 307 142 338 216 q 258 -9 276 67 q 165 -196 220 -165 q 78 -227 109 -227 q -7 -202 25 -227 q -40 -144 -40 -178 q -3 -84 -40 -109 q 81 -58 33 -58 q 117 -73 101 -58 q 134 -109 134 -87 q 111 -142 134 -126 q 68 -157 89 -157 q 52 -143 52 -157 q 72 -132 60 -143 q 84 -103 84 -120 q 66 -78 84 -78 q 22 -91 39 -78 q 4 -127 4 -104 q 28 -183 4 -158 q 85 -208 53 -208 q 156 -153 119 -208 q 210 -39 193 -97 q 267 123 227 20 q 28 614 144 469 q -68 583 -3 606 l -75 610 q 107 679 -5 625 q 175 554 144 631 q 235 376 207 476 l 292 176 l 397 389 q 456 528 441 478 q 471 611 471 578 q 450 664 471 644 q 396 684 429 684 q 370 675 380 684 q 359 654 359 667 q 382 614 359 614 q 414 623 395 614 z "},"z":{"ha":545,"x_min":-16,"x_max":496,"o":"m 496 624 q 309 326 439 494 q 72 78 178 157 q 199 89 153 89 q 446 40 343 89 q 457 168 454 94 l 490 165 q 465 -72 463 43 l 439 -71 q 437 -43 437 -47 q 444 8 437 -24 q 252 47 342 47 q 7 7 142 47 l -16 46 q 218 281 96 109 q 376 589 340 453 q 182 553 232 553 q 80 581 127 553 q 32 654 32 609 q 71 716 32 692 q 155 741 109 741 q 220 725 191 741 q 249 684 249 710 q 216 647 249 661 q 153 632 182 632 q 115 664 115 632 q 144 682 115 678 q 176 653 144 653 q 195 657 186 653 q 204 668 204 661 q 180 701 204 687 q 132 715 155 715 q 84 700 106 715 q 61 661 61 684 q 93 616 61 632 q 210 600 125 600 q 481 642 368 600 l 496 624 z "},"{":{"ha":342,"x_min":-5,"x_max":403,"o":"m 403 859 q 381 836 397 850 q 359 814 365 821 q 254 886 315 886 q 161 791 161 886 q 174 697 161 760 q 187 604 187 635 q 162 467 187 518 q 87 416 136 416 q 144 294 144 402 q 124 201 144 261 q 103 109 103 141 q 129 48 103 73 q 191 24 155 24 q 271 52 228 24 l 282 32 q 239 -10 267 7 q 189 -28 212 -28 q 97 41 134 -28 q 60 178 60 110 q 81 263 60 208 q 103 350 103 319 q 26 408 103 408 q -5 401 20 408 q 14 458 1 429 q 68 441 43 441 q 124 467 99 441 q 149 522 149 492 q 118 629 149 559 q 87 737 87 699 q 135 862 87 806 q 248 917 182 917 q 330 900 283 917 q 403 859 376 884 z "},"|":{"ha":211,"x_min":69,"x_max":139,"o":"m 139 -195 l 69 -222 q 83 452 83 193 q 69 1055 83 653 l 139 1061 q 127 144 127 494 q 139 -195 127 -9 z "},"}":{"ha":342,"x_min":16,"x_max":334,"o":"m 334 367 q 305 368 317 368 q 218 285 218 368 q 242 184 218 251 q 265 83 265 118 q 220 -20 265 30 q 122 -71 174 -71 q 26 -45 89 -71 l 41 0 q 134 -40 80 -40 q 201 -14 174 -40 q 228 52 228 12 q 195 142 228 83 q 161 240 161 201 q 239 392 161 342 q 183 430 202 395 q 164 513 164 465 q 187 629 164 553 q 210 747 210 706 q 185 825 210 795 q 118 854 161 854 q 45 796 82 854 q 16 832 37 808 q 143 869 72 869 q 271 715 271 869 q 227 569 271 652 q 193 471 193 507 q 215 429 193 445 q 267 414 236 414 q 329 431 287 414 q 334 390 334 406 l 334 367 z "},"~":{"ha":857,"x_min":47,"x_max":789,"o":"m 789 422 q 708 260 777 319 q 576 200 640 200 q 479 233 527 200 q 402 321 432 266 q 341 399 373 376 q 269 422 309 422 q 183 356 229 422 q 136 221 136 290 l 47 231 q 140 384 69 312 q 277 456 212 456 q 468 332 408 456 q 515 260 491 283 q 591 236 540 236 q 673 292 640 236 q 704 431 706 347 l 789 422 z "},"":{"ha":867,"x_min":-11,"x_max":880,"o":"m 880 16 q 710 -24 819 -14 q 654 386 665 174 q 562 383 626 383 q 376 396 454 383 q 271 103 340 205 q 109 1 202 1 q 25 46 62 1 q -11 140 -11 90 q 22 228 -11 181 q 92 275 54 275 q 131 254 111 275 q 151 212 151 233 q 137 163 151 189 q 103 138 123 138 q 93 142 100 138 q 113 179 113 157 q 102 207 113 193 q 79 221 92 221 q 16 164 16 221 q 44 87 16 112 q 140 62 73 62 q 275 176 237 62 q 313 411 313 290 q 85 567 85 463 q 103 621 85 597 q 149 646 122 646 l 163 646 q 139 581 139 617 q 185 491 139 529 q 311 435 231 453 q 307 539 307 487 q 334 712 307 644 q 422 833 360 780 q 563 912 485 886 q 722 939 641 939 q 779 937 771 939 q 713 444 720 659 q 750 456 725 447 l 753 396 q 713 392 724 393 l 713 343 q 739 17 713 127 q 872 52 789 18 l 880 16 m 676 905 q 485 828 560 909 q 389 488 410 747 q 382 422 385 442 q 471 416 438 416 q 652 432 543 416 q 648 558 648 513 q 676 905 648 743 m 757 1112 q 802 1086 802 1112 q 790 1041 802 1053 q 757 1029 779 1029 q 724 1078 724 1029 q 731 1105 724 1097 q 757 1112 738 1112 m 551 1103 q 577 1086 566 1103 q 589 1054 589 1070 q 536 1019 589 1019 q 506 1035 522 1019 q 489 1065 489 1050 q 507 1093 489 1083 q 551 1103 525 1103 z "},"":{"ha":867,"x_min":-11,"x_max":880,"o":"m 880 16 q 710 -24 819 -14 q 654 386 665 174 q 562 383 626 383 q 376 396 454 383 q 271 103 340 205 q 109 1 202 1 q 25 46 62 1 q -11 140 -11 90 q 22 228 -11 181 q 92 275 54 275 q 131 254 111 275 q 151 212 151 233 q 137 163 151 189 q 103 138 123 138 q 93 142 100 138 q 113 179 113 157 q 102 207 113 193 q 79 221 92 221 q 16 164 16 221 q 44 87 16 112 q 140 62 73 62 q 275 176 237 62 q 313 411 313 290 q 85 567 85 463 q 103 621 85 597 q 149 646 122 646 l 163 646 q 139 581 139 617 q 185 491 139 529 q 311 435 231 453 q 307 539 307 487 q 334 712 307 644 q 422 833 360 780 q 563 912 485 886 q 722 939 641 939 q 779 937 771 939 q 713 444 720 659 q 750 456 725 447 l 753 396 q 713 392 724 393 l 713 343 q 739 17 713 127 q 872 52 789 18 l 880 16 m 676 905 q 485 828 560 909 q 389 488 410 747 q 382 422 385 442 q 471 416 438 416 q 652 432 543 416 q 648 558 648 513 q 676 905 648 743 m 623 1268 q 707 1235 665 1268 q 749 1157 749 1202 q 710 1058 749 1104 q 637 1013 672 1013 q 558 1055 599 1013 q 517 1140 517 1097 q 547 1232 517 1196 q 623 1268 576 1268 m 625 1067 q 681 1084 658 1067 q 704 1129 704 1101 q 646 1234 704 1234 q 582 1201 612 1234 q 551 1140 551 1168 q 571 1086 551 1105 q 625 1067 591 1067 z "},"":{"ha":722,"x_min":35,"x_max":704,"o":"m 704 264 q 623 39 697 119 q 422 -41 549 -41 q 408 -72 416 -52 q 393 -103 399 -93 q 471 -123 431 -100 q 511 -182 511 -146 q 475 -232 511 -208 q 406 -256 438 -256 q 363 -246 389 -256 q 332 -235 338 -236 q 345 -203 340 -219 q 407 -225 366 -225 q 454 -187 454 -225 q 429 -141 454 -161 q 363 -123 403 -122 q 387 -39 382 -77 q 139 116 243 -16 q 35 395 35 248 q 90 624 35 496 q 237 828 145 751 q 440 905 330 905 q 605 851 543 905 q 667 732 667 798 q 608 618 667 669 q 481 567 549 567 q 399 599 440 567 q 358 677 358 631 q 386 746 358 722 q 454 770 413 770 q 508 750 485 770 q 532 711 532 731 q 518 659 532 680 q 485 639 504 639 q 454 660 463 639 q 486 672 468 660 q 504 697 504 685 q 478 741 504 741 q 421 716 448 741 q 395 659 395 692 q 421 610 395 635 q 481 585 448 585 q 559 630 527 585 q 591 732 591 675 q 551 834 591 789 q 441 880 510 880 q 215 756 299 880 q 131 453 131 633 q 228 124 131 257 q 463 -8 324 -8 q 591 43 547 -8 q 635 176 635 94 q 629 269 635 206 l 704 264 z "},"":{"ha":739,"x_min":14,"x_max":750,"o":"m 599 180 q 629 155 629 172 q 616 112 629 130 q 581 93 602 93 q 541 114 557 93 q 525 160 525 135 q 561 235 525 199 q 623 271 596 271 q 716 246 682 271 q 750 174 750 221 q 725 90 750 135 q 666 18 699 45 q 601 -16 633 -9 q 509 -22 568 -22 q 389 -11 482 -22 q 240 1 296 1 q 127 -12 200 1 l 127 24 l 205 29 q 160 475 184 314 q 86 825 136 637 l 14 819 l 14 854 q 429 899 246 862 l 582 929 q 564 705 558 802 l 530 705 l 534 859 l 218 838 q 240 410 240 525 q 554 458 439 418 l 554 404 q 240 372 412 376 q 243 194 243 303 q 241 32 243 114 l 505 24 q 661 52 627 24 q 694 135 694 79 q 597 231 694 231 q 568 213 583 231 q 553 172 553 196 q 567 145 553 155 q 593 135 581 135 q 607 150 607 135 q 593 172 607 164 l 599 180 m 467 1105 q 385 1072 421 1085 q 298 1029 349 1059 q 227 989 248 999 q 214 1013 226 994 q 439 1162 307 1057 q 452 1133 442 1158 q 467 1105 463 1109 z "},"":{"ha":1075,"x_min":-9,"x_max":1105,"o":"m 758 193 q 750 562 750 513 q 765 772 750 705 q 839 880 779 840 q 986 920 899 920 q 1073 899 1040 920 q 1105 842 1105 878 q 1063 784 1105 814 q 964 754 1021 754 q 907 773 938 754 q 876 810 876 793 q 890 846 876 833 q 925 860 903 860 q 953 844 943 860 q 933 812 933 823 q 979 774 933 774 q 1024 789 1008 774 q 1039 825 1039 804 q 1012 876 1039 859 q 942 893 985 893 q 822 808 864 893 q 781 453 781 724 q 811 3 781 190 l 786 -1 q 346 771 511 536 q 361 404 361 609 q 352 186 361 264 q 307 47 343 107 q 195 -12 271 -12 q 53 33 115 -12 q -9 146 -9 79 q 40 237 -9 194 q 146 281 90 281 q 198 266 176 281 q 221 228 221 251 q 195 177 221 199 q 131 155 170 155 q 113 163 120 155 q 106 180 106 170 q 117 203 106 191 q 131 188 121 200 q 151 176 142 176 q 180 207 180 176 q 157 239 180 224 q 110 254 134 254 q 64 228 83 254 q 45 174 45 201 q 74 70 45 117 q 150 22 104 22 q 287 122 240 22 q 334 392 334 221 q 318 661 334 508 q 290 860 302 814 l 111 852 l 111 884 q 399 901 286 884 q 758 193 557 535 m 782 1132 q 689 1008 724 1029 q 617 986 653 986 q 582 997 598 986 q 541 1052 565 1007 q 490 1097 517 1097 q 453 1006 462 1097 q 404 1017 422 1021 q 459 1103 431 1082 q 528 1124 486 1124 q 588 1072 554 1124 q 649 1028 618 1028 q 683 1037 664 1028 q 707 1057 702 1046 q 721 1145 711 1069 q 782 1132 748 1145 z "},"":{"ha":957,"x_min":50,"x_max":911,"o":"m 453 639 q 425 623 442 623 q 403 640 414 623 q 392 671 392 658 q 411 704 392 686 q 452 722 431 722 q 496 696 472 722 q 519 647 519 669 q 487 560 519 595 q 416 525 454 525 q 342 564 374 525 q 310 650 310 603 q 375 777 310 717 q 538 838 440 838 q 796 718 682 838 q 911 456 911 597 q 787 133 911 277 q 500 -12 663 -12 q 181 112 312 -12 q 50 404 50 235 q 156 703 50 568 q 415 876 261 838 l 424 856 q 223 709 299 831 q 147 422 147 587 q 250 130 147 250 q 511 11 352 11 q 724 137 640 11 q 807 428 807 263 q 726 698 807 591 q 518 804 646 804 q 387 756 440 804 q 334 652 334 709 q 359 601 334 621 q 411 581 384 581 q 470 597 446 581 q 494 637 494 614 q 480 670 494 657 q 449 684 466 684 q 410 671 410 684 q 453 639 410 659 m 612 1063 q 657 1036 657 1063 q 646 991 657 1004 q 612 979 635 979 q 579 1028 579 979 q 586 1055 579 1048 q 612 1063 593 1063 m 407 1053 q 433 1037 421 1053 q 444 1004 444 1021 q 391 970 444 970 q 361 985 378 970 q 345 1015 345 1001 q 362 1043 345 1034 q 407 1053 380 1053 z "},"":{"ha":916,"x_min":96,"x_max":831,"o":"m 643 705 q 633 690 643 697 q 614 684 623 684 q 591 694 601 684 q 581 715 581 705 q 595 748 581 730 q 627 765 610 765 q 677 746 653 765 q 701 704 701 727 q 670 645 701 669 q 602 621 640 621 q 526 657 559 621 q 492 733 492 693 q 536 837 492 794 q 633 879 580 879 q 773 765 716 879 q 831 463 831 650 q 736 112 831 257 q 476 -33 642 -33 q 226 78 332 -33 q 119 339 119 189 q 126 470 119 412 q 151 653 133 529 l 175 810 l 96 810 l 96 836 q 244 842 199 838 q 370 869 290 846 l 370 836 l 290 818 q 250 672 277 783 q 212 486 222 562 q 203 310 203 411 q 282 89 203 183 q 476 -5 361 -5 q 710 126 626 -5 q 794 458 794 258 q 753 730 794 637 q 635 823 712 823 q 566 792 595 823 q 536 718 536 760 q 560 660 536 683 q 610 637 583 637 q 646 653 629 637 q 663 686 663 669 q 650 729 663 707 q 628 750 638 750 q 608 733 608 750 q 643 705 608 720 m 623 1063 q 668 1036 668 1063 q 657 991 668 1004 q 623 979 646 979 q 590 1028 590 979 q 597 1055 590 1048 q 623 1063 604 1063 m 418 1053 q 444 1037 432 1053 q 455 1004 455 1021 q 402 970 455 970 q 372 985 389 970 q 355 1015 355 1001 q 373 1043 355 1034 q 418 1053 391 1053 z "},"":{"ha":501,"x_min":56,"x_max":463,"o":"m 222 444 q 191 416 218 416 q 166 427 176 416 q 157 454 157 437 q 174 491 157 474 q 211 509 191 509 q 302 456 302 509 q 256 375 302 412 q 175 338 209 338 q 107 360 135 338 q 79 421 79 383 q 153 581 79 500 q 307 663 227 663 q 418 606 373 663 q 463 467 463 549 q 446 366 463 408 q 395 267 429 323 q 309 3 309 123 q 310 -25 309 -11 l 282 -25 l 283 65 q 161 9 199 9 q 85 38 115 9 q 56 111 56 66 q 100 187 56 154 q 199 220 144 220 q 322 228 237 220 q 372 422 372 337 q 282 619 372 619 q 163 566 199 619 q 127 419 127 513 q 143 375 127 393 q 180 357 158 357 q 233 382 208 357 q 258 439 258 408 q 243 468 258 456 q 208 481 227 481 q 194 473 200 481 q 187 456 187 465 q 201 439 187 439 q 222 444 213 439 m 313 204 q 221 195 256 201 q 164 163 186 189 q 143 109 143 137 q 158 64 143 81 q 196 46 172 46 q 289 98 237 46 l 313 204 m 439 861 q 357 828 393 841 q 271 785 321 814 q 199 745 220 755 q 186 768 198 750 q 412 918 279 812 q 425 889 414 913 q 439 861 435 865 z "},"":{"ha":501,"x_min":56,"x_max":463,"o":"m 222 444 q 191 416 218 416 q 166 427 176 416 q 157 454 157 437 q 174 491 157 474 q 211 509 191 509 q 302 456 302 509 q 256 375 302 412 q 175 338 209 338 q 107 360 135 338 q 79 421 79 383 q 153 581 79 500 q 307 663 227 663 q 418 606 373 663 q 463 467 463 549 q 446 366 463 408 q 395 267 429 323 q 309 3 309 123 q 310 -25 309 -11 l 282 -25 l 283 65 q 161 9 199 9 q 85 38 115 9 q 56 111 56 66 q 100 187 56 154 q 199 220 144 220 q 322 228 237 220 q 372 422 372 337 q 282 619 372 619 q 163 566 199 619 q 127 419 127 513 q 143 375 127 393 q 180 357 158 357 q 233 382 208 357 q 258 439 258 408 q 243 468 258 456 q 208 481 227 481 q 194 473 200 481 q 187 456 187 465 q 201 439 187 439 q 222 444 213 439 m 313 204 q 221 195 256 201 q 164 163 186 189 q 143 109 143 137 q 158 64 143 81 q 196 46 172 46 q 289 98 237 46 l 313 204 m 435 774 q 422 750 423 755 q 357 787 414 753 q 264 833 300 820 q 182 867 228 846 q 197 895 186 870 q 210 924 207 919 q 435 774 342 818 z "},"":{"ha":501,"x_min":56,"x_max":463,"o":"m 222 444 q 191 416 218 416 q 166 427 176 416 q 157 454 157 437 q 174 491 157 474 q 211 509 191 509 q 302 456 302 509 q 256 375 302 412 q 175 338 209 338 q 107 360 135 338 q 79 421 79 383 q 153 581 79 500 q 307 663 227 663 q 418 606 373 663 q 463 467 463 549 q 446 366 463 408 q 395 267 429 323 q 309 3 309 123 q 310 -25 309 -11 l 282 -25 l 283 65 q 161 9 199 9 q 85 38 115 9 q 56 111 56 66 q 100 187 56 154 q 199 220 144 220 q 322 228 237 220 q 372 422 372 337 q 282 619 372 619 q 163 566 199 619 q 127 419 127 513 q 143 375 127 393 q 180 357 158 357 q 233 382 208 357 q 258 439 258 408 q 243 468 258 456 q 208 481 227 481 q 194 473 200 481 q 187 456 187 465 q 201 439 187 439 q 222 444 213 439 m 313 204 q 221 195 256 201 q 164 163 186 189 q 143 109 143 137 q 158 64 143 81 q 196 46 172 46 q 289 98 237 46 l 313 204 m 446 761 q 385 730 407 739 q 309 852 359 783 q 233 724 243 746 q 174 757 187 745 q 238 816 187 772 q 313 891 289 861 q 446 761 337 854 z "},"":{"ha":501,"x_min":56,"x_max":463,"o":"m 222 444 q 191 416 218 416 q 166 427 176 416 q 157 454 157 437 q 174 491 157 474 q 211 509 191 509 q 302 456 302 509 q 256 375 302 412 q 175 338 209 338 q 107 360 135 338 q 79 421 79 383 q 153 581 79 500 q 307 663 227 663 q 418 606 373 663 q 463 467 463 549 q 446 366 463 408 q 395 267 429 323 q 309 3 309 123 q 310 -25 309 -11 l 282 -25 l 283 65 q 161 9 199 9 q 85 38 115 9 q 56 111 56 66 q 100 187 56 154 q 199 220 144 220 q 322 228 237 220 q 372 422 372 337 q 282 619 372 619 q 163 566 199 619 q 127 419 127 513 q 143 375 127 393 q 180 357 158 357 q 233 382 208 357 q 258 439 258 408 q 243 468 258 456 q 208 481 227 481 q 194 473 200 481 q 187 456 187 465 q 201 439 187 439 q 222 444 213 439 m 313 204 q 221 195 256 201 q 164 163 186 189 q 143 109 143 137 q 158 64 143 81 q 196 46 172 46 q 289 98 237 46 l 313 204 m 401 835 q 446 808 446 835 q 435 764 446 776 q 401 751 424 751 q 368 800 368 751 q 375 827 368 820 q 401 835 382 835 m 196 825 q 222 809 210 825 q 233 777 233 793 q 180 742 233 742 q 150 758 167 742 q 134 787 134 773 q 152 815 134 806 q 196 825 170 825 z "},"":{"ha":501,"x_min":56,"x_max":471,"o":"m 222 444 q 191 416 218 416 q 166 427 176 416 q 157 454 157 437 q 174 491 157 474 q 211 509 191 509 q 302 456 302 509 q 256 375 302 412 q 175 338 209 338 q 107 360 135 338 q 79 421 79 383 q 153 581 79 500 q 307 663 227 663 q 418 606 373 663 q 463 467 463 549 q 446 366 463 408 q 395 267 429 323 q 309 3 309 123 q 310 -25 309 -11 l 282 -25 l 283 65 q 161 9 199 9 q 85 38 115 9 q 56 111 56 66 q 100 187 56 154 q 199 220 144 220 q 322 228 237 220 q 372 422 372 337 q 282 619 372 619 q 163 566 199 619 q 127 419 127 513 q 143 375 127 393 q 180 357 158 357 q 233 382 208 357 q 258 439 258 408 q 243 468 258 456 q 208 481 227 481 q 194 473 200 481 q 187 456 187 465 q 201 439 187 439 q 222 444 213 439 m 313 204 q 221 195 256 201 q 164 163 186 189 q 143 109 143 137 q 158 64 143 81 q 196 46 172 46 q 289 98 237 46 l 313 204 m 471 888 q 377 764 413 785 q 306 742 342 742 q 270 752 287 742 q 230 808 254 763 q 179 853 206 853 q 142 762 151 853 q 93 772 111 777 q 148 859 120 838 q 217 880 175 880 q 277 828 243 880 q 338 784 307 784 q 372 793 353 784 q 395 813 391 802 q 410 901 400 825 q 471 888 437 901 z "},"":{"ha":501,"x_min":56,"x_max":463,"o":"m 222 444 q 191 416 218 416 q 166 427 176 416 q 157 454 157 437 q 174 491 157 474 q 211 509 191 509 q 302 456 302 509 q 256 375 302 412 q 175 338 209 338 q 107 360 135 338 q 79 421 79 383 q 153 581 79 500 q 307 663 227 663 q 418 606 373 663 q 463 467 463 549 q 446 366 463 408 q 395 267 429 323 q 309 3 309 123 q 310 -25 309 -11 l 282 -25 l 283 65 q 161 9 199 9 q 85 38 115 9 q 56 111 56 66 q 100 187 56 154 q 199 220 144 220 q 322 228 237 220 q 372 422 372 337 q 282 619 372 619 q 163 566 199 619 q 127 419 127 513 q 143 375 127 393 q 180 357 158 357 q 233 382 208 357 q 258 439 258 408 q 243 468 258 456 q 208 481 227 481 q 194 473 200 481 q 187 456 187 465 q 201 439 187 439 q 222 444 213 439 m 313 204 q 221 195 256 201 q 164 163 186 189 q 143 109 143 137 q 158 64 143 81 q 196 46 172 46 q 289 98 237 46 l 313 204 m 295 990 q 379 957 338 990 q 421 879 421 924 q 383 780 421 826 q 310 734 345 734 q 230 777 271 734 q 189 862 189 819 q 219 954 189 918 q 295 990 249 990 m 298 789 q 353 806 330 789 q 376 851 376 823 q 318 956 376 956 q 254 923 284 956 q 224 862 224 890 q 244 808 224 827 q 298 789 264 789 z "},"":{"ha":566,"x_min":54,"x_max":536,"o":"m 304 16 q 124 125 193 26 q 54 346 54 223 q 149 565 54 468 q 366 661 244 661 q 479 626 421 661 q 536 543 536 591 q 498 465 536 503 q 416 428 460 428 q 347 449 378 428 q 317 503 317 469 q 336 551 317 534 q 390 568 356 568 q 426 558 410 568 q 441 533 441 549 q 429 514 441 524 q 406 504 416 504 l 397 504 q 404 533 404 526 q 383 550 404 550 q 362 536 371 550 q 353 507 353 522 q 403 453 353 453 q 458 478 437 453 q 479 538 479 503 q 444 609 479 580 q 364 639 408 639 q 210 543 272 639 q 149 340 149 448 q 197 129 149 222 q 323 35 245 35 q 415 86 385 35 l 444 33 q 340 14 383 17 q 326 -18 335 3 q 310 -50 316 -39 q 388 -71 348 -47 q 428 -129 428 -94 q 391 -179 428 -155 q 322 -203 355 -203 q 280 -193 305 -203 q 249 -182 254 -183 q 261 -150 256 -166 q 323 -172 283 -172 q 371 -135 371 -172 q 346 -88 371 -107 q 282 -71 321 -69 q 304 16 298 -33 z "},"":{"ha":585,"x_min":58,"x_max":554,"o":"m 406 146 q 437 115 437 146 q 420 82 437 96 q 387 68 403 68 q 347 87 368 68 q 326 134 326 106 q 351 194 326 172 q 414 216 376 216 q 488 185 458 216 q 518 104 518 153 q 468 13 518 47 q 357 -21 417 -21 q 153 70 247 -21 q 58 292 58 161 q 150 515 58 414 q 345 615 241 615 q 488 564 422 615 q 554 457 554 513 q 497 344 554 388 q 355 300 441 300 q 228 323 273 300 q 183 387 183 346 q 211 448 183 425 q 269 472 239 472 q 318 458 296 472 q 340 425 340 444 q 325 387 340 405 q 296 370 310 370 q 268 389 268 370 q 300 419 300 397 q 288 446 300 436 q 258 456 275 456 q 235 436 246 456 q 224 395 224 416 q 267 343 224 365 q 370 322 309 322 q 450 353 421 322 q 478 437 478 385 q 437 543 478 492 q 335 593 395 593 q 207 508 260 593 q 154 279 154 424 q 215 82 154 160 q 364 4 275 4 q 447 33 406 4 q 488 106 488 62 q 458 157 488 136 q 395 178 429 178 q 362 165 376 178 q 349 136 349 153 q 383 107 349 107 q 399 120 393 107 q 406 146 406 132 m 500 817 q 418 783 454 796 q 332 740 382 770 q 260 700 281 710 q 247 724 259 705 q 473 873 340 768 q 486 844 475 869 q 500 817 496 820 z "},"":{"ha":585,"x_min":58,"x_max":554,"o":"m 406 146 q 437 115 437 146 q 420 82 437 96 q 387 68 403 68 q 347 87 368 68 q 326 134 326 106 q 351 194 326 172 q 414 216 376 216 q 488 185 458 216 q 518 104 518 153 q 468 13 518 47 q 357 -21 417 -21 q 153 70 247 -21 q 58 292 58 161 q 150 515 58 414 q 345 615 241 615 q 488 564 422 615 q 554 457 554 513 q 497 344 554 388 q 355 300 441 300 q 228 323 273 300 q 183 387 183 346 q 211 448 183 425 q 269 472 239 472 q 318 458 296 472 q 340 425 340 444 q 325 387 340 405 q 296 370 310 370 q 268 389 268 370 q 300 419 300 397 q 288 446 300 436 q 258 456 275 456 q 235 436 246 456 q 224 395 224 416 q 267 343 224 365 q 370 322 309 322 q 450 353 421 322 q 478 437 478 385 q 437 543 478 492 q 335 593 395 593 q 207 508 260 593 q 154 279 154 424 q 215 82 154 160 q 364 4 275 4 q 447 33 406 4 q 488 106 488 62 q 458 157 488 136 q 395 178 429 178 q 362 165 376 178 q 349 136 349 153 q 383 107 349 107 q 399 120 393 107 q 406 146 406 132 m 491 729 q 477 705 479 711 q 412 742 469 709 q 319 788 355 775 q 237 822 283 802 q 252 850 242 825 q 265 879 262 874 q 491 729 398 773 z "},"":{"ha":585,"x_min":58,"x_max":554,"o":"m 406 146 q 437 115 437 146 q 420 82 437 96 q 387 68 403 68 q 347 87 368 68 q 326 134 326 106 q 351 194 326 172 q 414 216 376 216 q 488 185 458 216 q 518 104 518 153 q 468 13 518 47 q 357 -21 417 -21 q 153 70 247 -21 q 58 292 58 161 q 150 515 58 414 q 345 615 241 615 q 488 564 422 615 q 554 457 554 513 q 497 344 554 388 q 355 300 441 300 q 228 323 273 300 q 183 387 183 346 q 211 448 183 425 q 269 472 239 472 q 318 458 296 472 q 340 425 340 444 q 325 387 340 405 q 296 370 310 370 q 268 389 268 370 q 300 419 300 397 q 288 446 300 436 q 258 456 275 456 q 235 436 246 456 q 224 395 224 416 q 267 343 224 365 q 370 322 309 322 q 450 353 421 322 q 478 437 478 385 q 437 543 478 492 q 335 593 395 593 q 207 508 260 593 q 154 279 154 424 q 215 82 154 160 q 364 4 275 4 q 447 33 406 4 q 488 106 488 62 q 458 157 488 136 q 395 178 429 178 q 362 165 376 178 q 349 136 349 153 q 383 107 349 107 q 399 120 393 107 q 406 146 406 132 m 494 750 q 433 720 454 728 q 356 842 406 772 q 281 713 290 735 q 221 746 235 734 q 286 805 235 761 q 360 880 336 850 q 494 750 385 844 z "},"":{"ha":585,"x_min":58,"x_max":554,"o":"m 406 146 q 437 115 437 146 q 420 82 437 96 q 387 68 403 68 q 347 87 368 68 q 326 134 326 106 q 351 194 326 172 q 414 216 376 216 q 488 185 458 216 q 518 104 518 153 q 468 13 518 47 q 357 -21 417 -21 q 153 70 247 -21 q 58 292 58 161 q 150 515 58 414 q 345 615 241 615 q 488 564 422 615 q 554 457 554 513 q 497 344 554 388 q 355 300 441 300 q 228 323 273 300 q 183 387 183 346 q 211 448 183 425 q 269 472 239 472 q 318 458 296 472 q 340 425 340 444 q 325 387 340 405 q 296 370 310 370 q 268 389 268 370 q 300 419 300 397 q 288 446 300 436 q 258 456 275 456 q 235 436 246 456 q 224 395 224 416 q 267 343 224 365 q 370 322 309 322 q 450 353 421 322 q 478 437 478 385 q 437 543 478 492 q 335 593 395 593 q 207 508 260 593 q 154 279 154 424 q 215 82 154 160 q 364 4 275 4 q 447 33 406 4 q 488 106 488 62 q 458 157 488 136 q 395 178 429 178 q 362 165 376 178 q 349 136 349 153 q 383 107 349 107 q 399 120 393 107 q 406 146 406 132 m 463 795 q 507 769 507 795 q 496 724 507 736 q 463 712 485 712 q 429 761 429 712 q 436 788 429 781 q 463 795 444 795 m 257 786 q 283 770 271 786 q 294 737 294 753 q 241 703 294 703 q 211 718 228 703 q 195 748 195 734 q 213 776 195 766 q 257 786 231 786 z "},"":{"ha":310,"x_min":20,"x_max":310,"o":"m 310 -16 q 115 -21 153 -16 q 47 -32 76 -26 l 47 5 l 135 8 q 104 571 135 302 l 29 574 l 29 599 q 126 597 99 597 q 256 623 174 597 l 256 591 l 195 576 l 180 358 l 164 14 q 310 22 241 14 l 310 -16 m 273 817 q 191 783 227 796 q 104 740 155 770 q 33 700 54 710 q 20 724 32 705 q 245 873 113 768 q 258 844 248 869 q 273 817 269 820 z "},"":{"ha":310,"x_min":16,"x_max":310,"o":"m 310 -16 q 115 -21 153 -16 q 47 -32 76 -26 l 47 5 l 135 8 q 104 571 135 302 l 29 574 l 29 599 q 126 597 99 597 q 256 623 174 597 l 256 591 l 195 576 l 180 358 l 164 14 q 310 22 241 14 l 310 -16 m 269 724 q 256 700 257 705 q 191 736 248 703 q 98 783 134 770 q 16 817 62 796 q 31 844 20 820 q 43 873 41 869 q 269 724 176 768 z "},"":{"ha":310,"x_min":12,"x_max":310,"o":"m 310 -16 q 115 -21 153 -16 q 47 -32 76 -26 l 47 5 l 135 8 q 104 571 135 302 l 29 574 l 29 599 q 126 597 99 597 q 256 623 174 597 l 256 591 l 195 576 l 180 358 l 164 14 q 310 22 241 14 l 310 -16 m 285 750 q 224 720 245 728 q 147 842 197 772 q 72 713 81 735 q 12 746 26 734 q 77 805 26 761 q 151 880 127 850 q 285 750 176 844 z "},"":{"ha":310,"x_min":0,"x_max":313,"o":"m 310 -16 q 115 -21 153 -16 q 47 -32 76 -26 l 47 5 l 135 8 q 104 571 135 302 l 29 574 l 29 599 q 126 597 99 597 q 256 623 174 597 l 256 591 l 195 576 l 180 358 l 164 14 q 310 22 241 14 l 310 -16 m 268 840 q 313 814 313 840 q 301 769 313 781 q 268 757 290 757 q 235 806 235 757 q 242 833 235 825 q 268 840 249 840 m 62 831 q 88 814 77 831 q 100 782 100 798 q 47 747 100 747 q 17 763 33 747 q 0 793 0 779 q 18 821 0 811 q 62 831 36 831 z "},"":{"ha":718,"x_min":3,"x_max":661,"o":"m 184 422 q 399 625 256 625 q 581 540 500 625 q 661 340 661 455 q 587 99 661 215 q 429 -17 512 -17 q 359 15 393 -17 q 325 82 325 47 q 354 133 325 111 q 414 155 383 155 q 485 111 485 155 q 433 69 485 69 q 406 79 410 69 l 411 86 q 427 83 420 83 q 440 109 440 83 q 414 136 440 136 q 388 115 399 136 q 376 72 376 94 q 435 7 376 7 q 567 359 567 7 q 515 520 567 445 q 396 595 464 595 q 292 550 339 595 q 218 444 245 505 q 191 375 191 383 l 164 18 l 237 36 l 245 5 q 139 -12 174 -12 q 41 -8 105 -12 l 47 22 l 138 16 q 139 79 139 42 q 87 604 139 355 l 11 591 l 3 616 q 197 676 97 628 l 184 422 m 571 926 q 478 802 513 824 q 406 781 442 781 q 371 791 387 781 q 330 847 354 802 q 279 892 307 892 q 242 800 251 892 q 193 811 212 815 q 248 898 220 877 q 317 918 275 918 q 377 867 343 918 q 438 823 408 823 q 472 831 453 823 q 496 852 491 840 q 510 939 500 863 q 571 926 537 939 z "},"":{"ha":664,"x_min":54,"x_max":623,"o":"m 350 456 q 326 440 340 440 q 310 449 317 440 q 302 471 302 457 q 317 498 302 487 q 350 509 332 509 q 387 492 370 509 q 404 457 404 475 q 380 388 404 414 q 317 363 355 363 q 269 392 289 363 q 249 463 249 420 q 292 552 249 511 q 379 593 334 593 q 547 511 471 593 q 623 328 623 430 q 535 99 623 201 q 349 -3 448 -3 q 145 89 235 -3 q 54 306 54 181 q 137 506 54 411 q 334 627 220 601 l 342 610 q 198 509 255 594 q 142 325 142 425 q 198 103 142 189 q 347 18 255 18 q 477 104 418 18 q 536 306 536 191 q 485 491 536 416 q 359 566 433 566 q 293 534 319 566 q 267 465 267 503 q 285 424 267 441 q 319 407 303 407 q 363 424 341 407 q 385 456 385 440 q 347 489 385 489 q 332 472 332 489 q 350 456 332 465 m 462 822 q 380 788 416 802 q 293 745 344 775 q 222 705 242 715 q 208 729 220 711 q 434 879 301 773 q 447 850 437 874 q 462 822 457 825 z "},"":{"ha":664,"x_min":54,"x_max":623,"o":"m 350 456 q 326 440 340 440 q 310 449 317 440 q 302 471 302 457 q 317 498 302 487 q 350 509 332 509 q 387 492 370 509 q 404 457 404 475 q 380 388 404 414 q 317 363 355 363 q 269 392 289 363 q 249 463 249 420 q 292 552 249 511 q 379 593 334 593 q 547 511 471 593 q 623 328 623 430 q 535 99 623 201 q 349 -3 448 -3 q 145 89 235 -3 q 54 306 54 181 q 137 506 54 411 q 334 627 220 601 l 342 610 q 198 509 255 594 q 142 325 142 425 q 198 103 142 189 q 347 18 255 18 q 477 104 418 18 q 536 306 536 191 q 485 491 536 416 q 359 566 433 566 q 293 534 319 566 q 267 465 267 503 q 285 424 267 441 q 319 407 303 407 q 363 424 341 407 q 385 456 385 440 q 347 489 385 489 q 332 472 332 489 q 350 456 332 465 m 486 746 q 472 722 473 728 q 407 759 464 726 q 314 805 350 792 q 232 839 278 819 q 247 867 237 842 q 260 896 257 891 q 486 746 393 790 z "},"":{"ha":664,"x_min":54,"x_max":623,"o":"m 350 456 q 326 440 340 440 q 310 449 317 440 q 302 471 302 457 q 317 498 302 487 q 350 509 332 509 q 387 492 370 509 q 404 457 404 475 q 380 388 404 414 q 317 363 355 363 q 269 392 289 363 q 249 463 249 420 q 292 552 249 511 q 379 593 334 593 q 547 511 471 593 q 623 328 623 430 q 535 99 623 201 q 349 -3 448 -3 q 145 89 235 -3 q 54 306 54 181 q 137 506 54 411 q 334 627 220 601 l 342 610 q 198 509 255 594 q 142 325 142 425 q 198 103 142 189 q 347 18 255 18 q 477 104 418 18 q 536 306 536 191 q 485 491 536 416 q 359 566 433 566 q 293 534 319 566 q 267 465 267 503 q 285 424 267 441 q 319 407 303 407 q 363 424 341 407 q 385 456 385 440 q 347 489 385 489 q 332 472 332 489 q 350 456 332 465 m 485 750 q 424 720 446 728 q 347 842 397 772 q 272 713 281 735 q 212 746 226 734 q 277 805 226 761 q 351 880 328 850 q 485 750 376 844 z "},"":{"ha":664,"x_min":54,"x_max":623,"o":"m 350 456 q 326 440 340 440 q 310 449 317 440 q 302 471 302 457 q 317 498 302 487 q 350 509 332 509 q 387 492 370 509 q 404 457 404 475 q 380 388 404 414 q 317 363 355 363 q 269 392 289 363 q 249 463 249 420 q 292 552 249 511 q 379 593 334 593 q 547 511 471 593 q 623 328 623 430 q 535 99 623 201 q 349 -3 448 -3 q 145 89 235 -3 q 54 306 54 181 q 137 506 54 411 q 334 627 220 601 l 342 610 q 198 509 255 594 q 142 325 142 425 q 198 103 142 189 q 347 18 255 18 q 477 104 418 18 q 536 306 536 191 q 485 491 536 416 q 359 566 433 566 q 293 534 319 566 q 267 465 267 503 q 285 424 267 441 q 319 407 303 407 q 363 424 341 407 q 385 456 385 440 q 347 489 385 489 q 332 472 332 489 q 350 456 332 465 m 457 823 q 502 797 502 823 q 491 752 502 764 q 457 740 479 740 q 424 789 424 740 q 431 816 424 808 q 457 823 438 823 m 252 814 q 277 798 266 814 q 289 765 289 781 q 236 730 289 730 q 206 746 222 730 q 189 776 189 762 q 207 804 189 794 q 252 814 225 814 z "},"":{"ha":664,"x_min":54,"x_max":623,"o":"m 350 456 q 326 440 340 440 q 310 449 317 440 q 302 471 302 457 q 317 498 302 487 q 350 509 332 509 q 387 492 370 509 q 404 457 404 475 q 380 388 404 414 q 317 363 355 363 q 269 392 289 363 q 249 463 249 420 q 292 552 249 511 q 379 593 334 593 q 547 511 471 593 q 623 328 623 430 q 535 99 623 201 q 349 -3 448 -3 q 145 89 235 -3 q 54 306 54 181 q 137 506 54 411 q 334 627 220 601 l 342 610 q 198 509 255 594 q 142 325 142 425 q 198 103 142 189 q 347 18 255 18 q 477 104 418 18 q 536 306 536 191 q 485 491 536 416 q 359 566 433 566 q 293 534 319 566 q 267 465 267 503 q 285 424 267 441 q 319 407 303 407 q 363 424 341 407 q 385 456 385 440 q 347 489 385 489 q 332 472 332 489 q 350 456 332 465 m 532 843 q 438 719 474 741 q 367 697 403 697 q 331 708 348 697 q 291 763 315 718 q 240 808 267 808 q 203 717 212 808 q 154 728 172 732 q 209 814 181 793 q 278 835 236 835 q 338 783 304 835 q 399 739 368 739 q 433 748 414 739 q 456 768 452 757 q 471 856 461 780 q 532 843 498 856 z "},"":{"ha":664,"x_min":71,"x_max":664,"o":"m 664 -4 q 538 -52 586 -27 l 522 109 q 317 -16 437 -16 q 149 57 225 -16 q 72 235 72 130 q 97 330 72 277 q 154 414 122 382 q 210 488 186 446 q 233 553 233 529 q 171 625 233 625 q 119 610 144 625 q 94 571 94 594 q 107 544 94 555 q 135 532 120 532 q 157 535 153 532 q 161 546 161 538 q 132 568 161 563 q 155 585 146 585 q 177 573 168 585 q 187 547 187 562 q 169 506 187 525 q 127 486 150 486 q 89 507 106 486 q 71 550 71 528 q 102 631 71 592 q 168 671 133 671 q 232 638 207 671 q 257 561 257 606 q 224 440 257 498 q 151 241 151 312 q 202 76 151 136 q 338 16 252 16 q 517 155 442 16 q 446 582 492 371 l 374 578 l 376 607 q 602 644 497 609 l 608 616 l 539 597 q 564 -3 539 368 q 654 28 612 7 l 664 -4 m 484 844 q 402 811 438 824 q 315 768 366 798 q 244 728 264 738 q 231 751 243 733 q 456 901 323 795 q 469 872 459 897 q 484 844 479 848 z "},"":{"ha":664,"x_min":71,"x_max":664,"o":"m 664 -4 q 538 -52 586 -27 l 522 109 q 317 -16 437 -16 q 149 57 225 -16 q 72 235 72 130 q 97 330 72 277 q 154 414 122 382 q 210 488 186 446 q 233 553 233 529 q 171 625 233 625 q 119 610 144 625 q 94 571 94 594 q 107 544 94 555 q 135 532 120 532 q 157 535 153 532 q 161 546 161 538 q 132 568 161 563 q 155 585 146 585 q 177 573 168 585 q 187 547 187 562 q 169 506 187 525 q 127 486 150 486 q 89 507 106 486 q 71 550 71 528 q 102 631 71 592 q 168 671 133 671 q 232 638 207 671 q 257 561 257 606 q 224 440 257 498 q 151 241 151 312 q 202 76 151 136 q 338 16 252 16 q 517 155 442 16 q 446 582 492 371 l 374 578 l 376 607 q 602 644 497 609 l 608 616 l 539 597 q 564 -3 539 368 q 654 28 612 7 l 664 -4 m 480 763 q 467 739 468 745 q 401 776 458 743 q 309 822 345 809 q 227 856 273 836 q 241 884 231 859 q 254 913 252 908 q 480 763 387 807 z "},"":{"ha":664,"x_min":71,"x_max":664,"o":"m 664 -4 q 538 -52 586 -27 l 522 109 q 317 -16 437 -16 q 149 57 225 -16 q 72 235 72 130 q 97 330 72 277 q 154 414 122 382 q 210 488 186 446 q 233 553 233 529 q 171 625 233 625 q 119 610 144 625 q 94 571 94 594 q 107 544 94 555 q 135 532 120 532 q 157 535 153 532 q 161 546 161 538 q 132 568 161 563 q 155 585 146 585 q 177 573 168 585 q 187 547 187 562 q 169 506 187 525 q 127 486 150 486 q 89 507 106 486 q 71 550 71 528 q 102 631 71 592 q 168 671 133 671 q 232 638 207 671 q 257 561 257 606 q 224 440 257 498 q 151 241 151 312 q 202 76 151 136 q 338 16 252 16 q 517 155 442 16 q 446 582 492 371 l 374 578 l 376 607 q 602 644 497 609 l 608 616 l 539 597 q 564 -3 539 368 q 654 28 612 7 l 664 -4 m 491 750 q 430 720 452 728 q 353 842 404 772 q 278 713 288 735 q 218 746 232 734 q 283 805 232 761 q 357 880 334 850 q 491 750 382 844 z "},"":{"ha":664,"x_min":71,"x_max":664,"o":"m 664 -4 q 538 -52 586 -27 l 522 109 q 317 -16 437 -16 q 149 57 225 -16 q 72 235 72 130 q 97 330 72 277 q 154 414 122 382 q 210 488 186 446 q 233 553 233 529 q 171 625 233 625 q 119 610 144 625 q 94 571 94 594 q 107 544 94 555 q 135 532 120 532 q 157 535 153 532 q 161 546 161 538 q 132 568 161 563 q 155 585 146 585 q 177 573 168 585 q 187 547 187 562 q 169 506 187 525 q 127 486 150 486 q 89 507 106 486 q 71 550 71 528 q 102 631 71 592 q 168 671 133 671 q 232 638 207 671 q 257 561 257 606 q 224 440 257 498 q 151 241 151 312 q 202 76 151 136 q 338 16 252 16 q 517 155 442 16 q 446 582 492 371 l 374 578 l 376 607 q 602 644 497 609 l 608 616 l 539 597 q 564 -3 539 368 q 654 28 612 7 l 664 -4 m 468 835 q 513 808 513 835 q 502 764 513 776 q 468 751 490 751 q 435 800 435 751 q 442 827 435 820 q 468 835 449 835 m 262 825 q 288 809 277 825 q 300 777 300 793 q 247 742 300 742 q 217 758 233 742 q 200 787 200 773 q 218 815 200 806 q 262 825 236 825 z "},"":{"ha":458,"x_min":35,"x_max":439,"o":"m 439 671 l 433 599 q 249 616 287 616 q 244 579 244 592 q 259 492 244 534 q 273 407 273 450 q 257 250 273 393 q 240 8 240 106 l 184 11 q 207 149 198 66 q 215 273 215 231 q 200 363 215 307 q 186 453 186 420 q 201 529 186 484 q 216 618 216 574 q 39 599 104 606 l 35 681 q 139 657 79 668 q 221 647 200 647 q 197 832 221 677 l 282 844 q 254 647 254 686 q 439 671 292 647 z "},"":{"ha":342,"x_min":53,"x_max":293,"o":"m 170 884 q 257 853 222 884 q 293 777 293 823 q 255 689 293 727 q 167 652 216 652 q 88 690 123 652 q 53 761 53 729 q 87 848 53 812 q 170 884 121 884 m 174 688 q 226 715 203 688 q 249 775 249 742 q 230 824 249 806 q 180 842 211 842 q 123 821 153 842 q 93 778 93 800 q 174 688 93 688 z "},"":{"ha":571,"x_min":18,"x_max":528,"o":"m 528 134 q 307 -25 427 -18 q 326 -271 307 -168 q 271 -279 294 -273 q 279 -24 271 -193 q 89 89 160 -13 q 18 322 18 190 q 106 539 18 431 q 315 656 194 648 q 328 930 328 854 q 389 922 333 930 q 339 656 347 722 q 465 613 422 651 q 507 534 507 574 q 473 461 507 500 q 403 421 439 421 q 312 446 344 421 q 279 504 279 471 q 304 545 279 527 q 359 564 328 564 q 386 555 371 564 q 400 538 400 547 q 390 512 400 524 q 361 498 379 500 q 345 543 361 543 q 324 531 332 543 q 315 503 315 519 q 336 462 315 486 q 375 437 357 437 q 432 464 412 437 q 452 526 452 490 q 418 597 452 566 q 330 628 385 628 q 167 555 231 628 q 103 367 103 481 q 152 104 103 204 q 296 4 201 4 q 492 161 422 4 l 528 134 z "},"":{"ha":741,"x_min":4,"x_max":736,"o":"m 639 90 q 599 277 599 215 q 624 340 599 313 q 677 367 648 367 q 718 350 700 367 q 736 306 736 332 q 724 274 736 289 q 699 260 712 260 q 673 281 683 260 q 696 310 696 293 q 672 326 696 326 q 645 309 656 326 q 635 269 635 292 q 661 104 635 199 q 696 -29 688 8 q 178 21 400 21 q 4 14 99 21 l 14 52 q 250 309 250 84 q 244 354 250 323 q 87 347 147 349 l 92 385 l 239 375 q 203 447 232 399 q 87 436 125 439 l 90 476 q 187 473 117 476 q 122 647 122 574 q 184 799 122 727 q 323 871 246 871 q 434 831 385 871 q 482 732 482 791 q 449 644 482 688 q 375 600 416 600 q 330 624 351 600 q 309 672 309 648 q 324 712 309 693 q 359 730 340 730 q 385 721 373 730 q 397 700 397 712 q 392 677 397 690 q 380 664 387 664 q 368 677 376 664 q 354 690 360 690 q 340 679 346 690 q 335 656 335 667 q 376 619 335 619 q 417 642 398 619 q 436 688 436 665 q 408 789 436 733 q 342 846 379 846 q 239 783 281 846 q 196 652 196 720 q 233 475 196 566 q 482 518 364 488 l 485 471 q 244 452 413 470 q 272 375 264 402 q 479 397 399 382 l 492 347 q 294 354 460 354 l 279 354 q 304 254 304 281 q 227 129 304 190 q 117 58 150 68 l 164 58 q 639 90 408 58 z "},"":{"ha":465,"x_min":50,"x_max":416,"o":"m 155 639 q 83 808 83 711 q 136 929 83 873 q 265 985 189 985 q 371 956 326 985 q 416 878 416 928 q 384 801 416 836 q 313 766 353 766 q 260 799 281 766 q 239 859 239 831 q 251 890 239 877 q 277 904 263 904 q 307 893 294 904 q 276 836 276 862 q 342 800 276 800 q 366 815 355 800 q 376 844 376 830 q 340 921 376 881 q 262 961 304 961 q 190 928 219 961 q 161 857 161 895 q 282 632 161 723 q 373 537 336 592 q 410 421 410 483 q 378 326 410 377 q 282 244 347 275 q 355 56 355 181 q 314 -35 355 2 q 242 -86 273 -72 q 165 -100 211 -100 q 92 -58 123 -100 q 61 33 61 -16 q 86 95 61 67 q 140 122 111 122 q 180 54 180 122 q 131 77 149 77 q 99 65 113 77 q 86 33 86 54 q 126 -23 86 10 q 224 -57 165 -57 q 286 -24 252 -57 q 319 50 319 9 q 276 155 319 97 q 141 285 232 214 q 50 454 50 357 q 155 639 50 520 m 240 283 q 279 281 267 281 q 340 316 307 281 q 372 392 372 351 q 343 471 372 429 q 178 619 313 513 q 129 571 146 609 q 111 497 111 534 q 132 410 111 439 q 240 283 152 382 z "},"":{"ha":328,"x_min":82,"x_max":248,"o":"m 170 514 q 248 418 248 514 q 220 355 248 382 q 157 329 193 329 q 109 358 136 329 q 82 406 82 388 q 107 483 82 451 q 170 514 132 514 z "},"":{"ha":628,"x_min":-5,"x_max":541,"o":"m 541 989 l 534 939 l 479 933 q 473 494 473 795 q 501 28 473 313 l 412 -22 q 424 287 424 63 q 407 922 424 637 l 328 917 q 318 205 318 423 q 329 -39 318 52 l 260 -66 q 273 395 273 136 q 257 545 273 473 q 136 518 202 518 q 31 556 67 518 q -5 739 -5 594 q -3 765 -5 751 q 6 796 0 781 q 22 831 13 814 q 48 866 34 850 q 83 899 64 884 q 130 925 104 914 q 188 943 157 937 l 260 950 l 541 989 z "},"":{"ha":675,"x_min":33,"x_max":661,"o":"m 171 21 l 106 387 q 81 640 81 523 q 161 938 81 850 q 334 1026 240 1026 q 481 982 414 1026 q 549 875 549 938 q 522 791 549 837 q 443 692 494 745 q 381 617 391 640 q 372 564 372 594 q 402 499 372 529 q 518 439 432 469 q 661 249 661 391 q 590 105 661 175 q 454 36 518 36 q 279 179 279 36 q 321 266 279 225 q 399 307 362 307 q 467 279 431 307 q 503 225 503 252 q 487 167 503 191 q 450 143 471 143 q 415 167 428 143 q 440 186 436 179 q 444 221 444 193 q 431 261 444 238 q 401 285 417 285 q 350 264 369 285 q 332 216 332 244 q 364 107 332 159 q 463 54 396 54 q 544 96 509 54 q 579 193 579 137 q 569 319 579 275 q 525 393 559 363 q 420 442 491 422 q 321 488 350 461 q 293 564 293 514 q 320 623 293 588 q 388 681 348 659 q 457 747 429 704 q 485 827 485 791 q 440 945 485 886 q 336 1004 395 1004 q 200 848 244 1004 q 157 500 157 692 q 205 -4 157 258 l 33 -8 l 35 33 q 171 21 68 21 z "},"":{"ha":564,"x_min":28,"x_max":533,"o":"m 290 897 q 420 862 363 897 q 505 754 477 827 q 533 637 533 680 q 517 518 533 576 q 436 411 501 460 q 319 361 372 361 q 107 429 187 361 q 28 612 28 496 q 69 764 28 690 q 180 868 110 838 q 290 897 250 897 m 321 406 q 463 462 414 406 q 513 621 513 519 q 458 773 513 686 q 278 861 403 861 q 129 800 205 861 q 53 665 53 739 q 132 484 53 562 q 321 406 212 406 m 411 534 q 385 555 385 538 q 397 570 385 563 q 421 578 409 578 q 465 538 465 578 q 439 493 465 512 q 383 473 414 473 q 341 494 363 473 q 292 568 319 515 q 258 629 265 621 q 311 646 286 629 q 336 688 336 663 q 282 741 336 741 q 240 730 268 741 l 253 504 l 296 504 l 289 486 q 187 475 233 486 l 187 498 l 224 498 q 211 619 217 595 q 193 708 204 643 q 158 689 177 701 l 150 710 q 191 730 181 726 q 184 761 189 741 q 178 786 179 781 q 203 797 182 787 q 232 807 224 806 q 235 781 233 800 q 237 753 237 763 q 301 765 258 765 q 386 699 386 765 q 359 652 386 675 q 294 623 333 629 q 349 560 330 611 q 376 501 368 509 q 395 493 385 493 q 420 513 406 493 q 435 549 435 534 q 428 561 435 556 q 411 534 411 561 z "},"":{"ha":722,"x_min":21,"x_max":696,"o":"m 375 777 q 596 667 497 777 q 696 397 696 557 q 586 174 696 260 q 325 87 475 87 q 159 136 231 87 q 54 264 87 184 q 21 416 21 345 q 44 550 21 492 q 127 664 66 608 q 245 748 187 720 q 375 777 302 777 m 386 121 q 578 202 511 121 q 644 431 644 284 q 569 656 644 568 q 387 745 494 745 q 75 403 75 745 q 166 201 75 281 q 386 121 256 121 m 529 351 q 464 233 499 270 q 379 196 429 196 q 232 271 300 196 q 163 427 163 347 q 230 587 163 509 q 376 665 296 665 q 478 642 437 665 q 519 575 519 618 q 498 513 519 539 q 444 488 477 488 q 394 504 418 488 q 370 545 370 521 q 382 577 370 564 q 414 590 395 590 q 443 581 431 590 q 456 557 456 572 q 435 539 456 547 q 430 556 433 541 q 419 571 427 571 q 403 547 403 571 q 433 507 403 507 q 466 522 454 507 q 478 559 478 536 q 445 614 478 587 q 383 642 412 642 q 279 590 316 642 q 241 457 241 538 q 287 304 241 382 q 396 227 332 227 q 500 366 467 227 l 529 351 z "},"":{"ha":728,"x_min":28,"x_max":703,"o":"m 562 864 q 703 787 703 859 q 684 748 703 764 q 639 733 665 733 q 617 743 627 733 q 607 764 607 753 q 629 785 607 785 q 642 751 634 751 q 659 761 652 751 q 665 781 665 771 q 582 844 665 833 q 611 582 582 694 q 679 591 634 591 l 675 566 q 529 554 631 570 l 526 572 q 581 578 564 574 q 549 772 568 631 q 501 629 526 732 l 471 621 q 393 771 452 667 q 383 528 393 724 l 440 522 l 437 505 q 304 522 344 510 l 306 545 l 350 534 q 375 778 375 687 q 366 851 375 833 q 422 857 404 851 l 490 699 q 562 864 522 764 m 268 783 q 243 811 243 789 q 255 828 243 821 q 278 835 268 835 q 314 815 298 835 q 329 774 329 795 q 308 741 329 755 q 264 728 287 728 q 221 736 245 728 q 186 746 197 745 q 193 618 186 680 q 200 526 199 556 l 245 526 l 249 503 l 110 511 l 110 538 l 171 528 q 126 768 125 732 l 65 783 q 56 704 66 766 l 28 704 q 46 807 50 781 q 159 781 75 810 q 272 751 242 751 q 294 764 284 751 q 304 785 304 776 q 297 801 304 794 q 281 807 290 807 q 271 799 275 807 q 268 783 267 791 z "},"":{"ha":294,"x_min":18,"x_max":272,"o":"m 272 817 q 190 783 226 796 q 103 740 154 770 q 32 700 52 710 q 18 724 31 705 q 244 873 111 768 q 257 844 247 869 q 272 817 267 820 z "},"":{"ha":361,"x_min":22,"x_max":335,"o":"m 290 835 q 335 808 335 835 q 324 764 335 776 q 290 751 313 751 q 257 800 257 751 q 264 827 257 820 q 290 835 271 835 m 85 825 q 111 809 99 825 q 122 777 122 793 q 69 742 122 742 q 39 758 56 742 q 22 787 22 773 q 40 815 22 806 q 85 825 58 825 z "},"":{"ha":762,"x_min":21,"x_max":750,"o":"m 750 189 l 329 189 l 204 -35 l 136 4 l 239 189 l 21 189 l 21 265 l 282 265 l 389 458 l 21 458 l 21 534 l 432 534 l 558 762 l 627 724 l 521 534 l 750 534 l 750 458 l 479 458 l 371 265 l 750 265 l 750 189 z "},"":{"ha":1221,"x_min":-11,"x_max":1218,"o":"m 1067 197 q 1096 171 1096 186 q 1082 128 1096 146 q 1046 110 1067 110 q 1007 131 1023 110 q 991 178 991 153 q 1026 248 991 210 q 1093 286 1061 286 q 1184 260 1149 286 q 1218 184 1218 233 q 1165 67 1218 138 q 1010 -4 1112 -4 q 852 13 957 -4 q 694 31 747 31 q 589 21 650 31 l 590 57 l 676 58 q 642 386 647 235 q 550 383 583 383 q 376 396 448 383 q 271 103 340 205 q 109 1 202 1 q 25 46 62 1 q -11 140 -11 90 q 22 228 -11 181 q 92 275 54 275 q 131 254 111 275 q 151 212 151 233 q 137 163 151 189 q 103 138 123 138 q 93 142 100 138 q 113 179 113 157 q 102 207 113 193 q 79 221 92 221 q 16 164 16 221 q 44 87 16 112 q 140 62 73 62 q 313 411 302 62 q 85 567 85 463 q 106 620 85 595 q 155 646 128 646 l 163 646 q 136 579 136 614 q 187 492 136 532 q 311 435 238 452 q 307 539 307 487 q 347 740 307 662 q 459 862 387 818 q 615 921 531 906 q 857 943 700 937 q 1079 964 1015 949 q 1053 742 1051 845 l 1019 743 l 1029 896 l 771 900 q 715 429 724 642 q 1007 484 902 450 l 1007 429 q 713 392 846 399 l 713 229 q 720 61 713 130 q 859 51 762 60 q 1017 41 955 41 q 1161 146 1161 41 q 1134 218 1161 188 q 1067 248 1107 248 q 1035 228 1049 248 q 1021 191 1021 209 q 1033 163 1021 176 q 1060 151 1044 151 q 1074 165 1074 151 q 1061 189 1074 182 l 1067 197 m 676 905 q 485 828 560 909 q 389 488 410 747 q 382 422 385 442 q 521 415 439 415 q 643 419 583 415 q 641 509 641 464 q 676 905 641 703 z "},"":{"ha":957,"x_min":21,"x_max":945,"o":"m 945 900 l 786 729 q 908 461 908 609 q 787 124 908 260 q 500 -12 667 -12 q 216 78 336 -12 q 92 -81 142 -10 q 56 -68 83 -77 q 21 -52 29 -59 q 187 102 84 -3 q 54 404 54 223 q 157 705 54 572 q 415 876 260 838 l 424 856 q 225 712 300 831 q 150 422 150 593 q 231 150 150 261 q 703 730 380 317 q 518 804 624 804 q 387 756 440 804 q 334 652 334 709 q 359 601 334 621 q 411 581 384 581 q 470 597 446 581 q 494 637 494 614 q 480 670 494 657 q 449 684 466 684 q 410 671 410 684 q 453 639 410 659 q 425 623 442 623 q 403 640 414 623 q 392 671 392 658 q 411 704 392 686 q 452 722 431 722 q 496 696 472 722 q 519 647 519 669 q 487 560 519 595 q 416 525 454 525 q 342 564 374 525 q 310 650 310 603 q 375 777 310 717 q 538 838 440 838 q 736 772 641 838 q 873 954 791 842 q 908 924 879 943 q 945 900 938 905 m 253 121 q 511 11 355 11 q 731 134 645 11 q 818 429 818 256 q 745 684 818 578 q 472 382 532 457 q 253 121 413 308 z "},"":{"ha":990,"x_min":36,"x_max":954,"o":"m 443 453 q 551 604 491 568 q 694 640 610 640 q 879 561 804 640 q 954 357 954 482 q 879 151 954 231 q 717 72 803 72 q 601 115 652 72 q 489 267 550 157 q 269 109 410 109 q 102 179 168 109 q 36 358 36 250 q 96 536 36 465 q 244 607 157 607 q 345 578 298 607 q 443 453 392 550 m 509 315 q 600 179 552 222 q 720 136 648 136 q 860 198 805 136 q 916 357 916 260 q 859 519 916 452 q 724 587 802 587 q 657 573 686 587 q 607 531 629 558 q 564 452 585 503 l 509 315 m 416 378 l 424 400 q 243 546 359 546 q 121 494 168 546 q 74 359 74 442 q 119 219 74 276 q 229 161 164 161 q 331 205 285 161 q 416 378 376 250 z "},"":{"ha":857,"x_min":72,"x_max":787,"o":"m 787 425 l 464 428 q 454 68 454 149 l 406 65 q 414 428 406 176 q 72 436 153 428 l 75 507 q 410 476 328 476 q 404 807 404 724 l 467 819 l 461 476 q 779 497 575 476 l 787 425 m 768 -14 q 94 -26 281 -14 l 98 40 q 760 66 547 40 l 768 -14 z "},"":{"ha":762,"x_min":40,"x_max":730,"o":"m 730 163 l 40 482 l 40 568 l 730 888 l 730 802 l 129 525 l 730 249 l 730 163 m 730 0 l 40 0 l 40 76 l 730 76 l 730 0 z "},"":{"ha":762,"x_min":40,"x_max":730,"o":"m 730 482 l 40 163 l 40 249 l 642 525 l 40 802 l 40 888 l 730 568 l 730 482 m 730 0 l 40 0 l 40 76 l 730 76 l 730 0 z "},"":{"ha":865,"x_min":0,"x_max":899,"o":"m 899 836 q 893 799 895 825 q 778 821 867 806 q 475 485 647 646 l 467 419 l 789 415 l 783 374 l 464 393 q 457 288 457 322 q 741 297 567 289 l 730 250 q 454 258 648 256 q 446 36 446 54 q 563 33 490 33 q 679 36 636 33 l 679 -7 q 349 16 413 16 q 245 5 294 16 l 252 46 q 416 41 292 46 l 406 256 q 121 241 161 241 q 113 290 122 252 q 236 285 201 285 q 406 286 353 285 l 397 397 l 100 414 l 110 452 q 397 422 260 431 l 389 482 q 290 693 329 597 q 211 830 252 790 q 126 871 171 871 q 75 850 102 871 q 47 810 47 830 q 61 749 47 777 q 94 722 74 722 q 134 731 115 722 q 153 755 153 741 q 125 777 153 777 q 100 761 112 777 q 86 786 86 768 q 100 808 86 799 q 127 817 114 817 q 162 801 143 817 q 180 771 180 785 q 152 725 180 751 q 96 700 123 700 q 31 743 61 700 q 0 825 0 786 q 43 892 0 860 q 126 924 86 924 q 228 903 183 924 q 299 837 273 882 q 360 659 326 791 q 429 481 395 527 q 708 829 530 575 q 579 854 682 829 q 591 886 585 871 q 899 836 739 844 z "},"":{"ha":664,"x_min":18,"x_max":664,"o":"m 664 -4 q 538 -52 586 -27 l 522 109 q 317 -11 440 -11 q 196 24 259 -11 q 103 119 132 58 q 88 -134 95 -47 q 75 -232 81 -221 q 43 -243 68 -243 q 18 -204 18 -243 q 51 -5 18 -176 l 83 161 l 78 184 q 72 235 72 208 q 97 330 72 277 q 154 414 122 382 q 210 488 186 446 q 233 553 233 529 q 171 625 233 625 q 119 610 144 625 q 94 571 94 594 q 107 544 94 555 q 135 532 120 532 q 157 535 153 532 q 161 546 161 538 q 132 568 161 563 q 155 585 146 585 q 177 573 168 585 q 187 547 187 562 q 169 506 187 525 q 127 486 150 486 q 89 507 106 486 q 71 550 71 528 q 102 631 71 592 q 168 671 133 671 q 232 638 207 671 q 257 561 257 606 q 224 440 257 498 q 151 241 151 312 q 202 76 151 136 q 338 16 252 16 q 517 155 442 16 q 446 582 492 371 l 374 578 l 376 607 q 602 644 497 609 l 608 616 l 539 597 q 564 -3 539 368 q 654 28 612 7 l 664 -4 z "},"":{"ha":686,"x_min":45,"x_max":675,"o":"m 200 760 l 170 760 q 427 965 258 965 q 605 879 536 965 q 675 624 675 793 q 563 180 675 381 q 273 -21 452 -21 q 106 41 168 -21 q 45 207 45 102 q 158 492 45 369 q 418 615 271 615 q 629 486 568 615 l 632 486 q 639 612 639 584 q 576 800 639 731 q 404 868 513 868 q 200 760 273 868 m 618 427 q 425 579 563 579 q 231 450 304 579 q 158 179 158 321 q 195 62 158 106 q 292 18 231 18 q 481 129 384 18 q 618 427 578 239 z "},"":{"ha":990,"x_min":20,"x_max":965,"o":"m 965 161 q 928 -1 943 77 q 905 -150 913 -79 q 836 -139 863 -142 q 799 -135 809 -135 l 100 -135 q 60 -137 86 -135 q 20 -139 33 -139 l 504 414 l 22 1044 q 106 1037 70 1040 q 167 1035 142 1035 l 857 1035 l 865 814 l 838 814 q 802 909 817 883 q 747 954 787 936 q 696 968 726 963 q 625 972 666 972 l 260 972 l 639 475 l 231 4 l 746 4 q 866 39 832 4 q 933 161 901 75 l 965 161 z "},"":{"ha":1143,"x_min":35,"x_max":1116,"o":"m 1116 -140 l 689 -140 l 689 -109 q 797 -81 770 -109 q 824 4 824 -53 l 824 966 l 326 966 l 326 4 q 353 -81 326 -53 q 461 -109 380 -109 l 461 -140 l 35 -140 l 35 -109 q 143 -81 117 -109 q 170 4 170 -53 l 170 873 q 137 977 170 942 q 37 1011 104 1011 l 37 1043 l 1113 1043 l 1113 1011 q 1014 977 1046 1011 q 981 873 981 942 l 981 4 q 1007 -81 981 -53 q 1116 -109 1033 -109 l 1116 -140 z "},"":{"ha":762,"x_min":14,"x_max":736,"o":"m 736 210 q 685 41 732 104 q 571 -22 637 -22 q 477 40 517 -22 q 437 231 437 102 q 438 285 437 259 q 441 334 439 311 l 465 557 l 309 557 q 242 53 268 134 q 153 -27 216 -27 q 103 -6 127 -27 q 79 50 79 15 q 129 137 79 81 q 183 239 178 193 l 224 557 l 158 557 q 105 544 131 557 q 66 513 79 530 l 37 469 l 14 469 q 95 624 47 572 q 207 676 144 676 l 725 676 l 725 557 l 550 557 q 537 394 542 475 q 533 231 533 313 q 559 140 533 175 q 623 106 585 106 q 673 125 647 106 q 703 176 699 144 q 706 199 705 191 q 707 210 707 208 l 736 210 z "},"":{"ha":380,"x_min":7,"x_max":408,"o":"m 408 1194 q 388 1150 408 1167 q 337 1133 368 1133 q 296 1150 312 1133 q 267 1167 281 1167 q 248 1157 254 1167 q 241 1128 241 1147 q 255 954 241 1105 q 268 581 268 804 q 248 99 268 238 q 194 -92 227 -39 q 148 -134 176 -120 q 90 -149 120 -149 q 32 -125 57 -149 q 7 -67 7 -101 q 24 -23 7 -41 q 68 -5 41 -5 q 112 -27 91 -5 q 142 -50 134 -50 q 169 -19 159 -50 q 179 85 179 11 q 175 218 179 110 q 171 600 171 327 q 182 1033 171 926 q 210 1179 194 1139 q 257 1249 230 1226 q 314 1272 284 1272 q 380 1250 353 1272 q 408 1194 408 1228 z "},"":{"ha":492,"x_min":50,"x_max":429,"o":"m 429 873 q 386 568 386 704 q 392 476 386 519 q 350 473 363 476 l 346 639 q 311 802 342 764 q 211 840 280 840 q 140 808 165 840 q 114 665 114 777 q 141 559 114 602 q 193 515 168 515 q 248 536 229 515 q 268 595 268 557 q 228 661 268 661 q 216 648 216 661 q 219 628 216 642 q 221 608 222 613 q 182 642 182 608 q 199 669 182 658 q 237 681 216 681 q 296 656 274 681 q 318 590 318 631 q 280 527 318 560 q 200 494 242 494 q 94 548 138 494 q 50 671 50 602 q 109 805 50 733 q 227 876 168 876 q 355 758 316 876 q 350 833 355 802 q 345 886 345 864 q 429 873 412 883 z "},"":{"ha":515,"x_min":56,"x_max":467,"o":"m 290 854 q 170 786 217 839 q 122 668 122 732 q 158 539 122 600 q 249 479 193 479 q 356 529 317 479 q 395 657 395 578 q 369 742 395 707 q 300 777 343 777 q 262 753 275 777 q 249 694 249 729 q 275 653 249 653 q 294 657 289 653 q 300 677 300 662 q 297 700 300 686 q 294 721 294 714 q 302 737 294 737 q 332 726 320 737 q 343 697 343 715 q 323 652 343 672 q 278 632 302 632 q 228 649 251 632 q 204 690 204 666 q 240 768 204 733 q 319 803 277 803 q 421 761 375 803 q 467 665 467 719 q 448 584 467 622 q 397 516 430 545 q 335 473 365 488 q 249 458 305 458 q 116 520 176 458 q 56 656 56 583 q 124 795 56 730 q 282 872 193 861 l 290 854 z "},"":{"ha":1067,"x_min":47,"x_max":1021,"o":"m 1021 0 l 612 0 l 634 211 q 787 347 743 251 q 831 559 831 442 q 759 812 831 713 q 534 911 686 911 q 310 812 382 911 q 237 559 237 713 q 281 347 237 442 q 435 211 326 251 l 457 0 l 47 0 l 47 225 l 68 225 q 95 160 79 180 q 160 140 111 140 l 379 140 l 376 179 q 145 329 215 223 q 75 554 75 435 q 205 843 75 730 q 534 956 336 956 q 863 843 733 956 q 994 554 994 730 q 924 329 994 435 q 692 179 854 223 l 690 140 l 909 140 q 974 160 958 140 q 1001 225 990 180 l 1021 225 l 1021 0 z "},"":{"ha":861,"x_min":29,"x_max":832,"o":"m 441 525 q 628 616 528 616 q 769 558 706 616 q 832 436 832 499 q 771 310 832 363 q 629 256 710 256 q 507 288 555 256 q 460 359 460 319 q 490 430 460 401 q 550 458 519 458 q 600 440 576 458 q 624 400 624 421 q 608 360 624 379 q 578 340 592 340 q 549 357 549 340 q 565 367 549 358 q 582 395 582 376 q 568 427 582 413 q 539 440 555 440 q 514 415 526 440 q 503 367 503 391 q 542 308 503 334 q 643 281 582 281 q 720 324 686 281 q 753 415 753 367 q 716 539 753 481 q 618 596 679 596 q 480 501 541 596 q 419 257 419 406 q 471 59 419 138 q 606 -20 524 -20 q 721 53 721 -20 q 710 90 721 70 q 686 111 699 111 q 648 56 659 111 q 626 87 626 64 q 640 119 626 105 q 684 133 654 133 q 740 113 720 133 q 761 64 761 93 q 715 -11 761 24 q 602 -46 669 -46 q 347 136 414 -46 q 242 19 311 65 q 123 -28 174 -28 q 29 64 29 -28 q 74 150 29 111 q 199 204 119 189 q 269 221 214 207 q 334 236 325 236 q 347 354 334 281 q 359 473 359 427 q 331 575 359 534 q 257 616 302 616 q 197 608 219 616 q 150 568 174 600 q 118 500 125 536 q 111 419 111 464 q 126 375 111 393 q 164 357 142 357 q 216 382 191 357 q 241 439 241 408 q 226 468 241 456 q 192 481 210 481 q 177 473 183 481 q 171 456 171 465 q 184 439 171 439 q 205 444 197 439 q 174 416 201 416 q 150 427 159 416 q 140 454 140 437 q 158 491 140 474 q 195 509 175 509 q 286 456 286 509 q 239 375 286 412 q 158 338 192 338 q 90 360 118 338 q 62 421 62 383 q 136 581 62 500 q 290 663 210 663 q 385 626 342 663 q 441 525 428 590 m 328 207 l 197 178 q 145 145 169 171 q 121 92 121 119 q 139 48 121 66 q 182 31 157 31 q 284 90 240 31 q 328 207 328 149 z "},"":{"ha":704,"x_min":-20,"x_max":686,"o":"m 686 650 q 567 533 659 632 q 652 335 652 446 q 561 82 652 188 q 359 -24 470 -24 q 153 62 248 -24 q 28 -96 88 -15 q -20 -64 1 -81 q 126 89 80 35 q 46 306 46 186 q 116 500 46 412 q 302 636 185 588 l 311 619 q 182 509 230 590 q 135 325 135 429 q 170 139 135 220 q 309 304 233 212 l 492 529 q 375 587 439 587 q 320 560 345 587 q 294 509 294 533 q 328 458 294 458 q 361 470 349 458 q 374 500 374 482 q 357 547 374 519 q 382 553 371 553 q 408 541 399 553 q 418 511 418 529 q 389 461 418 481 q 318 440 361 440 q 267 462 288 440 q 245 514 245 484 q 293 577 245 544 q 393 611 340 611 q 524 568 463 611 q 628 692 593 651 q 657 667 633 681 q 686 650 681 654 m 186 104 q 358 -1 250 -1 q 502 83 440 -1 q 564 306 564 168 q 521 488 564 405 q 186 104 414 376 z "},"":{"ha":576,"x_min":45,"x_max":541,"o":"m 325 782 q 347 745 347 782 q 337 696 347 717 q 311 675 327 675 q 285 687 297 675 q 273 728 273 699 q 289 765 273 749 q 325 782 304 782 m 387 110 q 431 95 414 113 q 447 52 447 77 q 417 4 447 22 q 350 -14 388 -14 q 302 18 327 -14 q 277 83 277 49 q 319 151 277 123 q 411 178 361 178 q 500 141 460 178 q 541 57 541 104 q 471 -76 541 -22 q 288 -131 401 -131 q 120 -59 196 -131 q 45 102 45 13 q 111 269 45 190 q 264 349 178 349 l 296 340 q 286 581 298 465 l 353 591 q 343 489 343 505 q 337 384 343 445 q 332 279 332 322 q 229 307 271 307 q 156 271 186 307 q 125 125 125 235 q 179 -51 125 14 q 318 -115 233 -115 q 435 -60 382 -115 q 489 56 489 -4 q 461 128 489 92 q 404 164 434 164 q 352 129 376 164 q 328 71 328 94 q 374 7 328 7 q 399 62 399 7 q 393 81 399 73 q 387 110 387 90 z "},"":{"ha":302,"x_min":45,"x_max":254,"o":"m 218 720 q 254 656 254 711 q 220 604 254 625 q 151 583 186 583 q 46 697 46 583 q 72 756 46 734 q 135 778 98 778 q 176 750 158 778 q 193 692 193 722 q 184 662 193 673 q 161 650 175 650 q 130 667 141 650 q 118 707 118 684 q 131 694 118 703 q 155 686 144 686 q 168 693 163 686 q 174 707 174 699 q 135 730 174 730 q 85 684 85 730 q 112 633 85 656 q 171 610 140 610 q 210 634 193 610 q 227 687 227 658 q 218 720 227 706 m 182 -127 q 45 -149 77 -141 q 134 522 127 225 q 174 511 158 514 q 167 126 167 374 q 182 -127 167 18 z "},"":{"ha":857,"x_min":69,"x_max":806,"o":"m 806 135 l 717 136 q 741 494 741 258 q 69 484 627 494 l 74 554 q 557 536 286 536 q 786 542 713 536 q 794 334 783 489 q 806 135 805 178 z "},"":{"ha":762,"x_min":14,"x_max":715,"o":"m 715 1267 l 507 -53 l 170 644 l 36 579 l 14 625 l 216 725 l 490 165 l 667 1274 l 715 1267 z "},"":{"ha":597,"x_min":-5,"x_max":587,"o":"m 257 549 l 273 668 q 318 791 281 734 q 397 881 355 848 q 471 913 439 913 q 552 883 516 913 q 587 812 587 853 q 559 741 587 776 q 497 707 532 707 q 443 727 463 707 q 422 782 422 747 q 435 813 422 802 q 457 825 448 825 q 488 783 484 825 l 447 789 q 444 772 444 781 q 452 739 444 753 q 472 725 460 725 q 515 752 496 725 q 534 804 534 779 q 471 895 534 895 q 418 863 444 895 q 376 780 392 831 q 326 546 361 729 q 460 553 421 549 l 454 514 q 374 519 411 519 q 321 521 355 519 q 240 107 266 216 q 166 -85 215 -1 q 66 -170 117 -170 q 16 -145 37 -170 q -5 -82 -5 -121 q 19 -19 -5 -45 q 79 7 43 7 q 104 -5 92 7 q 117 -32 117 -17 q 109 -54 117 -43 q 89 -65 101 -65 q 50 -40 83 -40 q 16 -65 16 -40 q 37 -109 16 -89 q 83 -129 58 -129 q 183 17 139 -129 q 254 518 228 162 l 157 515 q 164 561 164 552 q 257 549 192 556 z "},"":{"ha":762,"x_min":35,"x_max":728,"o":"m 693 593 l 728 593 q 663 431 713 488 q 536 375 612 375 q 330 454 471 375 q 187 507 236 507 q 66 380 86 507 l 35 380 q 98 542 48 485 q 221 599 148 599 q 294 586 253 599 q 446 513 334 572 q 576 471 526 471 q 693 593 674 471 m 693 330 l 728 330 q 663 169 713 225 q 536 113 612 113 q 354 178 471 113 q 187 244 237 244 q 66 118 86 244 l 35 118 q 98 278 48 222 q 221 335 148 335 q 297 320 253 335 q 446 250 341 306 q 576 208 526 208 q 693 330 674 208 z "},"":{"ha":850,"x_min":8,"x_max":844,"o":"m 453 956 l 844 0 l 8 0 l 453 956 m 403 718 l 100 68 l 672 68 l 403 718 z "},"":{"ha":454,"x_min":11,"x_max":437,"o":"m 233 254 q 180 222 197 238 q 11 364 39 327 q 99 448 51 388 q 171 558 148 509 q 224 504 193 530 q 50 364 169 470 q 139 313 72 345 q 233 254 205 281 m 437 260 q 399 207 414 224 q 317 283 385 230 q 231 358 248 336 q 378 533 338 474 q 436 497 408 511 l 272 372 q 437 260 360 291 z "},"":{"ha":454,"x_min":18,"x_max":444,"o":"m 225 347 q 78 171 111 222 q 20 208 60 184 l 183 334 q 18 444 93 414 q 57 498 45 486 q 139 421 71 475 q 225 347 208 368 m 444 342 q 356 257 405 318 q 285 147 308 197 q 232 201 262 176 q 406 342 287 235 q 317 392 383 360 q 222 452 250 425 q 275 484 258 468 q 444 342 416 378 z "},"":{"ha":835,"x_min":98,"x_max":734,"o":"m 692 93 q 734 36 734 93 q 694 -4 734 -4 q 653 10 670 -4 q 636 47 636 24 q 655 78 636 64 q 692 93 675 93 m 134 89 q 179 70 160 89 q 197 24 197 50 q 182 -1 197 9 q 149 -11 166 -11 q 98 36 98 -11 q 108 73 98 56 q 134 89 117 89 m 422 81 q 458 66 444 81 q 473 32 473 52 q 456 -5 473 9 q 415 -20 439 -20 q 385 -3 398 -20 q 372 32 372 14 q 386 67 372 54 q 422 81 400 81 z "},"":{"ha":418,"x_min":0,"x_max":0,"o":""},"":{"ha":867,"x_min":-11,"x_max":880,"o":"m 880 16 q 710 -24 819 -14 q 654 386 665 174 q 562 383 626 383 q 376 396 454 383 q 271 103 340 205 q 109 1 202 1 q 25 46 62 1 q -11 140 -11 90 q 22 228 -11 181 q 92 275 54 275 q 131 254 111 275 q 151 212 151 233 q 137 163 151 189 q 103 138 123 138 q 93 142 100 138 q 113 179 113 157 q 102 207 113 193 q 79 221 92 221 q 16 164 16 221 q 44 87 16 112 q 140 62 73 62 q 275 176 237 62 q 313 411 313 290 q 85 567 85 463 q 103 621 85 597 q 149 646 122 646 l 163 646 q 139 581 139 617 q 185 491 139 529 q 311 435 231 453 q 307 539 307 487 q 334 712 307 644 q 422 833 360 780 q 563 912 485 886 q 722 939 641 939 q 779 937 771 939 q 713 444 720 659 q 750 456 725 447 l 753 396 q 713 392 724 393 l 713 343 q 739 17 713 127 q 872 52 789 18 l 880 16 m 676 905 q 485 828 560 909 q 389 488 410 747 q 382 422 385 442 q 471 416 438 416 q 652 432 543 416 q 648 558 648 513 q 676 905 648 743 m 736 1046 q 722 1022 724 1027 q 657 1059 714 1025 q 564 1105 600 1092 q 482 1139 528 1118 q 497 1166 487 1142 q 510 1196 507 1191 q 736 1046 643 1090 z "},"":{"ha":867,"x_min":-11,"x_max":880,"o":"m 880 16 q 710 -24 819 -14 q 654 386 665 174 q 562 383 626 383 q 376 396 454 383 q 271 103 340 205 q 109 1 202 1 q 25 46 62 1 q -11 140 -11 90 q 22 228 -11 181 q 92 275 54 275 q 131 254 111 275 q 151 212 151 233 q 137 163 151 189 q 103 138 123 138 q 93 142 100 138 q 113 179 113 157 q 102 207 113 193 q 79 221 92 221 q 16 164 16 221 q 44 87 16 112 q 140 62 73 62 q 275 176 237 62 q 313 411 313 290 q 85 567 85 463 q 103 621 85 597 q 149 646 122 646 l 163 646 q 139 581 139 617 q 185 491 139 529 q 311 435 231 453 q 307 539 307 487 q 334 712 307 644 q 422 833 360 780 q 563 912 485 886 q 722 939 641 939 q 779 937 771 939 q 713 444 720 659 q 750 456 725 447 l 753 396 q 713 392 724 393 l 713 343 q 739 17 713 127 q 872 52 789 18 l 880 16 m 676 905 q 485 828 560 909 q 389 488 410 747 q 382 422 385 442 q 471 416 438 416 q 652 432 543 416 q 648 558 648 513 q 676 905 648 743 m 810 1177 q 716 1053 752 1074 q 645 1031 681 1031 q 609 1041 626 1031 q 569 1097 593 1052 q 518 1142 545 1142 q 481 1050 490 1142 q 432 1061 450 1065 q 487 1148 459 1127 q 556 1168 514 1168 q 616 1117 582 1168 q 677 1073 646 1073 q 711 1082 692 1073 q 734 1102 730 1090 q 749 1190 739 1114 q 810 1177 776 1190 z "},"":{"ha":957,"x_min":50,"x_max":911,"o":"m 453 639 q 425 623 442 623 q 403 640 414 623 q 392 671 392 658 q 411 704 392 686 q 452 722 431 722 q 496 696 472 722 q 519 647 519 669 q 487 560 519 595 q 416 525 454 525 q 342 564 374 525 q 310 650 310 603 q 375 777 310 717 q 538 838 440 838 q 796 718 682 838 q 911 456 911 597 q 787 133 911 277 q 500 -12 663 -12 q 181 112 312 -12 q 50 404 50 235 q 156 703 50 568 q 415 876 261 838 l 424 856 q 223 709 299 831 q 147 422 147 587 q 250 130 147 250 q 511 11 352 11 q 724 137 640 11 q 807 428 807 263 q 726 698 807 591 q 518 804 646 804 q 387 756 440 804 q 334 652 334 709 q 359 601 334 621 q 411 581 384 581 q 470 597 446 581 q 494 637 494 614 q 480 670 494 657 q 449 684 466 684 q 410 671 410 684 q 453 639 410 659 m 676 1099 q 583 975 618 996 q 511 953 547 953 q 476 963 492 953 q 435 1019 459 974 q 385 1064 412 1064 q 347 972 356 1064 q 298 983 317 987 q 353 1070 326 1049 q 422 1090 380 1090 q 482 1039 448 1090 q 543 995 513 995 q 577 1004 558 995 q 601 1024 596 1013 q 615 1112 606 1036 q 676 1099 642 1112 z "},"":{"ha":1317,"x_min":50,"x_max":1308,"o":"m 1157 164 q 1187 139 1187 156 q 1174 95 1187 114 q 1139 77 1160 77 q 1099 97 1116 77 q 1083 143 1083 118 q 1119 218 1083 182 q 1181 254 1155 254 q 1274 229 1240 254 q 1308 157 1308 204 q 1283 73 1308 119 q 1224 1 1257 28 q 1159 -33 1192 -26 q 1067 -39 1126 -39 q 948 -27 1040 -39 q 799 -16 855 -16 q 686 -29 758 -16 l 686 7 l 770 12 l 755 168 q 648 36 727 90 q 482 -18 569 -18 q 174 107 298 -18 q 50 404 50 232 q 156 703 50 568 q 415 876 261 838 l 424 856 q 222 708 299 831 q 146 422 146 585 q 244 128 146 250 q 493 5 343 5 q 673 92 603 5 q 743 296 743 178 q 713 572 743 399 q 643 827 683 745 q 533 839 614 839 q 395 775 456 839 q 334 652 334 711 q 359 601 334 621 q 411 581 384 581 q 470 597 446 581 q 494 637 494 614 q 480 670 494 657 q 449 684 466 684 q 422 677 434 684 q 411 661 411 670 q 457 647 411 649 q 425 619 442 619 q 403 638 414 619 q 392 671 392 658 q 411 704 392 686 q 452 722 431 722 q 496 696 472 722 q 519 647 519 669 q 487 560 519 595 q 416 525 454 525 q 342 564 374 525 q 310 650 310 603 q 379 789 310 716 q 543 867 449 863 q 787 881 708 872 q 975 909 865 889 q 1139 942 1085 930 q 1121 718 1116 814 l 1088 718 l 1092 871 l 775 850 q 798 422 798 537 q 1139 471 1023 431 l 1139 416 q 798 385 970 389 l 803 16 l 1064 7 q 1222 38 1190 7 q 1253 113 1253 68 q 1230 180 1253 146 q 1156 214 1206 214 q 1126 196 1141 214 q 1111 155 1111 179 q 1125 128 1111 138 q 1152 118 1139 118 q 1165 134 1165 118 q 1152 155 1165 148 l 1157 164 z "},"":{"ha":1090,"x_min":46,"x_max":1067,"o":"m 597 471 q 714 588 645 544 q 846 632 783 632 q 997 578 928 632 q 1067 464 1067 524 q 1006 326 1067 386 q 861 267 945 267 q 730 304 781 267 q 679 390 679 341 q 709 460 679 431 q 770 489 739 489 q 820 470 796 489 q 843 431 843 452 q 827 390 843 410 q 798 371 811 371 q 768 387 781 371 q 802 425 802 400 q 788 457 802 444 q 758 471 774 471 q 734 446 746 471 q 722 397 722 421 q 768 328 722 364 q 875 292 814 292 q 957 336 926 292 q 987 443 987 381 q 944 556 987 503 q 838 610 901 610 q 702 519 759 610 q 646 273 646 428 q 715 66 646 153 q 865 -20 785 -20 q 950 2 916 -20 q 985 60 985 24 q 977 86 985 75 q 957 98 969 98 q 937 81 937 98 q 954 50 937 58 q 939 41 947 41 q 920 56 929 41 q 911 90 911 71 q 925 131 911 114 q 961 149 940 149 q 1004 128 983 149 q 1025 71 1025 108 q 1010 29 1025 57 q 949 -22 995 1 q 861 -46 903 -46 q 701 3 785 -46 q 579 134 618 52 q 481 19 542 61 q 359 -24 421 -24 q 142 74 237 -24 q 46 306 46 172 q 135 519 46 418 q 345 646 223 619 l 353 629 q 197 521 258 611 q 135 325 135 431 q 197 90 135 180 q 358 -1 258 -1 q 500 85 439 -1 q 561 310 561 171 q 507 498 561 425 q 372 572 453 572 q 299 543 328 572 q 271 475 271 513 q 291 431 271 449 q 329 412 311 412 q 376 430 353 412 q 400 464 400 448 q 358 500 400 500 q 342 482 342 500 q 363 464 342 474 q 336 449 352 449 q 311 481 311 449 q 327 509 311 498 q 363 521 342 521 q 402 504 383 521 q 421 467 421 486 q 395 393 421 420 q 326 366 368 366 q 270 398 295 366 q 244 473 244 430 q 292 564 244 524 q 390 604 340 604 q 511 569 454 604 q 597 471 567 533 z "},"":{"ha":671,"x_min":41,"x_max":629,"o":"m 629 406 q 614 338 616 374 q 41 368 388 362 q 43 403 43 391 q 41 422 43 416 q 490 400 311 400 q 629 406 550 400 z "},"":{"ha":997,"x_min":61,"x_max":951,"o":"m 951 408 l 949 346 q 487 360 613 360 q 257 353 395 360 q 61 345 119 345 q 62 385 62 368 q 61 407 62 401 q 529 399 290 399 q 951 408 782 399 z "},"":{"ha":372,"x_min":39,"x_max":339,"o":"m 90 722 q 126 743 104 743 q 152 731 142 743 q 163 704 163 718 q 97 650 163 650 q 57 676 76 650 q 39 730 39 702 q 139 899 39 818 q 151 871 139 884 q 72 765 72 838 q 90 722 72 728 m 267 729 q 302 750 280 750 q 329 734 318 750 q 339 704 339 719 q 317 672 339 688 q 273 657 294 657 q 232 686 252 657 q 212 743 212 714 q 300 884 212 814 q 313 856 300 869 q 252 768 252 831 q 267 729 252 732 z "},"":{"ha":372,"x_min":39,"x_max":342,"o":"m 111 761 q 75 741 98 741 q 49 756 60 741 q 39 786 39 771 q 61 818 39 803 q 104 833 83 833 q 145 805 125 833 q 165 747 165 776 q 78 607 165 677 q 65 635 78 622 q 131 720 131 660 q 111 761 131 755 m 290 755 q 254 734 277 734 q 229 747 239 734 q 218 774 218 760 q 283 828 218 828 q 323 802 304 828 q 342 747 342 776 q 241 579 342 660 q 229 607 241 594 q 309 713 309 640 q 290 755 309 750 z "},"":{"ha":201,"x_min":40,"x_max":167,"o":"m 94 751 q 131 772 108 772 q 156 757 146 772 q 167 726 167 741 q 144 694 167 710 q 102 679 122 679 q 60 708 81 679 q 40 765 40 736 q 127 905 40 836 q 140 878 127 891 q 75 793 75 852 q 94 751 75 758 z "},"":{"ha":179,"x_min":28,"x_max":154,"o":"m 100 761 q 64 741 86 741 q 38 756 49 741 q 28 786 28 771 q 50 818 28 803 q 93 833 72 833 q 134 805 114 833 q 154 747 154 776 q 66 607 154 677 q 54 635 66 622 q 119 720 119 660 q 100 761 119 755 z "},"":{"ha":661,"x_min":39,"x_max":606,"o":"m 338 661 q 380 638 362 661 q 397 586 397 614 q 353 561 397 561 q 302 608 302 561 q 313 646 302 631 q 338 661 323 661 m 606 397 q 596 329 596 366 q 254 346 538 346 q 137 340 200 346 q 43 332 75 334 q 39 386 43 368 l 606 397 m 298 205 q 341 182 323 205 q 358 131 358 159 q 314 106 358 106 q 264 153 264 106 q 274 191 264 176 q 298 205 284 205 z "},"":{"ha":686,"x_min":31,"x_max":652,"o":"m 652 517 l 383 0 l 300 0 l 31 517 l 300 1035 l 383 1035 l 652 517 m 569 517 l 342 960 l 115 517 l 342 75 l 569 517 z "},"":{"ha":549,"x_min":-75,"x_max":510,"o":"m 414 623 q 418 610 418 616 q 406 587 418 598 q 385 576 394 576 q 347 598 364 576 q 330 639 330 620 q 357 700 330 670 q 410 730 385 730 q 479 699 448 730 q 510 631 510 667 q 493 539 510 593 q 407 351 475 485 q 307 142 338 216 q 258 -9 276 67 q 165 -196 220 -165 q 78 -227 109 -227 q -7 -202 25 -227 q -40 -144 -40 -178 q -3 -84 -40 -109 q 81 -58 33 -58 q 117 -73 101 -58 q 134 -109 134 -87 q 111 -142 134 -126 q 68 -157 89 -157 q 52 -143 52 -157 q 72 -132 60 -143 q 84 -103 84 -120 q 66 -78 84 -78 q 22 -91 39 -78 q 4 -127 4 -104 q 28 -183 4 -158 q 85 -208 53 -208 q 156 -153 119 -208 q 210 -39 193 -97 q 267 123 227 20 q 28 614 144 469 q -68 583 -3 606 l -75 610 q 107 679 -5 625 q 175 554 144 631 q 235 376 207 476 l 292 176 l 397 389 q 456 528 441 478 q 471 611 471 578 q 450 664 471 644 q 396 684 429 684 q 370 675 380 684 q 359 654 359 667 q 382 614 359 614 q 414 623 395 614 m 368 907 q 412 880 412 907 q 401 836 412 848 q 368 823 390 823 q 334 872 334 823 q 341 899 334 892 q 368 907 349 907 m 162 897 q 188 881 176 897 q 199 848 199 865 q 146 814 199 814 q 116 829 133 814 q 100 859 100 845 q 118 887 100 878 q 162 897 136 897 z "},"":{"ha":1011,"x_min":35,"x_max":1046,"o":"m 1046 850 l 1040 818 l 940 831 l 863 699 l 749 484 l 629 249 q 530 92 583 166 q 476 24 499 48 q 427 -21 454 0 q 371 -56 401 -42 q 311 -69 340 -69 q 185 -32 228 -69 q 142 72 142 5 q 184 161 142 117 q 277 205 226 205 q 362 185 341 205 q 383 123 383 165 q 350 76 383 101 q 298 50 317 50 q 266 62 279 50 q 253 96 253 75 q 304 86 289 86 q 342 98 326 86 q 358 121 358 110 q 310 157 358 157 q 213 138 253 157 q 174 93 174 119 q 218 33 174 57 q 330 8 262 8 q 483 88 408 8 q 616 298 557 168 q 427 640 524 389 q 318 820 381 755 q 192 885 255 885 q 104 852 145 885 q 64 770 64 820 q 91 699 64 724 q 163 675 118 675 q 228 693 203 675 q 252 742 252 712 q 200 778 252 778 q 171 749 171 778 q 179 717 171 734 q 146 730 159 717 q 134 757 134 743 q 155 807 134 784 q 211 829 177 829 q 256 800 239 829 q 273 730 273 770 q 244 656 273 696 q 176 616 216 616 q 81 661 127 616 q 35 754 35 706 q 95 891 35 833 q 244 950 156 950 q 329 924 279 950 q 427 827 379 898 q 534 572 475 755 q 636 328 606 352 q 892 838 868 805 q 793 852 865 843 l 804 888 q 1046 850 861 868 m 696 1090 q 741 1063 741 1090 q 729 1019 741 1031 q 696 1006 718 1006 q 663 1055 663 1006 q 670 1082 663 1075 q 696 1090 677 1090 m 490 1080 q 516 1064 505 1080 q 528 1031 528 1048 q 475 997 528 997 q 445 1013 461 997 q 428 1042 428 1028 q 446 1070 428 1061 q 490 1080 464 1080 z "},"":{"ha":583,"x_min":-39,"x_max":654,"o":"m 654 668 q 375 376 574 604 q 12 -87 176 148 q -39 -57 -3 -81 q 11 -5 -19 -43 q 78 71 41 33 q 176 186 115 109 l 370 442 q 583 721 505 621 q 654 668 585 713 z "},"":{"ha":746,"x_min":22,"x_max":724,"o":"m 724 250 q 644 39 718 119 q 441 -41 570 -41 q 178 95 300 -41 q 64 310 87 195 l 28 310 l 22 376 l 56 374 q 55 395 55 389 q 61 463 55 426 q 28 462 50 463 l 22 513 l 71 511 q 111 624 83 561 q 245 819 163 745 q 460 905 342 905 q 625 852 564 905 q 680 739 680 804 q 619 622 680 673 q 494 574 562 574 q 412 606 450 574 q 372 684 372 640 q 398 752 372 727 q 468 777 425 777 q 518 761 494 777 q 545 718 545 743 q 498 646 545 646 q 468 667 477 646 q 499 679 481 667 q 517 704 517 691 q 492 747 517 747 q 434 722 459 747 q 408 665 408 697 q 438 614 408 637 q 494 591 466 591 q 576 642 545 591 q 605 739 605 686 q 571 835 605 797 q 462 880 530 880 q 235 757 319 880 q 153 508 164 652 q 340 505 234 505 q 601 513 520 505 l 598 444 l 361 455 q 151 465 283 459 l 151 453 q 156 371 151 415 q 419 366 313 366 q 601 368 477 366 l 587 326 q 287 318 530 326 q 165 313 241 316 q 248 125 187 209 q 483 -8 345 -8 q 611 43 566 -8 q 655 176 655 93 q 650 256 655 193 l 724 250 z "},"":{"ha":254,"x_min":11,"x_max":233,"o":"m 233 254 q 180 222 197 238 q 11 364 39 327 q 99 448 51 388 q 171 558 148 509 q 224 504 193 530 q 50 364 169 470 q 139 313 72 345 q 233 254 205 281 z "},"":{"ha":236,"x_min":17,"x_max":224,"o":"m 224 359 q 77 184 116 243 q 18 221 46 208 l 182 346 q 17 458 94 427 q 56 511 40 494 q 137 435 69 488 q 224 359 205 382 z "},"":{"ha":799,"x_min":64,"x_max":778,"o":"m 589 812 q 614 793 614 808 q 601 759 614 778 q 575 741 589 741 q 536 763 559 741 q 514 802 514 785 q 540 860 514 836 q 599 884 566 884 q 662 853 636 884 q 688 783 688 823 q 655 704 688 737 q 572 671 622 671 q 491 706 530 671 q 423 806 452 741 q 369 893 394 871 q 309 916 343 916 q 235 867 260 916 q 210 741 210 819 q 220 552 210 680 q 229 359 231 425 q 424 379 349 359 l 422 340 q 231 329 366 334 q 212 11 231 231 q 335 29 297 19 l 338 -9 l 96 -24 l 98 16 l 179 12 q 187 222 187 176 q 184 326 187 274 l 64 317 l 65 353 l 183 357 q 155 529 183 410 q 127 701 127 648 q 180 871 127 803 q 315 939 233 939 q 441 822 399 939 q 495 737 461 767 q 566 707 528 707 q 628 731 596 707 q 660 786 660 756 q 633 829 660 812 q 575 846 606 846 q 545 836 557 846 q 532 811 532 826 q 567 783 532 783 q 589 812 581 783 m 778 -4 q 517 -35 602 -12 l 514 5 l 602 12 q 542 570 587 298 l 467 570 l 465 593 q 690 629 608 596 l 692 599 l 631 581 q 629 297 629 492 q 631 20 629 107 q 775 36 720 24 l 778 -4 z "},"":{"ha":802,"x_min":35,"x_max":747,"o":"m 661 132 q 624 86 652 86 q 578 134 578 86 q 606 194 578 168 q 671 220 635 220 q 724 192 701 220 q 747 129 747 164 q 679 16 747 62 q 545 -31 611 -31 q 491 -8 519 -31 q 464 45 464 15 q 491 273 464 128 q 528 558 517 417 q 539 977 539 699 l 456 974 l 457 997 q 708 1034 585 997 l 708 1010 l 652 991 q 587 520 606 630 q 527 257 568 410 q 486 52 486 105 q 506 7 486 26 q 551 -11 525 -11 q 654 25 610 -11 q 699 118 699 60 q 685 157 699 140 q 652 175 672 175 q 597 132 597 175 q 616 117 597 117 q 653 135 637 117 l 661 132 m 144 418 q 102 589 138 459 q 65 777 65 719 q 132 929 65 866 q 281 993 199 993 q 387 956 345 993 q 428 852 428 920 q 394 788 428 820 q 317 757 359 757 q 239 825 239 757 q 259 858 239 842 q 296 873 279 873 q 326 864 312 873 q 340 840 340 854 q 334 827 340 836 q 319 817 328 819 q 298 857 317 857 q 284 846 292 857 q 277 819 277 836 q 289 786 277 800 q 321 772 302 772 q 362 797 345 772 q 379 852 379 821 q 351 942 379 905 q 278 979 322 979 q 190 926 229 979 q 151 799 151 873 q 169 601 151 735 q 189 424 186 467 q 390 460 295 429 l 392 421 q 193 393 295 404 q 210 14 210 180 q 330 40 277 22 l 335 0 q 216 -15 275 -10 q 96 -31 158 -19 l 96 9 l 176 12 q 147 387 176 217 l 35 372 l 35 408 l 144 418 z "},"":{"ha":458,"x_min":41,"x_max":436,"o":"m 436 252 q 249 261 302 261 l 262 -36 l 175 -26 q 212 264 192 66 q 50 248 181 264 q 52 318 52 262 q 215 297 178 304 l 224 590 q 41 578 193 590 q 43 616 43 589 q 45 647 43 641 q 222 621 170 621 q 203 847 222 664 q 282 860 222 847 q 256 621 256 669 q 419 650 296 621 l 412 578 q 250 590 294 590 q 245 296 245 526 q 433 321 300 300 q 436 252 436 300 z "},"":{"ha":275,"x_min":90,"x_max":184,"o":"m 125 404 q 167 381 150 404 q 184 329 184 357 q 140 304 184 304 q 90 351 90 304 q 100 389 90 374 q 125 404 111 404 z "},"":{"ha":201,"x_min":32,"x_max":158,"o":"m 104 43 q 68 22 91 22 q 42 38 53 22 q 32 68 32 54 q 54 100 32 85 q 97 115 76 115 q 138 87 118 115 q 158 29 158 58 q 71 -111 158 -41 q 58 -83 71 -96 q 123 1 123 -58 q 104 43 123 37 z "},"":{"ha":372,"x_min":39,"x_max":336,"o":"m 285 56 q 249 35 271 35 q 223 47 233 35 q 212 74 212 60 q 278 127 212 127 q 318 102 299 127 q 336 47 336 76 q 236 -121 336 -40 q 224 -93 236 -106 q 302 12 302 -60 q 285 56 302 50 m 111 43 q 75 22 98 22 q 49 38 60 22 q 39 68 39 54 q 61 100 39 85 q 104 115 83 115 q 145 87 125 115 q 165 29 165 58 q 78 -111 165 -41 q 65 -83 78 -96 q 131 1 131 -58 q 111 43 131 37 z "},"":{"ha":1095,"x_min":32,"x_max":1057,"o":"m 733 888 q 562 675 684 840 q 342 370 439 510 q 144 57 246 229 l 86 -40 q 32 -14 64 -33 q 155 142 98 49 l 355 451 q 659 933 497 667 q 696 907 665 924 q 733 888 727 891 m 262 734 q 292 685 292 734 q 276 650 292 667 q 241 633 261 633 q 204 652 220 633 q 187 694 187 670 q 216 768 187 732 q 278 803 245 803 q 358 762 321 803 q 395 689 395 722 q 344 563 395 628 q 236 497 293 497 q 107 535 161 497 q 54 632 54 573 q 92 750 54 701 q 196 817 129 800 l 203 804 q 136 744 159 782 q 114 664 114 706 q 231 515 114 515 q 300 569 272 515 q 328 679 328 623 q 313 750 328 716 q 272 783 298 783 q 236 759 253 783 q 218 707 218 734 q 224 675 218 695 q 235 656 229 656 q 258 674 254 656 q 262 734 262 692 m 908 139 q 857 175 857 144 q 888 243 857 215 q 960 272 919 272 q 1024 238 991 272 q 1057 149 1057 204 q 1005 41 1057 83 q 882 -1 952 -1 q 770 47 819 -1 q 721 158 721 96 q 774 273 721 219 q 888 326 828 326 q 971 310 938 326 l 960 294 q 911 309 930 309 q 829 266 865 309 q 793 160 793 223 q 818 53 793 89 q 885 17 843 17 q 960 54 924 17 q 997 132 997 90 q 982 218 997 188 q 942 249 967 249 q 903 184 903 249 q 908 139 903 163 m 509 127 q 457 164 457 133 q 488 233 457 204 q 559 261 519 261 q 624 227 591 261 q 657 138 657 193 q 605 30 657 72 q 482 -12 553 -12 q 370 36 418 -12 q 321 147 321 84 q 374 261 321 208 q 488 315 428 315 q 571 298 538 315 l 559 283 q 511 297 530 297 q 429 254 465 297 q 393 149 393 212 q 418 42 393 78 q 485 5 443 5 q 561 42 524 5 q 597 121 597 79 q 582 207 597 177 q 542 237 567 237 q 503 174 503 237 q 509 127 503 152 z "},"":{"ha":867,"x_min":-11,"x_max":880,"o":"m 880 16 q 710 -24 819 -14 q 654 386 665 174 q 562 383 626 383 q 376 396 454 383 q 271 103 340 205 q 109 1 202 1 q 25 46 62 1 q -11 140 -11 90 q 22 228 -11 181 q 92 275 54 275 q 131 254 111 275 q 151 212 151 233 q 137 163 151 189 q 103 138 123 138 q 93 142 100 138 q 113 179 113 157 q 102 207 113 193 q 79 221 92 221 q 16 164 16 221 q 44 87 16 112 q 140 62 73 62 q 275 176 237 62 q 313 411 313 290 q 85 567 85 463 q 103 621 85 597 q 149 646 122 646 l 163 646 q 139 581 139 617 q 185 491 139 529 q 311 435 231 453 q 307 539 307 487 q 334 712 307 644 q 422 833 360 780 q 563 912 485 886 q 722 939 641 939 q 779 937 771 939 q 713 444 720 659 q 750 456 725 447 l 753 396 q 713 392 724 393 l 713 343 q 739 17 713 127 q 872 52 789 18 l 880 16 m 676 905 q 485 828 560 909 q 389 488 410 747 q 382 422 385 442 q 471 416 438 416 q 652 432 543 416 q 648 558 648 513 q 676 905 648 743 m 735 1044 q 674 1014 696 1022 q 597 1136 648 1067 q 522 1007 532 1029 q 463 1040 476 1028 q 527 1100 476 1055 q 602 1175 578 1144 q 735 1044 626 1138 z "},"":{"ha":739,"x_min":14,"x_max":750,"o":"m 599 180 q 629 155 629 172 q 616 112 629 130 q 581 93 602 93 q 541 114 557 93 q 525 160 525 135 q 561 235 525 199 q 623 271 596 271 q 716 246 682 271 q 750 174 750 221 q 725 90 750 135 q 666 18 699 45 q 601 -16 633 -9 q 509 -22 568 -22 q 389 -11 482 -22 q 240 1 296 1 q 127 -12 200 1 l 127 24 l 205 29 q 160 475 184 314 q 86 825 136 637 l 14 819 l 14 854 q 429 899 246 862 l 582 929 q 564 705 558 802 l 530 705 l 534 859 l 218 838 q 240 410 240 525 q 554 458 439 418 l 554 404 q 240 372 412 376 q 243 194 243 303 q 241 32 243 114 l 505 24 q 661 52 627 24 q 694 135 694 79 q 597 231 694 231 q 568 213 583 231 q 553 172 553 196 q 567 145 553 155 q 593 135 581 135 q 607 150 607 135 q 593 172 607 164 l 599 180 m 463 1017 q 402 986 424 994 q 326 1108 376 1039 q 250 979 260 1002 q 191 1013 204 1000 q 255 1072 204 1027 q 330 1147 306 1116 q 463 1017 354 1110 z "},"":{"ha":867,"x_min":-11,"x_max":880,"o":"m 880 16 q 710 -24 819 -14 q 654 386 665 174 q 562 383 626 383 q 376 396 454 383 q 271 103 340 205 q 109 1 202 1 q 25 46 62 1 q -11 140 -11 90 q 22 228 -11 181 q 92 275 54 275 q 131 254 111 275 q 151 212 151 233 q 137 163 151 189 q 103 138 123 138 q 93 142 100 138 q 113 179 113 157 q 102 207 113 193 q 79 221 92 221 q 16 164 16 221 q 44 87 16 112 q 140 62 73 62 q 275 176 237 62 q 313 411 313 290 q 85 567 85 463 q 103 621 85 597 q 149 646 122 646 l 163 646 q 139 581 139 617 q 185 491 139 529 q 311 435 231 453 q 307 539 307 487 q 334 712 307 644 q 422 833 360 780 q 563 912 485 886 q 722 939 641 939 q 779 937 771 939 q 713 444 720 659 q 750 456 725 447 l 753 396 q 713 392 724 393 l 713 343 q 739 17 713 127 q 872 52 789 18 l 880 16 m 676 905 q 485 828 560 909 q 389 488 410 747 q 382 422 385 442 q 471 416 438 416 q 652 432 543 416 q 648 558 648 513 q 676 905 648 743 m 751 1150 q 669 1117 705 1130 q 582 1074 633 1103 q 511 1034 531 1044 q 497 1057 509 1039 q 723 1207 590 1101 q 736 1178 726 1202 q 751 1150 746 1154 z "},"":{"ha":739,"x_min":14,"x_max":750,"o":"m 599 180 q 629 155 629 172 q 616 112 629 130 q 581 93 602 93 q 541 114 557 93 q 525 160 525 135 q 561 235 525 199 q 623 271 596 271 q 716 246 682 271 q 750 174 750 221 q 725 90 750 135 q 666 18 699 45 q 601 -16 633 -9 q 509 -22 568 -22 q 389 -11 482 -22 q 240 1 296 1 q 127 -12 200 1 l 127 24 l 205 29 q 160 475 184 314 q 86 825 136 637 l 14 819 l 14 854 q 429 899 246 862 l 582 929 q 564 705 558 802 l 530 705 l 534 859 l 218 838 q 240 410 240 525 q 554 458 439 418 l 554 404 q 240 372 412 376 q 243 194 243 303 q 241 32 243 114 l 505 24 q 661 52 627 24 q 694 135 694 79 q 597 231 694 231 q 568 213 583 231 q 553 172 553 196 q 567 145 553 155 q 593 135 581 135 q 607 150 607 135 q 593 172 607 164 l 599 180 m 435 1079 q 479 1053 479 1079 q 468 1008 479 1020 q 435 996 457 996 q 401 1044 401 996 q 409 1072 401 1064 q 435 1079 416 1079 m 229 1069 q 255 1053 243 1069 q 267 1021 267 1037 q 214 986 267 986 q 183 1002 200 986 q 167 1031 167 1017 q 185 1060 167 1050 q 229 1069 203 1069 z "},"":{"ha":739,"x_min":14,"x_max":750,"o":"m 599 180 q 629 155 629 172 q 616 112 629 130 q 581 93 602 93 q 541 114 557 93 q 525 160 525 135 q 561 235 525 199 q 623 271 596 271 q 716 246 682 271 q 750 174 750 221 q 725 90 750 135 q 666 18 699 45 q 601 -16 633 -9 q 509 -22 568 -22 q 389 -11 482 -22 q 240 1 296 1 q 127 -12 200 1 l 127 24 l 205 29 q 160 475 184 314 q 86 825 136 637 l 14 819 l 14 854 q 429 899 246 862 l 582 929 q 564 705 558 802 l 530 705 l 534 859 l 218 838 q 240 410 240 525 q 554 458 439 418 l 554 404 q 240 372 412 376 q 243 194 243 303 q 241 32 243 114 l 505 24 q 661 52 627 24 q 694 135 694 79 q 597 231 694 231 q 568 213 583 231 q 553 172 553 196 q 567 145 553 155 q 593 135 581 135 q 607 150 607 135 q 593 172 607 164 l 599 180 m 463 1002 q 450 978 451 983 q 385 1015 441 981 q 292 1061 328 1048 q 210 1095 256 1074 q 224 1122 214 1098 q 237 1152 235 1147 q 463 1002 370 1046 z "},"":{"ha":374,"x_min":31,"x_max":357,"o":"m 357 33 l 354 -4 q 200 3 281 3 q 61 -11 165 3 l 61 28 l 182 31 q 131 869 134 379 l 31 867 l 32 899 q 203 904 157 897 q 319 930 250 911 l 326 896 l 236 878 q 211 324 211 559 q 218 32 211 180 q 357 33 276 32 m 323 1117 q 241 1083 277 1097 q 154 1040 205 1070 q 83 1000 103 1010 q 69 1024 81 1006 q 295 1174 162 1068 q 308 1145 298 1169 q 323 1117 318 1120 z "},"":{"ha":374,"x_min":31,"x_max":357,"o":"m 357 33 l 354 -4 q 200 3 281 3 q 61 -11 165 3 l 61 28 l 182 31 q 131 869 134 379 l 31 867 l 32 899 q 203 904 157 897 q 319 930 250 911 l 326 896 l 236 878 q 211 324 211 559 q 218 32 211 180 q 357 33 276 32 m 313 1022 q 252 991 273 1000 q 175 1114 225 1044 q 100 985 109 1007 q 40 1018 54 1006 q 104 1077 54 1033 q 179 1152 155 1122 q 313 1022 203 1116 z "},"":{"ha":374,"x_min":28,"x_max":357,"o":"m 357 33 l 354 -4 q 200 3 281 3 q 61 -11 165 3 l 61 28 l 182 31 q 131 869 134 379 l 31 867 l 32 899 q 203 904 157 897 q 319 930 250 911 l 326 896 l 236 878 q 211 324 211 559 q 218 32 211 180 q 357 33 276 32 m 296 1107 q 340 1080 340 1107 q 329 1036 340 1048 q 296 1023 318 1023 q 262 1072 262 1023 q 270 1099 262 1092 q 296 1107 277 1107 m 90 1097 q 116 1081 104 1097 q 127 1048 127 1065 q 75 1014 127 1014 q 44 1029 61 1014 q 28 1059 28 1045 q 46 1087 28 1078 q 90 1097 64 1097 z "},"":{"ha":374,"x_min":31,"x_max":357,"o":"m 357 33 l 354 -4 q 200 3 281 3 q 61 -11 165 3 l 61 28 l 182 31 q 131 869 134 379 l 31 867 l 32 899 q 203 904 157 897 q 319 930 250 911 l 326 896 l 236 878 q 211 324 211 559 q 218 32 211 180 q 357 33 276 32 m 291 1018 q 277 994 279 1000 q 212 1031 269 998 q 119 1077 155 1064 q 37 1111 83 1090 q 52 1139 42 1114 q 65 1168 62 1163 q 291 1018 198 1062 z "},"":{"ha":957,"x_min":50,"x_max":911,"o":"m 453 639 q 425 623 442 623 q 403 640 414 623 q 392 671 392 658 q 411 704 392 686 q 452 722 431 722 q 496 696 472 722 q 519 647 519 669 q 487 560 519 595 q 416 525 454 525 q 342 564 374 525 q 310 650 310 603 q 375 777 310 717 q 538 838 440 838 q 796 718 682 838 q 911 456 911 597 q 787 133 911 277 q 500 -12 663 -12 q 181 112 312 -12 q 50 404 50 235 q 156 703 50 568 q 415 876 261 838 l 424 856 q 223 709 299 831 q 147 422 147 587 q 250 130 147 250 q 511 11 352 11 q 724 137 640 11 q 807 428 807 263 q 726 698 807 591 q 518 804 646 804 q 387 756 440 804 q 334 652 334 709 q 359 601 334 621 q 411 581 384 581 q 470 597 446 581 q 494 637 494 614 q 480 670 494 657 q 449 684 466 684 q 410 671 410 684 q 453 639 410 659 m 618 1083 q 536 1049 572 1063 q 449 1006 500 1036 q 378 966 398 977 q 364 990 376 972 q 590 1140 457 1034 q 603 1111 593 1135 q 618 1083 613 1086 z "},"":{"ha":957,"x_min":50,"x_max":911,"o":"m 453 639 q 425 623 442 623 q 403 640 414 623 q 392 671 392 658 q 411 704 392 686 q 452 722 431 722 q 496 696 472 722 q 519 647 519 669 q 487 560 519 595 q 416 525 454 525 q 342 564 374 525 q 310 650 310 603 q 375 777 310 717 q 538 838 440 838 q 796 718 682 838 q 911 456 911 597 q 787 133 911 277 q 500 -12 663 -12 q 181 112 312 -12 q 50 404 50 235 q 156 703 50 568 q 415 876 261 838 l 424 856 q 223 709 299 831 q 147 422 147 587 q 250 130 147 250 q 511 11 352 11 q 724 137 640 11 q 807 428 807 263 q 726 698 807 591 q 518 804 646 804 q 387 756 440 804 q 334 652 334 709 q 359 601 334 621 q 411 581 384 581 q 470 597 446 581 q 494 637 494 614 q 480 670 494 657 q 449 684 466 684 q 410 671 410 684 q 453 639 410 659 m 629 983 q 568 953 590 961 q 492 1075 542 1006 q 416 946 426 968 q 357 979 370 967 q 421 1039 370 994 q 496 1114 472 1083 q 629 983 520 1077 z "},"":{"ha":419,"x_min":0,"x_max":0,"o":""},"":{"ha":957,"x_min":50,"x_max":911,"o":"m 453 639 q 425 623 442 623 q 403 640 414 623 q 392 671 392 658 q 411 704 392 686 q 452 722 431 722 q 496 696 472 722 q 519 647 519 669 q 487 560 519 595 q 416 525 454 525 q 342 564 374 525 q 310 650 310 603 q 375 777 310 717 q 538 838 440 838 q 796 718 682 838 q 911 456 911 597 q 787 133 911 277 q 500 -12 663 -12 q 181 112 312 -12 q 50 404 50 235 q 156 703 50 568 q 415 876 261 838 l 424 856 q 223 709 299 831 q 147 422 147 587 q 250 130 147 250 q 511 11 352 11 q 724 137 640 11 q 807 428 807 263 q 726 698 807 591 q 518 804 646 804 q 387 756 440 804 q 334 652 334 709 q 359 601 334 621 q 411 581 384 581 q 470 597 446 581 q 494 637 494 614 q 480 670 494 657 q 449 684 466 684 q 410 671 410 684 q 453 639 410 659 m 613 979 q 600 956 601 961 q 534 992 591 959 q 441 1039 477 1025 q 359 1072 406 1052 q 374 1100 364 1076 q 387 1129 385 1124 q 613 979 520 1023 z "},"":{"ha":916,"x_min":96,"x_max":831,"o":"m 643 705 q 633 690 643 697 q 614 684 623 684 q 591 694 601 684 q 581 715 581 705 q 595 748 581 730 q 627 765 610 765 q 677 746 653 765 q 701 704 701 727 q 670 645 701 669 q 602 621 640 621 q 526 657 559 621 q 492 733 492 693 q 536 837 492 794 q 633 879 580 879 q 773 765 716 879 q 831 463 831 650 q 736 112 831 257 q 476 -33 642 -33 q 226 78 332 -33 q 119 339 119 189 q 126 470 119 412 q 151 653 133 529 l 175 810 l 96 810 l 96 836 q 244 842 199 838 q 370 869 290 846 l 370 836 l 290 818 q 250 672 277 783 q 212 486 222 562 q 203 310 203 411 q 282 89 203 183 q 476 -5 361 -5 q 710 126 626 -5 q 794 458 794 258 q 753 730 794 637 q 635 823 712 823 q 566 792 595 823 q 536 718 536 760 q 560 660 536 683 q 610 637 583 637 q 646 653 629 637 q 663 686 663 669 q 650 729 663 707 q 628 750 638 750 q 608 733 608 750 q 643 705 608 720 m 656 1089 q 574 1056 610 1069 q 488 1013 538 1042 q 416 972 437 983 q 403 996 415 978 q 629 1146 496 1040 q 642 1117 631 1141 q 656 1089 652 1093 z "},"":{"ha":916,"x_min":96,"x_max":831,"o":"m 643 705 q 633 690 643 697 q 614 684 623 684 q 591 694 601 684 q 581 715 581 705 q 595 748 581 730 q 627 765 610 765 q 677 746 653 765 q 701 704 701 727 q 670 645 701 669 q 602 621 640 621 q 526 657 559 621 q 492 733 492 693 q 536 837 492 794 q 633 879 580 879 q 773 765 716 879 q 831 463 831 650 q 736 112 831 257 q 476 -33 642 -33 q 226 78 332 -33 q 119 339 119 189 q 126 470 119 412 q 151 653 133 529 l 175 810 l 96 810 l 96 836 q 244 842 199 838 q 370 869 290 846 l 370 836 l 290 818 q 250 672 277 783 q 212 486 222 562 q 203 310 203 411 q 282 89 203 183 q 476 -5 361 -5 q 710 126 626 -5 q 794 458 794 258 q 753 730 794 637 q 635 823 712 823 q 566 792 595 823 q 536 718 536 760 q 560 660 536 683 q 610 637 583 637 q 646 653 629 637 q 663 686 663 669 q 650 729 663 707 q 628 750 638 750 q 608 733 608 750 q 643 705 608 720 m 624 1000 q 563 969 585 977 q 486 1091 536 1022 q 411 962 420 985 q 351 996 365 983 q 416 1055 365 1010 q 490 1130 467 1099 q 624 1000 515 1093 z "},"":{"ha":916,"x_min":96,"x_max":831,"o":"m 643 705 q 633 690 643 697 q 614 684 623 684 q 591 694 601 684 q 581 715 581 705 q 595 748 581 730 q 627 765 610 765 q 677 746 653 765 q 701 704 701 727 q 670 645 701 669 q 602 621 640 621 q 526 657 559 621 q 492 733 492 693 q 536 837 492 794 q 633 879 580 879 q 773 765 716 879 q 831 463 831 650 q 736 112 831 257 q 476 -33 642 -33 q 226 78 332 -33 q 119 339 119 189 q 126 470 119 412 q 151 653 133 529 l 175 810 l 96 810 l 96 836 q 244 842 199 838 q 370 869 290 846 l 370 836 l 290 818 q 250 672 277 783 q 212 486 222 562 q 203 310 203 411 q 282 89 203 183 q 476 -5 361 -5 q 710 126 626 -5 q 794 458 794 258 q 753 730 794 637 q 635 823 712 823 q 566 792 595 823 q 536 718 536 760 q 560 660 536 683 q 610 637 583 637 q 646 653 629 637 q 663 686 663 669 q 650 729 663 707 q 628 750 638 750 q 608 733 608 750 q 643 705 608 720 m 608 974 q 594 950 595 956 q 529 987 586 954 q 436 1033 472 1020 q 354 1067 400 1046 q 369 1095 359 1070 q 382 1124 379 1119 q 608 974 515 1018 z "},"":{"ha":310,"x_min":29,"x_max":310,"o":"m 310 -16 q 115 -21 153 -16 q 47 -32 76 -26 l 47 5 l 135 8 q 104 571 135 302 l 29 574 l 29 599 q 126 597 99 597 q 256 623 174 597 l 256 591 l 195 576 l 180 358 l 164 14 q 310 22 241 14 l 310 -16 z "},"":{"ha":318,"x_min":12,"x_max":285,"o":"m 285 750 q 224 720 245 728 q 147 842 197 772 q 72 713 81 735 q 12 746 26 734 q 77 805 26 761 q 151 880 127 850 q 285 750 176 844 z "},"":{"ha":385,"x_min":9,"x_max":387,"o":"m 387 843 q 294 719 330 741 q 222 697 258 697 q 187 708 203 697 q 146 763 170 718 q 96 808 123 808 q 58 717 67 808 q 9 728 28 732 q 64 814 37 793 q 134 835 92 835 q 193 783 159 835 q 254 739 224 739 q 288 748 269 739 q 312 768 307 757 q 326 856 317 780 q 387 843 353 856 z "},"":{"ha":321,"x_min":36,"x_max":290,"o":"m 290 778 q 288 741 288 770 q 150 746 237 746 q 45 743 89 746 l 36 783 q 213 774 142 774 q 290 778 256 774 z "},"":{"ha":309,"x_min":35,"x_max":278,"o":"m 278 814 q 174 681 235 681 q 87 700 117 681 q 35 808 58 719 q 93 832 68 816 q 147 697 96 697 q 196 709 181 697 q 215 762 211 722 q 220 817 218 803 l 252 817 q 278 814 268 817 z "},"":{"ha":200,"x_min":62,"x_max":149,"o":"m 121 832 q 139 815 130 832 q 149 789 149 798 q 135 760 149 773 q 104 747 121 747 q 76 760 89 747 q 62 786 62 772 q 82 818 62 803 q 121 832 101 832 z "},"":{"ha":282,"x_min":28,"x_max":260,"o":"m 134 918 q 218 885 176 918 q 260 807 260 852 q 221 708 260 754 q 149 663 183 663 q 69 705 110 663 q 28 790 28 747 q 58 882 28 846 q 134 918 87 918 m 136 717 q 192 734 169 717 q 215 779 215 751 q 157 884 215 884 q 93 851 123 884 q 62 790 62 819 q 82 736 62 755 q 136 717 102 717 z "},"":{"ha":221,"x_min":32,"x_max":211,"o":"m 93 -58 q 171 -79 132 -56 q 211 -138 211 -102 q 174 -187 211 -163 q 106 -211 138 -211 q 63 -201 88 -211 q 32 -191 37 -191 q 45 -158 40 -174 q 107 -186 73 -186 q 154 -143 154 -186 q 129 -93 154 -115 q 65 -74 104 -72 q 87 11 85 -26 l 126 11 q 109 -24 119 -1 q 93 -58 100 -47 z "},"":{"ha":361,"x_min":31,"x_max":334,"o":"m 31 700 q 103 773 45 709 q 190 838 160 838 q 206 830 199 838 q 213 812 213 822 q 197 785 213 798 q 122 740 180 772 q 41 684 64 707 q 31 700 34 697 m 160 673 q 236 779 195 737 q 304 820 276 820 q 334 802 334 820 q 302 767 334 785 q 229 716 270 749 q 176 659 187 684 q 160 673 173 663 z "},"":{"ha":245,"x_min":26,"x_max":200,"o":"m 200 -174 q 155 -234 183 -210 q 103 -258 126 -258 q 50 -238 73 -258 q 26 -195 26 -218 q 39 -132 26 -153 q 106 -59 52 -111 q 160 16 160 -8 l 187 8 q 161 -51 180 -24 q 103 -105 143 -77 q 62 -150 62 -134 q 81 -195 62 -176 q 113 -214 99 -214 q 184 -167 155 -214 l 200 -174 z "},"":{"ha":313,"x_min":22,"x_max":275,"o":"m 275 799 q 211 726 258 776 q 147 653 163 677 q 78 739 122 694 q 22 798 33 784 l 58 821 q 114 751 90 797 q 150 688 138 705 q 207 771 189 730 q 232 823 226 813 q 253 814 235 821 q 275 799 272 806 z "},"":{"ha":668,"x_min":35,"x_max":667,"o":"m 555 193 q 574 203 564 203 q 590 191 583 203 q 597 158 597 178 q 578 118 597 140 q 539 96 558 96 q 486 121 507 96 q 465 191 465 146 q 489 252 465 225 q 541 279 513 279 q 626 228 586 279 q 667 114 667 177 q 532 -11 667 -11 q 371 11 477 -11 q 210 32 265 32 q 74 22 159 32 l 77 54 l 195 60 q 201 335 201 113 q 199 422 201 369 l 64 326 q 35 363 45 355 q 196 457 110 404 q 163 868 193 673 q 50 864 123 868 l 53 896 q 219 892 140 892 q 366 905 285 892 l 366 871 l 262 871 q 267 648 267 790 q 264 501 267 625 q 464 650 387 581 q 500 587 476 627 q 264 464 420 562 q 222 58 246 209 l 501 46 q 598 71 557 46 q 639 129 639 96 q 621 201 639 172 q 572 229 604 229 q 510 214 536 229 q 484 172 484 199 q 496 140 484 146 q 536 134 508 134 q 576 158 576 134 q 555 193 576 170 z "},"":{"ha":351,"x_min":-29,"x_max":357,"o":"m 357 517 q 178 431 294 496 q 129 234 165 360 q 92 61 92 109 q 118 14 92 36 q 171 -8 144 -8 q 267 26 229 -8 q 304 118 304 60 q 291 157 304 140 q 257 175 277 175 q 203 132 203 175 q 222 117 203 117 q 258 135 243 117 l 267 132 q 229 86 258 86 q 183 134 183 86 q 212 194 183 168 q 277 220 241 220 q 330 192 307 220 q 353 129 353 164 q 289 16 353 62 q 160 -31 225 -31 q 94 -11 118 -31 q 69 45 69 9 q 88 231 69 132 q 117 393 107 330 q -3 313 16 321 q -29 351 -9 331 q 122 435 23 376 q 139 643 133 523 q 146 806 146 763 l 144 977 l 61 974 l 62 997 q 314 1034 191 997 l 314 1010 l 257 991 q 184 473 205 569 q 328 572 263 524 q 357 517 334 555 z "},"":{"ha":668,"x_min":72,"x_max":616,"o":"m 386 772 q 355 781 370 781 q 336 737 336 781 q 350 711 336 723 q 379 699 363 699 q 441 808 441 699 q 407 885 441 852 q 325 917 372 917 q 217 870 262 917 q 171 764 171 823 q 207 669 171 715 q 351 564 243 623 q 506 473 460 505 q 584 397 552 442 q 616 294 616 353 q 518 86 616 185 q 300 -14 419 -14 q 148 54 213 -14 q 83 210 83 121 q 146 338 83 281 q 275 396 209 396 q 375 367 337 396 q 412 288 412 337 q 370 197 412 235 q 273 158 328 158 q 235 175 250 158 q 220 212 220 191 q 235 247 220 233 q 275 260 251 260 q 302 244 294 260 q 267 218 267 233 q 301 180 267 180 q 346 209 328 180 q 363 271 363 238 q 334 342 363 312 q 265 372 306 372 q 183 323 212 372 q 154 193 154 273 q 200 68 154 121 q 313 16 245 16 q 491 89 417 16 q 566 281 566 161 q 533 374 566 336 q 454 437 501 412 q 325 496 407 463 q 192 556 243 529 q 107 626 142 583 q 72 732 72 669 q 149 878 72 818 q 329 937 226 937 q 441 905 395 937 q 488 821 488 873 q 457 720 488 762 q 375 677 426 677 q 307 695 336 677 q 279 741 279 712 q 296 786 279 766 q 340 806 313 806 q 386 772 386 806 m 448 1143 q 383 1070 431 1120 q 319 997 336 1021 q 250 1083 294 1038 q 195 1141 205 1128 l 231 1164 q 286 1095 262 1141 q 322 1031 310 1049 q 379 1115 361 1074 q 404 1167 398 1157 q 426 1158 407 1165 q 448 1143 444 1150 z "},"":{"ha":427,"x_min":45,"x_max":376,"o":"m 197 93 q 147 121 168 121 q 119 102 136 121 q 102 73 102 84 q 141 11 102 40 q 240 -18 180 -18 q 301 17 269 -18 q 334 93 334 52 q 308 167 334 127 q 160 304 281 207 q 87 374 108 346 q 56 438 67 402 q 45 510 45 474 q 98 631 45 575 q 227 686 151 686 q 331 657 286 686 q 376 578 376 629 q 346 503 376 538 q 275 468 315 468 q 222 500 243 468 q 200 562 200 532 q 243 600 200 600 q 268 595 256 600 q 262 587 267 592 q 237 537 237 559 q 262 511 237 521 q 302 501 286 501 q 327 516 316 501 q 338 544 338 530 q 304 626 338 590 q 224 663 271 663 q 151 629 180 663 q 122 557 122 595 q 243 334 122 425 q 371 139 371 235 q 348 43 371 83 q 292 -23 325 3 q 241 -55 260 -50 q 182 -61 222 -61 q 109 -19 139 -61 q 78 71 78 23 q 104 134 78 106 q 158 161 130 161 q 194 151 178 161 q 209 123 209 140 q 197 93 209 109 m 364 888 q 300 815 347 865 q 236 742 252 766 q 166 828 211 783 q 111 886 122 873 l 147 909 q 202 840 178 886 q 239 777 227 794 q 296 860 277 819 q 321 912 315 902 q 342 903 323 910 q 364 888 361 895 z "},"":{"ha":760,"x_min":35,"x_max":726,"o":"m 619 243 q 644 210 644 243 q 623 182 644 194 q 581 170 602 170 q 533 196 554 170 q 511 236 511 222 q 548 315 511 279 q 621 351 585 351 q 690 318 654 351 q 726 228 726 285 q 656 78 726 151 q 479 5 585 5 q 346 17 450 5 q 183 28 243 28 q 43 8 79 28 l 35 25 q 370 473 272 301 q 561 875 467 644 q 176 802 405 802 q 153 643 166 707 l 113 647 q 144 817 144 762 q 134 947 144 863 q 164 951 137 948 l 176 873 q 262 872 222 872 q 503 891 404 872 q 623 937 602 911 q 669 893 632 923 q 533 627 610 766 q 390 404 456 488 q 219 199 323 319 q 102 60 115 78 q 201 88 134 76 q 314 100 267 100 q 431 81 342 100 q 578 62 519 62 q 651 106 618 62 q 684 197 684 150 q 657 266 684 231 q 602 301 631 301 q 550 285 568 301 q 532 252 532 269 q 586 203 532 203 q 607 216 595 203 q 619 243 619 230 m 514 1121 q 450 1048 497 1098 q 386 975 402 999 q 316 1061 361 1016 q 261 1120 272 1106 l 297 1143 q 352 1073 328 1119 q 389 1010 376 1027 q 446 1094 427 1052 q 471 1145 465 1135 q 492 1136 473 1143 q 514 1121 511 1128 z "},"":{"ha":545,"x_min":-16,"x_max":496,"o":"m 496 624 q 309 326 439 494 q 72 78 178 157 q 199 89 153 89 q 446 40 343 89 q 457 168 454 94 l 490 165 q 465 -72 463 43 l 439 -71 q 437 -43 437 -47 q 444 8 437 -24 q 252 47 342 47 q 7 7 142 47 l -16 46 q 218 281 96 109 q 376 589 340 453 q 182 553 232 553 q 80 581 127 553 q 32 654 32 609 q 71 716 32 692 q 155 741 109 741 q 220 725 191 741 q 249 684 249 710 q 216 647 249 661 q 153 632 182 632 q 115 664 115 632 q 144 682 115 678 q 176 653 144 653 q 195 657 186 653 q 204 668 204 661 q 180 701 204 687 q 132 715 155 715 q 84 700 106 715 q 61 661 61 684 q 93 616 61 632 q 210 600 125 600 q 481 642 368 600 l 496 624 m 425 937 q 361 865 408 914 q 297 791 313 815 q 228 877 272 832 q 172 936 183 922 l 208 959 q 263 889 239 935 q 300 826 288 844 q 357 910 338 868 q 382 962 376 951 q 403 952 385 960 q 425 937 422 945 z "},"":{"ha":211,"x_min":69,"x_max":139,"o":"m 139 1061 q 131 553 131 788 l 82 547 q 69 1055 82 745 l 139 1061 m 139 -195 l 69 -222 q 83 297 83 39 l 127 302 q 139 -195 127 149 z "},"":{"ha":443,"x_min":39,"x_max":400,"o":"m 400 397 q 390 329 390 366 q 254 346 343 346 q 137 340 200 346 q 43 332 75 334 q 39 386 43 368 q 221 392 119 386 q 400 397 323 397 z "},"":{"ha":694,"x_min":0,"x_max":694,"o":"m 694 1357 l 0 1357 l 0 1426 l 694 1426 l 694 1357 z "},"":{"ha":880,"x_min":-1,"x_max":873,"o":"m 330 840 q 386 843 357 843 q 741 744 609 843 q 873 482 873 644 q 697 137 873 282 q 227 -16 521 -7 l 218 20 l 339 26 q 302 401 329 197 q 106 317 155 337 l 93 363 q 298 431 194 393 q 235 800 270 644 q 109 731 157 778 q 61 621 61 684 q 74 584 61 602 q 100 567 87 567 q 142 583 121 567 q 164 624 164 599 q 157 657 164 643 q 140 672 149 672 q 123 650 123 672 q 134 633 123 641 l 127 625 q 94 653 94 625 q 111 685 94 672 q 147 697 127 697 q 190 677 171 697 q 208 636 208 658 q 170 575 208 604 q 93 547 132 547 q 26 576 54 547 q -1 632 -1 604 q 63 740 -1 684 q 228 822 127 797 l 208 905 l 321 922 l 330 840 m 368 29 q 670 173 566 56 q 774 479 774 289 q 670 724 774 633 q 392 815 566 815 q 336 812 362 815 l 357 453 q 549 534 488 505 l 567 504 q 358 425 522 492 q 368 29 368 205 z "},"":{"ha":653,"x_min":54,"x_max":614,"o":"m 315 736 l 468 555 q 547 450 515 500 q 596 353 578 401 q 614 264 614 305 q 526 83 614 163 q 338 3 438 3 q 142 92 229 3 q 54 256 54 180 q 146 455 54 361 q 325 550 237 550 q 397 522 367 550 q 428 463 428 494 q 400 408 428 436 q 346 379 372 379 q 295 400 319 379 q 272 446 272 421 q 289 470 272 458 q 319 482 306 482 q 314 466 319 479 q 310 440 310 452 q 342 399 310 399 q 368 416 357 399 q 379 450 379 433 q 362 503 379 478 q 322 528 346 528 q 198 446 250 528 q 146 286 146 364 q 201 100 146 173 q 336 28 257 28 q 470 103 408 28 q 532 279 532 178 q 469 491 532 389 q 277 710 406 593 l 154 612 l 126 647 l 252 732 q 213 772 227 761 q 109 869 199 784 q 138 900 117 879 q 171 936 159 921 q 294 764 229 846 q 454 899 389 833 l 485 838 q 315 736 433 812 z "},"":{"ha":1011,"x_min":35,"x_max":1046,"o":"m 1046 850 l 1040 818 l 940 831 l 863 699 l 749 484 l 629 249 q 530 92 583 166 q 476 24 499 48 q 427 -21 454 0 q 371 -56 401 -42 q 311 -69 340 -69 q 185 -32 228 -69 q 142 72 142 5 q 184 161 142 117 q 277 205 226 205 q 362 185 341 205 q 383 123 383 165 q 350 76 383 101 q 298 50 317 50 q 266 62 279 50 q 253 96 253 75 q 304 86 289 86 q 342 98 326 86 q 358 121 358 110 q 310 157 358 157 q 213 138 253 157 q 174 93 174 119 q 218 33 174 57 q 330 8 262 8 q 483 88 408 8 q 616 298 557 168 q 427 640 524 389 q 318 820 381 755 q 192 885 255 885 q 104 852 145 885 q 64 770 64 820 q 91 699 64 724 q 163 675 118 675 q 228 693 203 675 q 252 742 252 712 q 200 778 252 778 q 171 749 171 778 q 179 717 171 734 q 146 730 159 717 q 134 757 134 743 q 155 807 134 784 q 211 829 177 829 q 256 800 239 829 q 273 730 273 770 q 244 656 273 696 q 176 616 216 616 q 81 661 127 616 q 35 754 35 706 q 95 891 35 833 q 244 950 156 950 q 329 924 279 950 q 427 827 379 898 q 534 572 475 755 q 636 328 606 352 q 892 838 868 805 q 793 852 865 843 l 804 888 q 1046 850 861 868 m 745 1095 q 663 1061 699 1074 q 576 1018 627 1048 q 505 978 526 988 q 492 1002 504 983 q 718 1152 585 1046 q 730 1122 720 1147 q 745 1095 741 1098 z "},"":{"ha":549,"x_min":-75,"x_max":510,"o":"m 414 623 q 418 610 418 616 q 406 587 418 598 q 385 576 394 576 q 347 598 364 576 q 330 639 330 620 q 357 700 330 670 q 410 730 385 730 q 479 699 448 730 q 510 631 510 667 q 493 539 510 593 q 407 351 475 485 q 307 142 338 216 q 258 -9 276 67 q 165 -196 220 -165 q 78 -227 109 -227 q -7 -202 25 -227 q -40 -144 -40 -178 q -3 -84 -40 -109 q 81 -58 33 -58 q 117 -73 101 -58 q 134 -109 134 -87 q 111 -142 134 -126 q 68 -157 89 -157 q 52 -143 52 -157 q 72 -132 60 -143 q 84 -103 84 -120 q 66 -78 84 -78 q 22 -91 39 -78 q 4 -127 4 -104 q 28 -183 4 -158 q 85 -208 53 -208 q 156 -153 119 -208 q 210 -39 193 -97 q 267 123 227 20 q 28 614 144 469 q -68 583 -3 606 l -75 610 q 107 679 -5 625 q 175 554 144 631 q 235 376 207 476 l 292 176 l 397 389 q 456 528 441 478 q 471 611 471 578 q 450 664 471 644 q 396 684 429 684 q 370 675 380 684 q 359 654 359 667 q 382 614 359 614 q 414 623 395 614 m 412 928 q 330 894 366 907 q 243 851 294 881 q 172 811 192 821 q 158 835 170 817 q 384 985 251 879 q 397 956 387 980 q 412 928 407 931 z "},"":{"ha":743,"x_min":16,"x_max":718,"o":"m 345 737 q 604 664 489 737 q 718 475 718 591 q 633 265 718 346 q 432 184 549 184 q 369 213 397 184 q 340 278 340 242 q 377 319 340 299 q 443 339 414 339 q 473 298 473 339 q 449 265 473 273 q 435 289 446 269 q 410 309 424 309 q 379 260 379 309 q 398 220 379 236 q 443 204 416 204 q 570 273 511 204 q 628 429 628 341 q 558 634 628 566 q 342 710 488 701 q 319 3 342 448 l 489 -11 l 479 -41 q 280 -21 405 -28 q 86 -16 156 -13 l 82 16 q 208 10 138 16 q 288 5 278 4 l 294 193 q 272 710 294 481 q 114 671 173 707 q 54 574 54 635 q 72 531 54 551 q 115 510 90 510 q 166 520 144 510 q 187 547 187 530 q 179 561 187 555 q 161 567 170 567 q 139 542 139 567 q 118 566 118 545 q 128 589 118 579 q 153 599 138 599 q 191 585 173 599 q 208 555 208 570 q 181 492 208 518 q 110 465 153 465 q 44 496 73 465 q 16 551 16 527 q 74 671 16 619 q 268 737 133 724 q 260 842 269 766 q 250 929 250 918 l 170 935 l 170 965 q 395 951 277 951 q 447 953 427 951 l 443 917 l 353 922 q 345 737 345 774 z "},"":{"ha":593,"x_min":-16,"x_max":568,"o":"m 271 386 q 241 412 241 398 q 286 452 241 452 q 326 436 309 452 q 342 393 342 420 q 317 336 342 357 q 262 315 293 315 q 201 350 231 315 q 172 419 172 385 q 224 532 172 489 q 338 575 275 575 q 495 494 422 575 q 568 317 568 414 q 479 105 568 197 q 281 14 389 14 q 190 38 239 14 q 118 97 141 62 q 114 -97 114 -30 q 118 -272 114 -236 q 215 -249 162 -269 l 207 -279 q 100 -293 146 -293 q -16 -302 78 -293 l -16 -282 l 90 -275 q 78 -17 78 -193 q 87 244 78 153 q 125 854 125 595 q 118 1002 125 905 l 40 1000 l 41 1025 q 294 1046 193 1025 l 296 1022 l 225 1007 q 209 851 217 941 q 186 673 201 761 q 125 208 125 331 q 173 99 125 155 q 283 43 220 43 q 422 124 362 43 q 482 307 482 205 q 430 473 482 404 q 319 542 378 542 q 233 511 267 542 q 199 429 199 480 q 220 382 199 408 q 262 357 242 357 q 301 369 282 357 q 319 396 319 382 q 282 422 319 422 q 262 407 262 422 q 278 393 262 400 l 271 386 z "},"":{"ha":725,"x_min":28,"x_max":701,"o":"m 701 436 q 28 424 215 436 l 32 490 q 693 517 480 490 l 701 436 z "},"":{"ha":825,"x_min":69,"x_max":760,"o":"m 760 688 l 572 520 q 436 389 475 433 q 753 82 663 155 l 694 18 q 542 192 664 50 q 400 353 420 335 q 147 36 388 352 l 81 75 q 382 386 338 346 q 219 544 334 439 q 69 684 104 649 l 134 750 q 412 415 267 559 q 573 598 485 488 q 692 742 662 709 l 760 688 z "},"":{"ha":403,"x_min":32,"x_max":328,"o":"m 328 349 q 107 307 176 340 l 104 336 q 208 361 142 344 q 171 847 187 758 q 79 821 131 821 q 51 833 70 821 q 32 854 32 846 q 45 891 32 874 q 72 908 59 908 q 97 900 85 908 q 109 882 109 892 q 85 863 109 861 q 71 889 85 889 q 64 885 68 889 q 61 878 61 880 q 71 854 61 863 q 93 844 80 844 q 167 868 122 844 q 257 917 212 892 q 249 712 257 826 q 241 475 241 597 q 244 366 241 423 q 290 373 262 366 q 328 380 317 380 l 328 349 z "},"":{"ha":464,"x_min":72,"x_max":431,"o":"m 102 412 q 175 435 132 435 q 270 410 211 435 q 342 385 330 385 q 401 446 401 385 q 385 480 401 465 q 347 496 368 496 q 323 486 333 496 q 314 467 314 477 q 366 446 314 446 q 368 443 368 446 q 360 426 368 439 q 334 412 353 412 q 308 427 322 412 q 293 454 293 442 q 312 496 293 476 q 358 517 331 517 q 410 499 389 517 q 431 449 431 481 q 396 383 431 414 q 329 351 362 351 q 257 364 313 351 q 158 376 200 376 q 116 369 140 376 q 82 350 91 362 q 72 407 72 374 q 91 472 72 425 q 180 577 110 519 q 306 708 277 659 q 335 802 335 757 q 309 878 335 843 q 244 913 283 913 q 176 886 203 913 q 149 831 149 860 q 164 786 149 803 q 199 770 179 770 q 227 780 216 770 q 237 803 237 789 q 232 821 237 810 q 221 831 226 831 q 199 804 199 831 q 178 821 178 809 q 191 846 178 836 q 216 856 203 856 q 264 810 264 856 q 240 768 264 789 q 182 746 217 746 q 134 770 157 746 q 111 817 111 793 q 160 900 111 863 q 260 936 208 936 q 358 897 317 936 q 399 807 399 858 q 374 718 399 764 q 315 647 349 671 q 151 511 195 562 q 102 412 108 460 z "},"":{"ha":443,"x_min":62,"x_max":380,"o":"m 117 633 q 167 621 154 621 q 275 669 234 621 q 315 787 315 718 q 280 858 315 831 q 199 885 245 885 q 136 856 164 885 q 107 793 107 826 q 122 768 107 782 q 149 754 138 754 q 199 786 199 754 q 183 814 199 814 q 169 801 174 814 q 158 787 165 787 q 140 810 140 787 q 186 833 140 833 q 214 821 197 833 q 231 794 231 808 q 203 753 231 772 q 150 733 176 733 q 92 758 116 733 q 68 815 68 782 q 115 874 68 843 q 228 905 163 905 q 334 865 288 905 q 380 766 380 825 q 329 679 380 732 q 212 597 277 625 q 323 547 283 583 q 363 465 363 510 q 307 356 363 404 q 187 309 251 309 q 101 335 140 309 q 62 399 62 362 q 88 446 62 420 q 147 472 113 472 q 186 460 172 472 q 200 431 200 448 q 146 370 200 370 q 125 404 132 370 q 155 396 148 396 q 173 403 165 396 q 180 416 180 410 q 169 432 180 425 q 143 439 157 439 q 90 403 90 439 q 116 354 90 374 q 191 334 142 334 q 266 367 235 334 q 296 453 296 401 q 263 550 296 519 q 151 581 230 581 q 114 585 142 581 l 117 633 z "},"":{"ha":925,"x_min":36,"x_max":882,"o":"m 332 359 q 111 318 180 351 l 109 347 q 212 372 146 355 q 175 859 192 769 q 83 832 135 832 q 55 844 74 832 q 36 865 36 857 q 50 902 36 885 q 77 920 63 920 q 101 911 89 920 q 113 893 113 903 q 89 873 113 871 q 75 900 89 900 q 68 896 72 900 q 65 889 65 891 q 75 865 65 874 q 97 856 84 856 q 171 879 126 856 q 261 928 216 903 q 253 723 261 837 q 245 486 245 608 q 249 376 245 435 q 289 384 258 378 q 332 392 319 391 l 332 359 m 807 879 q 542 553 747 822 q 123 -62 336 284 q 69 -35 105 -57 q 121 30 90 -17 q 172 98 153 76 q 360 361 267 215 l 732 926 q 807 879 743 910 m 553 47 q 627 69 581 69 q 722 44 663 69 q 793 20 781 20 q 852 81 852 20 q 836 116 852 100 q 799 132 819 132 q 775 122 785 132 q 765 102 765 111 q 817 81 765 81 q 819 77 819 81 q 812 61 819 74 q 785 47 805 47 q 759 62 774 47 q 745 89 745 77 q 764 131 745 111 q 810 151 783 151 q 861 134 840 151 q 882 83 882 116 q 848 18 882 50 q 781 -14 814 -14 q 708 -1 765 -14 q 610 11 652 11 q 566 4 591 11 q 533 -14 542 -2 q 524 41 524 10 q 544 109 524 62 q 627 208 564 155 q 756 341 727 290 q 786 437 786 391 q 760 513 786 479 q 696 547 734 547 q 627 521 654 547 q 600 465 600 495 q 615 421 600 437 q 650 404 630 404 q 678 414 667 404 q 689 439 689 425 q 683 456 689 446 q 672 465 677 465 q 662 458 667 465 q 657 443 657 451 q 634 445 639 443 q 629 456 629 446 q 642 481 629 471 q 668 490 654 490 q 715 444 715 490 q 692 402 715 425 q 633 380 668 380 q 586 405 609 380 q 562 453 562 429 q 611 535 562 499 q 711 571 660 571 q 809 532 768 571 q 850 441 850 492 q 825 353 850 399 q 766 282 801 307 q 600 142 640 193 q 553 47 559 91 z "},"":{"ha":921,"x_min":9,"x_max":885,"o":"m 798 888 q 517 541 724 815 q 114 -54 309 267 q 60 -26 93 -47 q 112 38 80 -8 q 163 107 144 84 q 423 479 267 234 q 722 935 579 724 q 798 888 724 928 m 306 350 q 85 309 161 345 l 82 339 l 186 363 q 150 843 165 741 q 57 822 80 822 q 28 834 47 822 q 9 856 9 847 q 23 892 9 876 q 50 909 36 909 q 74 901 62 909 q 86 884 86 893 q 78 868 86 874 q 61 864 70 863 q 49 890 61 890 q 39 879 39 890 q 48 855 39 865 q 71 846 57 846 q 163 879 106 846 q 233 918 220 911 q 227 707 233 828 q 220 476 220 586 q 221 367 220 443 q 264 374 236 367 q 304 382 292 382 l 306 350 m 885 237 q 876 191 885 235 l 789 191 l 789 24 l 869 24 q 868 -1 869 22 q 637 -33 734 -1 q 633 -4 633 -22 l 762 20 q 754 189 758 136 q 503 186 589 189 q 536 243 505 202 l 595 323 q 647 404 623 359 q 671 475 671 448 q 618 532 671 532 q 569 514 592 532 q 546 473 546 496 q 558 443 546 460 q 579 427 570 427 q 591 432 585 427 q 597 444 597 438 q 582 465 597 463 q 606 482 582 482 q 625 456 625 482 q 606 420 625 435 q 566 404 586 404 q 528 423 541 404 q 514 467 514 441 q 551 523 514 494 q 625 551 587 551 q 700 526 667 551 q 732 460 732 500 q 711 393 732 430 q 629 295 690 355 q 566 221 568 235 q 751 225 652 221 q 760 550 749 429 q 832 539 772 547 q 787 224 800 394 q 885 237 842 224 z "},"":{"ha":917,"x_min":36,"x_max":878,"o":"m 783 878 q 503 532 711 806 q 100 -64 296 258 q 46 -36 79 -56 q 98 28 66 -18 q 149 97 130 75 q 409 469 253 224 q 708 925 566 714 q 783 878 709 918 m 90 631 q 140 618 127 618 q 248 666 208 618 q 288 785 288 714 q 253 855 288 828 q 172 882 218 882 q 109 852 138 882 q 79 790 79 823 q 95 765 79 779 q 122 751 111 751 q 172 783 172 751 q 157 811 172 811 q 143 798 147 811 q 132 785 138 785 q 114 807 114 785 q 160 831 114 831 q 188 818 171 831 q 204 791 204 806 q 177 750 204 770 q 123 730 150 730 q 65 755 90 730 q 41 812 41 779 q 89 871 41 840 q 201 903 136 903 q 308 862 261 903 q 354 764 354 821 q 302 676 354 730 q 186 595 250 622 q 296 544 256 581 q 336 463 336 507 q 280 353 336 401 q 161 306 223 306 q 75 333 114 306 q 36 396 36 359 q 62 444 36 418 q 121 469 87 469 q 160 457 146 469 q 174 428 174 446 q 161 381 174 400 q 125 362 148 362 q 98 404 104 362 q 129 390 114 390 q 145 398 136 390 q 154 414 154 407 q 142 429 154 422 q 117 436 131 436 q 64 400 64 436 q 90 351 64 371 q 164 330 115 330 q 239 364 209 330 q 269 450 269 398 q 236 547 269 516 q 125 578 203 578 q 85 571 111 578 l 90 631 m 878 233 q 871 186 878 231 l 783 186 q 781 109 781 153 q 783 20 781 62 l 864 20 q 863 -5 864 18 q 631 -37 730 -5 l 628 -8 q 757 16 692 16 q 752 98 757 47 q 747 184 747 149 q 497 182 574 182 q 541 254 500 198 q 601 334 583 309 q 641 401 618 359 q 664 471 664 443 q 612 528 664 528 q 564 509 587 528 q 541 468 541 490 q 552 439 541 456 q 574 422 564 422 q 586 428 580 422 q 591 440 591 434 q 576 460 591 460 q 600 478 585 478 q 619 450 619 478 q 600 414 619 430 q 559 399 581 399 q 522 418 536 399 q 509 463 509 437 q 545 519 509 490 q 619 547 582 547 q 694 522 662 547 q 726 454 726 496 q 706 388 726 425 q 624 289 685 351 q 559 212 562 227 q 746 221 639 212 q 754 546 744 425 q 825 534 800 534 q 781 220 795 382 q 878 233 837 220 z "},"":{"ha":403,"x_min":11,"x_max":393,"o":"m 393 581 q 385 533 393 578 l 297 533 l 297 367 l 378 367 q 376 342 378 366 q 146 310 243 342 q 142 339 142 321 l 271 363 q 262 532 267 479 q 11 529 98 532 q 44 587 14 545 l 104 666 q 155 747 131 703 q 179 818 179 791 q 126 875 179 875 q 77 857 100 875 q 54 817 54 839 q 66 786 54 803 q 87 770 78 770 q 100 775 94 770 q 106 787 106 781 q 90 808 106 805 q 114 825 90 825 q 134 799 134 825 q 114 763 134 779 q 74 747 94 747 q 36 766 50 747 q 22 810 22 784 q 59 866 22 838 q 134 895 96 895 q 208 869 176 895 q 240 803 240 843 q 219 735 240 772 q 137 638 198 698 q 74 564 76 578 q 260 568 160 564 q 268 893 258 772 q 340 882 280 890 q 296 567 309 737 q 393 581 350 567 z "},"":{"ha":555,"x_min":3,"x_max":545,"o":"m 110 439 l 5 545 l 40 579 l 143 473 q 275 521 201 521 q 401 479 345 521 l 504 581 l 539 546 l 437 444 q 484 312 484 386 q 439 183 484 239 l 545 74 l 510 40 l 408 151 q 275 104 349 104 q 143 151 202 104 l 37 46 l 3 81 l 109 189 q 66 313 66 242 q 110 439 66 382 m 429 313 q 384 420 429 375 q 276 465 339 465 q 168 421 214 465 q 122 313 122 377 q 167 204 122 248 q 275 160 212 160 q 384 205 339 160 q 429 313 429 250 z "}}}
